<svg width="current" height="current" viewBox="0 0 20 23" fill="none" xmlns="http://www.w3.org/2000/svg">
<path d="M16.6002 3.18802C12.9555 -0.397146 7.04633 -0.397146 3.40166 3.18802C2.53632 4.03343 1.84872 5.04329 1.37926 6.15825C0.909805 7.27321 0.667969 8.47076 0.667969 9.68052C0.667969 10.8903 0.909805 12.0878 1.37926 13.2028C1.84872 14.3178 2.53632 15.3276 3.40166 16.173L10.0003 22.6655L16.6002 16.173C17.4655 15.3276 18.1531 14.3178 18.6226 13.2028C19.092 12.0878 19.3339 10.8903 19.3339 9.68052C19.3339 8.47076 19.092 7.27321 18.6226 6.15825C18.1531 5.04329 17.4655 4.03343 16.6002 3.18802ZM10.0003 12.7489C9.22099 12.7489 8.48949 12.4455 7.93766 11.8949C7.39137 11.3474 7.08456 10.6056 7.08456 9.83219C7.08456 9.05879 7.39137 8.31698 7.93766 7.76952C8.48833 7.21885 9.22099 6.91552 10.0003 6.91552C10.7797 6.91552 11.5123 7.21885 12.063 7.76952C12.6093 8.31698 12.9161 9.05879 12.9161 9.83219C12.9161 10.6056 12.6093 11.3474 12.063 11.8949C11.5123 12.4455 10.7797 12.7489 10.0003 12.7489Z" fill="#BFBFBF"/>
</svg>
