<svg viewBox="0 0 18 26" fill="none" xmlns="http://www.w3.org/2000/svg">
<path id="Vector" d="M3.53044 24.0781C3.53044 24.8602 4.14573 25.5 4.89776 25.5C5.64978 25.5 6.26508 24.8602 6.26508 24.0781V19.8125C7.26322 16.1441 10.4627 14.8786 13.3341 15.5469L12.1309 16.7981C12.0043 16.9298 11.9039 17.0861 11.8354 17.2581C11.7668 17.43 11.7316 17.6144 11.7316 17.8006C11.7316 17.9867 11.7668 18.1711 11.8354 18.3431C11.9039 18.5151 12.0043 18.6713 12.1309 18.803C12.2575 18.9346 12.4077 19.039 12.5731 19.1103C12.7385 19.1815 12.9158 19.2182 13.0948 19.2182C13.2738 19.2182 13.4511 19.1815 13.6165 19.1103C13.7819 19.039 13.9322 18.9346 14.0588 18.803L17.6001 15.1203C17.7269 14.9888 17.8275 14.8325 17.8961 14.6605C17.9647 14.4885 18 14.3041 18 14.1179C18 13.9317 17.9647 13.7473 17.8961 13.5753C17.8275 13.4033 17.7269 13.247 17.6001 13.1155L14.0588 9.43284C13.9322 9.3012 13.7819 9.19678 13.6165 9.12553C13.4511 9.05429 13.2738 9.01762 13.0948 9.01762C12.9158 9.01762 12.7385 9.05429 12.5731 9.12553C12.4077 9.19678 12.2575 9.3012 12.1309 9.43284C12.0043 9.56448 11.9039 9.72076 11.8354 9.89275C11.7668 10.0647 11.7316 10.2491 11.7316 10.4353C11.7316 10.6214 11.7668 10.8058 11.8354 10.9778C11.9039 11.1498 12.0043 11.306 12.1309 11.4377L13.3341 12.7031C11.2695 12.2339 8.23401 12.8169 6.26508 14.6369V5.35206L7.46832 6.60331C7.5949 6.73495 7.74519 6.83937 7.91058 6.91061C8.07598 6.98186 8.25325 7.01853 8.43227 7.01853C8.6113 7.01853 8.78857 6.98186 8.95397 6.91061C9.11936 6.83937 9.26964 6.73495 9.39623 6.60331C9.52282 6.47167 9.62324 6.31539 9.69175 6.1434C9.76026 5.9714 9.79552 5.78706 9.79552 5.60089C9.79552 5.41472 9.76026 5.23038 9.69175 5.05838C9.62324 4.88639 9.52282 4.73011 9.39623 4.59847L5.85488 0.915818C5.72839 0.784006 5.57813 0.67943 5.41272 0.608079C5.24731 0.536727 5.07 0.5 4.89092 0.5C4.71185 0.5 4.53453 0.536727 4.36912 0.608079C4.20371 0.67943 4.05346 0.784006 3.92696 0.915818L0.399285 4.58425C0.272696 4.71589 0.17228 4.87217 0.103771 5.04416C0.0352616 5.21616 1.33383e-09 5.4005 0 5.58667C-1.33383e-09 5.77284 0.0352616 5.95718 0.103771 6.12918C0.17228 6.30117 0.272696 6.45745 0.399285 6.58909C0.525874 6.72073 0.676157 6.82515 0.841553 6.8964C1.00695 6.96764 1.18422 7.00431 1.36324 7.00431C1.54227 7.00431 1.71954 6.96764 1.88493 6.8964C2.05033 6.82515 2.20061 6.72073 2.3272 6.58909L3.53044 5.35206V24.0781Z" fill="none"/>
</svg>
