<svg width="current" height="current" viewBox="0 0 16 20" fill="none" xmlns="http://www.w3.org/2000/svg">
<path d="M7.93196 6.98001L6.27796 8.46401C6.4966 9.21238 6.80201 9.9326 7.18796 10.61C7.59053 11.2825 8.07563 11.902 8.63196 12.454L10.774 11.794C11.974 11.424 13.284 11.804 14.082 12.754L15.302 14.206C15.7959 14.7889 16.0435 15.5412 15.9924 16.3035C15.9412 17.0659 15.5953 17.7783 15.028 18.29C13.038 20.106 9.97396 20.72 7.67996 18.918C5.66289 17.3315 3.95684 15.3854 2.64796 13.178C1.33575 10.9815 0.457201 8.55361 0.0599575 6.02601C-0.380043 3.18201 1.70196 0.906015 4.29796 0.130015C5.84596 -0.333985 7.49796 0.462015 8.06596 1.94601L8.73596 3.69601C9.17596 4.84801 8.85996 6.14801 7.93196 6.98001Z" fill="#BFBFBF"/>
</svg>
