<svg width="16" height="14" viewBox="0 0 20 18" fill="none"  xmlns="http://www.w3.org/2000/svg">
<path d="M4.72613 2.13911C4.89173 1.9614 4.98188 1.72634 4.9776 1.48346C4.97331 1.24059 4.87492 1.00885 4.70316 0.837087C4.53139 0.665321 4.29966 0.566931 4.05678 0.562646C3.81391 0.558361 3.57885 0.648514 3.40113 0.814114L0.901128 3.31411C0.725565 3.4899 0.626953 3.72818 0.626953 3.97661C0.626953 4.22505 0.725565 4.46333 0.901128 4.63911L3.40113 7.13911C3.48696 7.23122 3.59046 7.3051 3.70546 7.35634C3.82045 7.40758 3.9446 7.43513 4.07048 7.43735C4.19635 7.43958 4.32139 7.41642 4.43813 7.36927C4.55486 7.32212 4.6609 7.25194 4.74993 7.16291C4.83895 7.07389 4.90913 6.96785 4.95628 6.85111C5.00343 6.73438 5.02659 6.60934 5.02437 6.48346C5.02215 6.35758 4.99459 6.23344 4.94335 6.11844C4.89211 6.00344 4.81824 5.89994 4.72613 5.81412L3.82613 4.91411H16.5636C16.8123 4.91411 17.0507 4.81534 17.2265 4.63953C17.4024 4.46371 17.5011 4.22526 17.5011 3.97661C17.5011 3.72797 17.4024 3.48952 17.2265 3.3137C17.0507 3.13789 16.8123 3.03911 16.5636 3.03911H3.82613L4.72613 2.13911ZM15.9011 10.8141C15.7256 10.9899 15.627 11.2282 15.627 11.4766C15.627 11.7251 15.7256 11.9633 15.9011 12.1391L16.8011 13.0391H4.06363C3.81499 13.0391 3.57653 13.1379 3.40072 13.3137C3.2249 13.4895 3.12613 13.728 3.12613 13.9766C3.12613 14.2253 3.2249 14.4637 3.40072 14.6395C3.57653 14.8153 3.81499 14.9141 4.06363 14.9141H16.8011L15.9011 15.8141C15.809 15.8999 15.7351 16.0034 15.6839 16.1184C15.6327 16.2334 15.6051 16.3576 15.6029 16.4835C15.6007 16.6093 15.6238 16.7344 15.671 16.8511C15.7181 16.9678 15.7883 17.0739 15.8773 17.1629C15.9664 17.2519 16.0724 17.3221 16.1891 17.3693C16.3059 17.4164 16.4309 17.4396 16.5568 17.4374C16.6827 17.4351 16.8068 17.4076 16.9218 17.3563C17.0368 17.3051 17.1403 17.2312 17.2261 17.1391L19.7261 14.6391C19.9017 14.4633 20.0003 14.2251 20.0003 13.9766C20.0003 13.7282 19.9017 13.4899 19.7261 13.3141L17.2261 10.8141C17.0503 10.6386 16.8121 10.5399 16.5636 10.5399C16.3152 10.5399 16.0769 10.6386 15.9011 10.8141Z" fill="black"
    strokeWidth="1.5"/>
</svg>
