<svg viewBox="0 0 38 38" fill="none" xmlns="http://www.w3.org/2000/svg">
<g id="ic:round-refresh">
<path id="Vector" d="M27.9459 10.0541C26.6188 8.71504 25.0078 7.69117 23.232 7.05811C21.4562 6.42506 19.5608 6.199 17.6859 6.39661C11.8751 6.98245 7.09339 11.7008 6.44422 17.5116C5.57339 25.1908 11.5109 31.6666 19.0001 31.6666C21.3911 31.6666 23.733 30.9882 25.7537 29.7101C27.7745 28.4321 29.3912 26.6069 30.4159 24.4466C30.9225 23.3858 30.1625 22.1666 28.9909 22.1666C28.4051 22.1666 27.8509 22.4833 27.5976 23.0058C26.6783 24.9834 25.106 26.5841 23.1451 27.5386C21.1842 28.493 18.9545 28.7431 16.8309 28.2466C13.3159 27.4708 10.4817 24.6049 9.73755 21.0899C9.42474 19.7002 9.42836 18.2579 9.74815 16.8697C10.0679 15.4816 10.6957 14.1831 11.5851 13.0702C12.4744 11.9574 13.6025 11.0588 14.886 10.4408C16.1695 9.8228 17.5755 9.50125 19.0001 9.49995C21.6284 9.49995 23.9717 10.5924 25.6817 12.3183L23.2909 14.7091C22.2934 15.7066 22.9901 17.4166 24.3992 17.4166H30.0834C30.9542 17.4166 31.6667 16.7041 31.6667 15.8333V10.1491C31.6667 8.73995 29.9567 8.02745 28.9592 9.02495L27.9459 10.0541Z" fill="#008485" fill-opacity="0.8"/>
</g>
</svg>
