<svg width="100%" height="100%" viewBox="0 0 17 17" fill="none" xmlns="http://www.w3.org/2000/svg">
<rect width="17" height="17" fill="#F5F5F5"/>
<rect id="Rectangle 180" x="-2612.5" y="-4764.5" width="11526" height="7243" fill="#EBEBEB" stroke="black"/>
<g id="&#236;&#152;&#136;&#236;&#149;&#189;&#237;&#149;&#152;&#234;&#184;&#176; - &#236;&#160;&#132;&#237;&#153;&#148;&#236;&#131;&#129;&#235;&#139;&#180;&#236;&#152;&#136;&#236;&#149;&#189;&#235;&#130;&#180;&#236;&#151;&#173; " clip-path="url(#clip0_0_1)">
<rect width="440" height="956" transform="translate(-311 -251)" fill="white"/>
<g id="Group 253">
<g id="Frame 4" filter="url(#filter0_d_0_1)">
<rect x="-281" y="-29" width="378" height="144" rx="15" fill="white" shape-rendering="crispEdges"/>
<g id="Group 348">
<g id="mingcute:time-fill">
<g id="Group">
<path id="Vector" d="M8.92016 16.4745L8.91237 16.4759L8.86208 16.5007L8.84791 16.5035L8.838 16.5007L8.78771 16.4759C8.78015 16.4735 8.77448 16.4747 8.7707 16.4794L8.76787 16.4865L8.75583 16.7897L8.75937 16.8038L8.76646 16.8131L8.84012 16.8655L8.85075 16.8683L8.85925 16.8655L8.93291 16.8131L8.94141 16.8017L8.94425 16.7897L8.9322 16.4872C8.93032 16.4797 8.9263 16.4754 8.92016 16.4745ZM9.10787 16.3944L9.09866 16.3958L8.96762 16.4617L8.96054 16.4688L8.95841 16.4766L8.97116 16.7812L8.9747 16.7897L8.98037 16.7946L9.12275 16.8605C9.13172 16.8629 9.13857 16.861 9.14329 16.8548L9.14612 16.8449L9.12204 16.41C9.11968 16.4015 9.11495 16.3963 9.10787 16.3944ZM8.60141 16.3958C8.59829 16.394 8.59456 16.3933 8.591 16.3941C8.58743 16.3949 8.58431 16.3971 8.58229 16.4001L8.57804 16.41L8.55396 16.8449C8.55443 16.8534 8.55844 16.8591 8.566 16.8619L8.57662 16.8605L8.719 16.7946L8.72608 16.789L8.72891 16.7812L8.74096 16.4766L8.73883 16.4681L8.73175 16.461L8.60141 16.3958Z" fill="black"/>
<path id="Vector_2" d="M8.34261 1.25928C12.2547 1.25928 15.4259 4.43049 15.4259 8.34261C15.4259 12.2547 12.2547 15.4259 8.34261 15.4259C4.43049 15.4259 1.25928 12.2547 1.25928 8.34261C1.25928 4.43049 4.43049 1.25928 8.34261 1.25928ZM8.34261 4.09261C8.15475 4.09261 7.97458 4.16724 7.84174 4.30008C7.70891 4.43292 7.63428 4.61308 7.63428 4.80094V8.34261C7.63432 8.53046 7.70897 8.7106 7.84182 8.8434L9.96682 10.9684C10.1004 11.0974 10.2793 11.1688 10.4651 11.1672C10.6508 11.1656 10.8284 11.0911 10.9598 10.9598C11.0911 10.8284 11.1656 10.6508 11.1672 10.4651C11.1688 10.2793 11.0974 10.1004 10.9684 9.96682L9.05094 8.04936V4.80094C9.05094 4.61308 8.97632 4.43292 8.84348 4.30008C8.71064 4.16724 8.53047 4.09261 8.34261 4.09261Z" fill="black"/>
</g>
</g>
</g>
</g>
</g>
</g>
<defs>
<filter id="filter0_d_0_1" x="-309" y="-57" width="434" height="200" filterUnits="userSpaceOnUse" color-interpolation-filters="sRGB">
<feFlood flood-opacity="0" result="BackgroundImageFix"/>
<feColorMatrix in="SourceAlpha" type="matrix" values="0 0 0 0 0 0 0 0 0 0 0 0 0 0 0 0 0 0 127 0" result="hardAlpha"/>
<feMorphology radius="8" operator="dilate" in="SourceAlpha" result="effect1_dropShadow_0_1"/>
<feOffset/>
<feGaussianBlur stdDeviation="10"/>
<feComposite in2="hardAlpha" operator="out"/>
<feColorMatrix type="matrix" values="0 0 0 0 0 0 0 0 0 0 0 0 0 0 0 0 0 0 0.13 0"/>
<feBlend mode="normal" in2="BackgroundImageFix" result="effect1_dropShadow_0_1"/>
<feBlend mode="normal" in="SourceGraphic" in2="effect1_dropShadow_0_1" result="shape"/>
</filter>
<clipPath id="clip0_0_1">
<rect width="440" height="956" fill="white" transform="translate(-311 -251)"/>
</clipPath>
</defs>
</svg>
