<svg width="14" height="13" viewBox="0 0 14 13" fill="none" xmlns="http://www.w3.org/2000/svg">
<path d="M7.00005 0.974122C6.70779 0.973859 6.42041 1.04906 6.16574 1.19244C5.91107 1.33582 5.69773 1.54252 5.54638 1.79254L0.815545 9.68912C0.665277 9.94605 0.585105 10.2379 0.583048 10.5356C0.580992 10.8332 0.657124 11.1262 0.803828 11.3851C0.950532 11.6441 1.16267 11.86 1.41901 12.0113C1.67535 12.1625 1.96692 12.2438 2.26455 12.247H11.7291C12.0265 12.2449 12.3181 12.1649 12.5748 12.0148C12.8316 11.8648 13.0445 11.65 13.1922 11.3919C13.34 11.1339 13.4175 10.8416 13.417 10.5442C13.4164 10.2468 13.3379 9.95482 13.1892 9.69729L8.45488 1.79546C8.30336 1.54512 8.08989 1.33803 7.83507 1.19417C7.58025 1.05031 7.29267 0.974528 7.00005 0.974122Z" fill="black"/>
</svg>
