<svg width="32" height="33" viewBox="0 0 32 33" fill="none" xmlns="http://www.w3.org/2000/svg">
<rect x="0.5" y="1" width="31" height="31" rx="15.5" fill="white"/>
<rect x="0.5" y="1" width="31" height="31" rx="15.5" stroke="#EDEDED"/>
<path d="M15.9375 13.7317L14.4214 15.092C14.6218 15.778 14.9018 16.4382 15.2555 17.0592C15.6246 17.6756 16.0692 18.2435 16.5792 18.7495L18.5427 18.1445C19.6427 17.8053 20.8435 18.1537 21.575 19.0245L22.6934 20.3555C23.1462 20.8898 23.3732 21.5794 23.3263 22.2782C23.2794 22.977 22.9623 23.6301 22.4422 24.0992C20.618 25.7638 17.8094 26.3267 15.7065 24.6748C13.8576 23.2205 12.2937 21.4366 11.0939 19.4132C9.89102 17.3997 9.08569 15.1741 8.72155 12.8572C8.31821 10.2502 10.2267 8.16385 12.6064 7.45251C14.0254 7.02718 15.5397 7.75685 16.0604 9.11718L16.6745 10.7213C17.0779 11.7773 16.7882 12.969 15.9375 13.7317Z" fill="black"/>
</svg>
