<svg width="current" height="current" viewBox="0 0 20 20" fill="none" xmlns="http://www.w3.org/2000/svg">
<path d="M18.8036 16.9464C19.0502 17.193 19.1887 17.5274 19.1887 17.8761C19.1887 18.2248 19.0502 18.5592 18.8036 18.8058C18.557 19.0524 18.2226 19.1909 17.8739 19.1909C17.5252 19.1909 17.1908 19.0524 16.9442 18.8058L10 11.8594L3.05361 18.8036C2.80704 19.0502 2.47262 19.1887 2.12392 19.1887C1.77522 19.1887 1.4408 19.0502 1.19423 18.8036C0.947664 18.557 0.809143 18.2226 0.809143 17.8739C0.809143 17.5252 0.947664 17.1908 1.19423 16.9442L8.14064 10L1.19642 3.0536C0.949851 2.80703 0.811331 2.47262 0.811331 2.12391C0.811331 1.77521 0.949851 1.4408 1.19642 1.19423C1.44299 0.947659 1.77741 0.809138 2.12611 0.809138C2.47481 0.809138 2.80923 0.947659 3.05579 1.19423L10 8.14063L16.9464 1.19313C17.193 0.946565 17.5274 0.808044 17.8761 0.808044C18.2248 0.808044 18.5592 0.946565 18.8058 1.19313C19.0524 1.4397 19.1909 1.77412 19.1909 2.12282C19.1909 2.47152 19.0524 2.80594 18.8058 3.05251L11.8594 10L18.8036 16.9464Z" fill="black"/>
</svg>
