<svg width="73" height="73" viewBox="0 0 73 73" fill="none" xmlns="http://www.w3.org/2000/svg">
<rect width="73" height="73" rx="36.5" fill="#008485" fill-opacity="0.8"/>
<path d="M23.0833 36.5H19.25L36.5 19.25L53.75 36.5H49.9167M23.0833 36.5V49.9167C23.0833 50.9333 23.4872 51.9084 24.2061 52.6272C24.925 53.3461 25.9 53.75 26.9167 53.75H46.0833C47.1 53.75 48.075 53.3461 48.7939 52.6272C49.5128 51.9084 49.9167 50.9333 49.9167 49.9167V36.5" stroke="white" stroke-width="4" stroke-linecap="round" stroke-linejoin="round"/>
<path d="M30.75 53.75V42.25C30.75 41.2334 31.1539 40.2583 31.8728 39.5394C32.5916 38.8206 33.5667 38.4167 34.5833 38.4167H38.4167C39.4333 38.4167 40.4084 38.8206 41.1272 39.5394C41.8461 40.2583 42.25 41.2334 42.25 42.25V53.75" stroke="white" stroke-width="4" stroke-linecap="round" stroke-linejoin="round"/>
</svg>
