<svg width="31" height="31" viewBox="0 0 31 31" fill="none" xmlns="http://www.w3.org/2000/svg">
<path d="M15.5002 2.58337C8.37016 2.58337 2.5835 8.37004 2.5835 15.5C2.5835 22.63 8.37016 28.4167 15.5002 28.4167C22.6302 28.4167 28.4168 22.63 28.4168 15.5C28.4168 8.37004 22.6302 2.58337 15.5002 2.58337ZM9.49391 23.8959C11.186 22.6817 13.2527 21.9584 15.5002 21.9584C17.7477 21.9584 19.8143 22.6817 21.5064 23.8959C19.8143 25.11 17.7477 25.8334 15.5002 25.8334C13.2527 25.8334 11.186 25.11 9.49391 23.8959ZM23.431 22.1134C21.1682 20.3389 18.3757 19.3745 15.5002 19.3745C12.6246 19.3745 9.8321 20.3389 7.56933 22.1134C6.01564 20.2601 5.16497 17.9184 5.16683 15.5C5.16683 9.79087 9.791 5.16671 15.5002 5.16671C21.2093 5.16671 25.8335 9.79087 25.8335 15.5C25.8335 18.0188 24.9293 20.318 23.431 22.1134Z" fill="#D9D9D9"/>
<path d="M15.4998 7.75C13.0069 7.75 10.979 9.77792 10.979 12.2708C10.979 14.7637 13.0069 16.7917 15.4998 16.7917C17.9928 16.7917 20.0207 14.7637 20.0207 12.2708C20.0207 9.77792 17.9928 7.75 15.4998 7.75ZM15.4998 14.2083C14.4278 14.2083 13.5623 13.3429 13.5623 12.2708C13.5623 11.1988 14.4278 10.3333 15.4998 10.3333C16.5719 10.3333 17.4373 11.1988 17.4373 12.2708C17.4373 13.3429 16.5719 14.2083 15.4998 14.2083Z" fill="#D9D9D9"/>
</svg>
