<svg width="32" height="31" viewBox="0 0 32 31" fill="none" xmlns="http://www.w3.org/2000/svg">
<path d="M19.4229 6.43253L12.9646 4.17212C12.4221 3.97837 11.8279 3.97837 11.2854 4.1592L6.13167 5.89003C5.08542 6.2517 4.375 7.23337 4.375 8.3442V23.6504C4.375 25.4717 6.19625 26.7117 7.88833 26.0529L11.6729 24.5804C11.9571 24.4642 12.28 24.4642 12.5642 24.5675L19.0225 26.8279C19.565 27.0217 20.1592 27.0217 20.7017 26.8409L25.8554 25.11C26.9017 24.7613 27.6121 23.7667 27.6121 22.6559V7.34962C27.6121 5.52837 25.7908 4.28837 24.0988 4.94712L20.3142 6.41961C20.03 6.52295 19.72 6.53587 19.4229 6.43253ZM19.875 24.3996L12.125 21.6742V6.60045L19.875 9.32586V24.3996Z" fill="#D9D9D9"/>
</svg>
