<svg width="32" height="33" viewBox="0 0 32 33" fill="none" xmlns="http://www.w3.org/2000/svg">
<rect x="0.5" y="1" width="31" height="31" rx="15.5" fill="white"/>
<rect x="0.5" y="1" width="31" height="31" rx="15.5" stroke="#EDEDED"/>
<path d="M9.125 24.75C9.125 24.75 7.75 24.75 7.75 23.375C7.75 22 9.125 17.875 16 17.875C22.875 17.875 24.25 22 24.25 23.375C24.25 24.75 22.875 24.75 22.875 24.75H9.125ZM16 16.5C17.094 16.5 18.1432 16.0654 18.9168 15.2918C19.6904 14.5182 20.125 13.469 20.125 12.375C20.125 11.281 19.6904 10.2318 18.9168 9.45818C18.1432 8.6846 17.094 8.25 16 8.25C14.906 8.25 13.8568 8.6846 13.0832 9.45818C12.3096 10.2318 11.875 11.281 11.875 12.375C11.875 13.469 12.3096 14.5182 13.0832 15.2918C13.8568 16.0654 14.906 16.5 16 16.5Z" fill="black"/>
</svg>
