<?xml version="1.0" encoding="UTF-8"?>
<svg xmlns="http://www.w3.org/2000/svg" xmlns:xlink="http://www.w3.org/1999/xlink" width="70px" height="70px" viewBox="0 0 70 70" version="1.1">
<g id="surface1">
<path style=" stroke:none;fill-rule:nonzero;fill:rgb(0%,56.078434%,99.607843%);fill-opacity:1;" d="M 50.585938 10.800781 C 51.515625 11.609375 52.410156 12.4375 53.183594 13.398438 C 53.285156 13.523438 53.386719 13.648438 53.492188 13.773438 C 57.300781 18.546875 59.335938 24.660156 58.726562 30.777344 C 57.894531 37.867188 53.53125 43.460938 49.019531 48.699219 C 48.808594 48.941406 48.601562 49.1875 48.390625 49.433594 C 47.675781 50.273438 46.953125 51.101562 46.203125 51.90625 C 45.691406 52.464844 45.214844 53.042969 44.742188 53.632812 C 44.421875 54.019531 44.089844 54.386719 43.75 54.757812 C 43.082031 55.484375 42.457031 56.242188 41.835938 57.011719 C 41.710938 57.164062 41.585938 57.316406 41.460938 57.464844 C 39.957031 59.304688 38.574219 61.242188 37.363281 63.285156 C 36.910156 64.035156 36.425781 64.714844 35.546875 64.941406 C 34.683594 65.027344 34.066406 64.914062 33.359375 64.394531 C 33 63.964844 32.726562 63.492188 32.445312 63.011719 C 32.277344 62.738281 32.113281 62.464844 31.945312 62.191406 C 31.820312 61.988281 31.820312 61.988281 31.691406 61.78125 C 30.304688 59.570312 28.605469 57.566406 26.917969 55.585938 C 26.53125 55.132812 26.152344 54.671875 25.78125 54.210938 C 25.179688 53.472656 24.542969 52.78125 23.894531 52.085938 C 23.09375 51.230469 22.339844 50.332031 21.578125 49.441406 C 21.214844 49.015625 20.847656 48.59375 20.480469 48.175781 C 19.457031 47.015625 18.5 45.816406 17.574219 44.578125 C 17.375 44.3125 17.171875 44.046875 16.96875 43.78125 C 16.003906 42.503906 15.15625 41.171875 14.355469 39.785156 C 14.300781 39.691406 14.246094 39.59375 14.1875 39.496094 C 11.113281 34.121094 10.488281 28.164062 12.085938 22.210938 C 13.078125 18.753906 14.867188 15.523438 17.332031 12.90625 C 17.585938 12.632812 17.828125 12.355469 18.0625 12.066406 C 19.714844 10.121094 22.078125 8.648438 24.335938 7.519531 C 24.484375 7.445312 24.484375 7.445312 24.636719 7.367188 C 33.113281 3.199219 43.457031 4.726562 50.585938 10.800781 Z M 27.710938 22.242188 C 26.253906 24.136719 25.476562 26.449219 25.703125 28.847656 C 26.074219 31.378906 27.148438 33.613281 29.121094 35.273438 C 31.320312 36.867188 33.78125 37.601562 36.476562 37.230469 C 38.960938 36.773438 41.15625 35.394531 42.648438 33.359375 C 44.0625 31.1875 44.582031 28.769531 44.160156 26.214844 C 43.796875 24.550781 42.976562 23 41.835938 21.738281 C 41.761719 21.65625 41.691406 21.570312 41.617188 21.484375 C 40.042969 19.785156 37.757812 18.898438 35.492188 18.6875 C 32.371094 18.578125 29.71875 19.90625 27.710938 22.242188 Z M 27.710938 22.242188 "/>
</g>
</svg>
