<?xml version="1.0" encoding="UTF-8"?>
<svg xmlns="http://www.w3.org/2000/svg" xmlns:xlink="http://www.w3.org/1999/xlink" width="70px" height="70px" viewBox="0 0 70 70" version="1.1">
<g id="surface1">
<path style=" stroke:none;fill-rule:nonzero;fill:rgb(0%,86.274511%,0%);fill-opacity:1;" d="M 50.53125 9.890625 C 51.167969 10.4375 51.777344 11.019531 52.363281 11.621094 C 52.449219 11.699219 52.53125 11.777344 52.621094 11.859375 C 56.585938 15.621094 58.976562 21.496094 59.214844 26.914062 C 59.285156 29.601562 58.980469 31.921875 58.105469 34.453125 C 58.050781 34.621094 57.992188 34.785156 57.9375 34.957031 C 57.3125 36.71875 56.476562 38.386719 55.644531 40.058594 C 55.585938 40.175781 55.527344 40.292969 55.46875 40.414062 C 53.101562 45.132812 49.992188 49.476562 46.847656 53.699219 C 46.628906 53.992188 46.414062 54.285156 46.199219 54.574219 C 45.371094 55.691406 44.515625 56.777344 43.632812 57.847656 C 43.230469 58.34375 42.835938 58.847656 42.441406 59.351562 C 41.867188 60.09375 41.265625 60.808594 40.652344 61.515625 C 40.222656 62.015625 39.800781 62.515625 39.382812 63.027344 C 39.234375 63.207031 39.234375 63.207031 39.085938 63.390625 C 38.933594 63.578125 38.785156 63.765625 38.644531 63.957031 C 38.003906 64.796875 37.105469 65.355469 36.09375 65.625 C 34.601562 65.757812 33.390625 65.652344 32.121094 64.796875 C 31.640625 64.355469 31.25 63.835938 30.84375 63.332031 C 30.449219 62.839844 30.03125 62.367188 29.617188 61.890625 C 28.984375 61.167969 28.375 60.425781 27.785156 59.667969 C 27.28125 59.015625 26.757812 58.378906 26.234375 57.746094 C 25.542969 56.914062 24.875 56.070312 24.234375 55.195312 C 24.03125 54.921875 23.828125 54.644531 23.625 54.371094 C 23.210938 53.8125 22.800781 53.253906 22.390625 52.695312 C 22.234375 52.480469 22.078125 52.269531 21.925781 52.058594 C 19.179688 48.332031 16.640625 44.433594 14.492188 40.332031 C 14.429688 40.210938 14.363281 40.089844 14.296875 39.964844 C 11.21875 34.140625 9.765625 28.164062 11.683594 21.707031 C 12.953125 17.644531 14.992188 14.1875 18.046875 11.210938 C 18.164062 11.085938 18.164062 11.085938 18.285156 10.953125 C 21.15625 7.925781 25.238281 5.894531 29.257812 4.921875 C 29.375 4.894531 29.496094 4.863281 29.617188 4.835938 C 36.9375 3.160156 44.796875 5.082031 50.53125 9.890625 Z M 27.933594 22.300781 C 26.609375 23.996094 25.894531 25.902344 25.90625 28.054688 C 25.910156 28.1875 25.910156 28.324219 25.910156 28.464844 C 25.96875 30.890625 26.960938 32.910156 28.628906 34.664062 C 30.421875 36.367188 32.789062 37.269531 35.253906 37.246094 C 37.746094 37.148438 40.089844 36.089844 41.789062 34.257812 C 43.640625 32.097656 44.183594 29.691406 44.054688 26.910156 C 43.867188 24.671875 42.613281 22.710938 41.015625 21.191406 C 37.039062 17.835938 31.289062 18.453125 27.933594 22.300781 Z M 27.933594 22.300781 "/>
</g>
</svg>
