<svg width="69" height="69" viewBox="0 0 69 69" fill="none" xmlns="http://www.w3.org/2000/svg">
<g filter="url(#filter0_d_734_352)">
<rect x="15" y="11" width="39" height="39" rx="19.5" fill="#008485" shape-rendering="crispEdges"/>
<path d="M26.066 27.5605C26.2809 27.8613 26.4996 28.25 26.7223 28.7266C26.9488 29.1992 27.1676 29.7188 27.3785 30.2852C27.5895 30.8516 27.7789 31.4316 27.9469 32.0254C28.1188 32.6152 28.2594 33.1836 28.3688 33.7305C28.4781 34.2773 28.5406 34.7637 28.5563 35.1895C28.5602 35.3965 28.4664 35.5 28.275 35.5H26.857C26.6734 35.5 26.5777 35.4082 26.5699 35.2246C26.5543 34.7871 26.484 34.2559 26.359 33.6309H23.1598C23.0504 34.2402 22.9879 34.7715 22.9723 35.2246C22.9645 35.4082 22.8648 35.5 22.6734 35.5H21.2848C21.2145 35.5 21.1559 35.4805 21.109 35.4414C21.0621 35.3984 21.0406 35.3262 21.0445 35.2246C21.0641 34.791 21.1266 34.2988 21.232 33.748C21.3414 33.1934 21.482 32.6191 21.6539 32.0254C21.8258 31.4316 22.0172 30.8516 22.2281 30.2852C22.4391 29.7148 22.6578 29.1934 22.8844 28.7207C23.1109 28.248 23.3316 27.8613 23.5465 27.5605C23.6598 27.4004 23.7789 27.2832 23.9039 27.209C24.0328 27.1348 24.191 27.0977 24.3785 27.0977H25.2223C25.4137 27.0977 25.5738 27.1348 25.7027 27.209C25.8316 27.2832 25.9527 27.4004 26.066 27.5605ZM24.7418 28.9492C24.484 29.3594 24.2477 29.8496 24.0328 30.4199C23.818 30.9902 23.6324 31.5762 23.4762 32.1777H26.0191C25.8551 31.5762 25.6656 30.9902 25.4508 30.4199C25.2359 29.8496 25.0113 29.3594 24.777 28.9492H24.7418ZM33.7113 35.1895C33.7113 35.3066 33.6859 35.3887 33.6352 35.4355C33.5883 35.4785 33.5063 35.5 33.3891 35.5H32.141C32.0238 35.5 31.9398 35.4785 31.8891 35.4355C31.8422 35.3887 31.8188 35.3066 31.8188 35.1895V28.6387H30.0727C29.9789 28.6387 29.9086 28.623 29.8617 28.5918C29.7602 28.5215 29.6547 28.4375 29.5453 28.3398C29.4398 28.2422 29.3246 28.125 29.1996 27.9883C29.1605 27.9375 29.141 27.8965 29.141 27.8652C29.141 27.8301 29.1605 27.791 29.1996 27.748C29.3246 27.6113 29.4398 27.4941 29.5453 27.3965C29.6547 27.2988 29.7602 27.2148 29.8617 27.1445C29.9164 27.1133 29.9867 27.0977 30.0727 27.0977H35.4633C35.557 27.0977 35.6273 27.1133 35.6742 27.1445C35.7758 27.2148 35.8813 27.2988 35.9906 27.3965C36.1 27.4941 36.2152 27.6113 36.3363 27.748C36.3754 27.7988 36.3949 27.8398 36.3949 27.8711C36.3949 27.9062 36.3754 27.9453 36.3363 27.9883C36.2152 28.125 36.1 28.2422 35.9906 28.3398C35.8813 28.4375 35.7758 28.5215 35.6742 28.5918C35.6195 28.623 35.5492 28.6387 35.4633 28.6387H33.7113V35.1895Z" fill="white"/>
<path d="M42.5293 32.1367C42.584 31.9258 42.6426 31.7188 42.7051 31.5156C42.7715 31.3086 42.8516 31.0781 42.9453 30.8242C43.0273 30.5977 43.127 30.3379 43.2441 30.0449C43.3613 29.748 43.4844 29.4473 43.6133 29.1426C43.7461 28.8379 43.875 28.5547 44 28.293C44.125 28.0312 44.2383 27.8223 44.3398 27.666C44.4648 27.4746 44.5996 27.332 44.7441 27.2383C44.8926 27.1445 45.1094 27.0977 45.3945 27.0977H46.1621C46.3652 27.0977 46.5352 27.1289 46.6719 27.1914C46.8125 27.25 46.9121 27.3926 46.9707 27.6191C47.0137 27.7871 47.0547 28.0332 47.0938 28.3574C47.1328 28.6816 47.166 29.1309 47.1934 29.7051C47.2207 30.2793 47.2422 31.0176 47.2578 31.9199C47.2734 32.8184 47.2812 33.9297 47.2812 35.2539C47.2812 35.3242 47.2578 35.3828 47.2109 35.4297C47.1641 35.4766 47.1074 35.5 47.041 35.5H45.7051C45.6387 35.5 45.582 35.4766 45.5352 35.4297C45.4883 35.3828 45.4648 35.3223 45.4648 35.248C45.4648 34.2168 45.4648 33.3418 45.4648 32.623C45.4648 31.9043 45.4629 31.3086 45.459 30.8359C45.4551 30.3633 45.4492 29.9883 45.4414 29.7109C45.4375 29.4297 45.4297 29.2129 45.418 29.0605H45.3828C45.1758 29.5371 44.9551 30.0684 44.7207 30.6543C44.4863 31.2363 44.2578 31.8379 44.0352 32.459C43.8125 33.0762 43.6133 33.6797 43.4375 34.2695C43.3867 34.4453 43.3223 34.5684 43.2441 34.6387C43.1699 34.7051 42.998 34.7383 42.7285 34.7383H42.0547C41.8242 34.7383 41.6699 34.709 41.5918 34.6504C41.5176 34.5918 41.4531 34.4648 41.3984 34.2695C41.2695 33.8242 41.127 33.3535 40.9707 32.8574C40.8145 32.3613 40.6523 31.875 40.4844 31.3984C40.3203 30.918 40.1602 30.4766 40.0039 30.0742C39.8516 29.668 39.7148 29.3301 39.5938 29.0605H39.5586C39.5273 29.5215 39.5 30.082 39.4766 30.7422C39.4531 31.4023 39.4336 32.1191 39.418 32.8926C39.4062 33.666 39.3984 34.4551 39.3945 35.2598C39.3945 35.3301 39.3711 35.3887 39.3242 35.4355C39.2773 35.4785 39.2207 35.5 39.1543 35.5H37.9531C37.8867 35.5 37.8301 35.4766 37.7832 35.4297C37.7363 35.3828 37.7129 35.3223 37.7129 35.248C37.7168 33.166 37.7578 31.5039 37.8359 30.2617C37.918 29.0195 38.0059 28.1875 38.0996 27.7656C38.1621 27.4883 38.2715 27.3086 38.4277 27.2266C38.5879 27.1406 38.7695 27.0977 38.9727 27.0977H39.9219C40.1367 27.0977 40.293 27.1367 40.3906 27.2148C40.4922 27.2891 40.6152 27.4355 40.7598 27.6543C40.8457 27.7832 40.9473 27.9766 41.0645 28.2344C41.1855 28.4922 41.3105 28.7793 41.4395 29.0957C41.5684 29.4082 41.6895 29.7188 41.8027 30.0273C41.9199 30.332 42.0156 30.5977 42.0898 30.8242C42.168 31.0547 42.2402 31.2793 42.3066 31.498C42.373 31.7129 42.4316 31.9258 42.4824 32.1367H42.5293Z" fill="white"/>
</g>
<defs>
<filter id="filter0_d_734_352" x="0" y="0" width="69" height="69" filterUnits="userSpaceOnUse" color-interpolation-filters="sRGB">
<feFlood flood-opacity="0" result="BackgroundImageFix"/>
<feColorMatrix in="SourceAlpha" type="matrix" values="0 0 0 0 0 0 0 0 0 0 0 0 0 0 0 0 0 0 127 0" result="hardAlpha"/>
<feOffset dy="4"/>
<feGaussianBlur stdDeviation="7.5"/>
<feComposite in2="hardAlpha" operator="out"/>
<feColorMatrix type="matrix" values="0 0 0 0 0 0 0 0 0 0 0 0 0 0 0 0 0 0 0.5 0"/>
<feBlend mode="normal" in2="BackgroundImageFix" result="effect1_dropShadow_734_352"/>
<feBlend mode="normal" in="SourceGraphic" in2="effect1_dropShadow_734_352" result="shape"/>
</filter>
</defs>
</svg>
