<?xml version="1.0" encoding="UTF-8"?>
<svg xmlns="http://www.w3.org/2000/svg" xmlns:xlink="http://www.w3.org/1999/xlink" width="70px" height="70px" viewBox="0 0 70 70" version="1.1">
<g id="surface1">
<path style=" stroke:none;fill-rule:nonzero;fill:rgb(89.019608%,22.352941%,11.764706%);fill-opacity:1;" d="M 39.375 9.160156 C 39.519531 9.195312 39.519531 9.195312 39.667969 9.234375 C 45.179688 10.65625 49.886719 14.011719 52.859375 18.902344 C 54.105469 21.027344 55.019531 23.289062 55.507812 25.703125 C 55.539062 25.84375 55.570312 25.988281 55.601562 26.132812 C 56.96875 33.714844 53.46875 41.332031 49.269531 47.414062 C 47.820312 49.480469 46.21875 51.425781 44.542969 53.3125 C 44.382812 53.496094 44.222656 53.679688 44.058594 53.867188 C 43.136719 54.914062 42.152344 55.894531 41.164062 56.878906 C 40.871094 57.175781 40.578125 57.46875 40.28125 57.761719 C 40.09375 57.953125 39.902344 58.144531 39.710938 58.332031 C 39.625 58.421875 39.539062 58.507812 39.449219 58.59375 C 36.695312 61.335938 36.695312 61.335938 35.066406 61.398438 C 33.769531 61.355469 32.875 60.792969 31.976562 59.890625 C 31.898438 59.808594 31.820312 59.726562 31.742188 59.640625 C 31.5 59.390625 31.257812 59.175781 30.992188 58.949219 C 30.144531 58.214844 29.363281 57.410156 28.570312 56.613281 C 28.292969 56.335938 28.015625 56.0625 27.738281 55.785156 C 26.894531 54.941406 26.0625 54.097656 25.292969 53.183594 C 25.167969 53.039062 25.039062 52.898438 24.914062 52.753906 C 23.730469 51.40625 22.664062 49.980469 21.601562 48.535156 C 21.472656 48.363281 21.347656 48.191406 21.21875 48.019531 C 20.308594 46.785156 19.503906 45.488281 18.730469 44.160156 C 18.664062 44.042969 18.59375 43.929688 18.527344 43.808594 C 15.03125 37.753906 13.09375 30.847656 14.894531 23.921875 C 16.359375 18.632812 19.847656 14.097656 24.617188 11.371094 C 26.410156 10.375 28.226562 9.65625 30.214844 9.160156 C 30.3125 9.136719 30.40625 9.109375 30.507812 9.085938 C 33.273438 8.417969 36.621094 8.46875 39.375 9.160156 Z M 27.753906 20.644531 C 27.613281 20.765625 27.613281 20.765625 27.46875 20.890625 C 25.566406 22.648438 24.441406 25.261719 24.292969 27.824219 C 24.1875 30.769531 25.054688 33.492188 27.070312 35.683594 C 27.164062 35.789062 27.261719 35.898438 27.359375 36.007812 C 29.28125 38.046875 32.0625 39.175781 34.847656 39.273438 C 36.527344 39.25 38.140625 38.890625 39.648438 38.144531 C 39.773438 38.085938 39.898438 38.03125 40.027344 37.972656 C 41.117188 37.429688 41.9375 36.671875 42.792969 35.820312 C 42.882812 35.730469 42.976562 35.640625 43.070312 35.546875 C 45.015625 33.492188 45.734375 30.710938 45.695312 27.949219 C 45.59375 25.035156 44.191406 22.480469 42.109375 20.507812 C 37.890625 16.824219 31.894531 17.015625 27.753906 20.644531 Z M 27.753906 20.644531 "/>
</g>
</svg>
