<svg width="69" height="69" viewBox="0 0 69 69" fill="none" xmlns="http://www.w3.org/2000/svg">
<g filter="url(#filter0_d_657_522)">
<rect x="15" y="11" width="39" height="39" rx="19" fill="#008485" shape-rendering="crispEdges"/>
<path d="M33.375 40.625H27.75C27.1533 40.625 26.581 40.3879 26.159 39.966C25.7371 39.544 25.5 38.9717 25.5 38.375V24.875C25.5 24.2783 25.7371 23.706 26.159 23.284C26.581 22.8621 27.1533 22.625 27.75 22.625H41.25C41.8467 22.625 42.419 22.8621 42.841 23.284C43.2629 23.706 43.5 24.2783 43.5 24.875V28.8125M39 20.375V24.875M30 20.375V24.875M25.5 29.375H37.875" stroke="white" stroke-width="2" stroke-linecap="round" stroke-linejoin="round"/>
<path d="M41.025 40.4192L38.5815 41.6994C38.509 41.7371 38.4274 41.754 38.3459 41.7481C38.2644 41.7421 38.1861 41.7136 38.1198 41.6658C38.0535 41.618 38.0019 41.5526 37.9705 41.4771C37.9392 41.4016 37.9295 41.3189 37.9425 41.2382L38.4094 38.5258L36.4328 36.6054C36.3738 36.5484 36.332 36.4759 36.3122 36.3963C36.2924 36.3166 36.2955 36.233 36.3209 36.155C36.3464 36.077 36.3932 36.0077 36.4562 35.9551C36.5191 35.9024 36.5956 35.8685 36.6769 35.8573L39.4084 35.4613L40.6301 32.9942C40.6667 32.9207 40.723 32.8589 40.7928 32.8156C40.8625 32.7724 40.943 32.7495 41.025 32.7495C41.1071 32.7495 41.1875 32.7724 41.2573 32.8156C41.327 32.8589 41.3834 32.9207 41.4199 32.9942L42.6416 35.4613L45.3732 35.8573C45.4542 35.8689 45.5304 35.903 45.593 35.9557C45.6557 36.0084 45.7024 36.0776 45.7278 36.1555C45.7532 36.2333 45.7563 36.3167 45.7368 36.3962C45.7172 36.4757 45.6758 36.5482 45.6173 36.6054L43.6406 38.5258L44.1064 41.237C44.1204 41.3179 44.1114 41.401 44.0805 41.477C44.0496 41.553 43.998 41.6189 43.9316 41.667C43.8651 41.7152 43.7865 41.7437 43.7047 41.7495C43.6228 41.7552 43.541 41.7378 43.4685 41.6994L41.025 40.4192Z" stroke="white" stroke-width="2" stroke-linecap="round" stroke-linejoin="round"/>
</g>
<defs>
<filter id="filter0_d_657_522" x="0" y="0" width="69" height="69" filterUnits="userSpaceOnUse" color-interpolation-filters="sRGB">
<feFlood flood-opacity="0" result="BackgroundImageFix"/>
<feColorMatrix in="SourceAlpha" type="matrix" values="0 0 0 0 0 0 0 0 0 0 0 0 0 0 0 0 0 0 127 0" result="hardAlpha"/>
<feOffset dy="4"/>
<feGaussianBlur stdDeviation="7.5"/>
<feComposite in2="hardAlpha" operator="out"/>
<feColorMatrix type="matrix" values="0 0 0 0 0 0 0 0 0 0 0 0 0 0 0 0 0 0 0.5 0"/>
<feBlend mode="normal" in2="BackgroundImageFix" result="effect1_dropShadow_657_522"/>
<feBlend mode="normal" in="SourceGraphic" in2="effect1_dropShadow_657_522" result="shape"/>
</filter>
</defs>
</svg>
