<svg width="31" height="41" viewBox="0 0 31 41" fill="none" xmlns="http://www.w3.org/2000/svg">
<path d="M30.5 15.192C30.5 16.8205 29.9403 18.8129 29.0002 20.9954C28.0639 23.1694 26.7681 25.4916 25.3364 27.7679C22.479 32.3109 19.1048 36.6325 17.0382 39.1681C16.5588 39.6695 16.2263 40.0156 15.9564 40.2413C15.6794 40.4731 15.5563 40.5 15.5 40.5C15.4437 40.5 15.3206 40.4731 15.0436 40.2413C14.7737 40.0156 14.4413 39.6695 13.9618 39.1681C11.8952 36.6325 8.52098 32.3109 5.66358 27.7679C4.23188 25.4916 2.93613 23.1694 1.99975 20.9954C1.05972 18.8129 0.5 16.8205 0.5 15.192C0.5 7.09033 7.20934 0.5 15.5 0.5C23.7907 0.5 30.5 7.09033 30.5 15.192Z" fill="#00C768" stroke="#14A05D"/>
<path d="M9.97886 14.8669H11.4309V16.3299H9.97886V14.8669ZM6.12886 14.0089H15.2919V15.0759H6.12886V14.0089ZM9.96786 9.67494H11.4309V10.8959H9.96786V9.67494ZM9.87986 10.9619H11.1669V11.1709C11.1669 11.5376 11.0752 11.8713 10.8919 12.1719C10.7085 12.4653 10.4372 12.7256 10.0779 12.9529C9.71853 13.1729 9.27119 13.3526 8.73586 13.4919C8.20053 13.6239 7.58086 13.7083 6.87686 13.7449L6.46986 12.6669C7.09319 12.6376 7.62119 12.5789 8.05386 12.4909C8.48653 12.3956 8.83486 12.2819 9.09886 12.1499C9.37019 12.0106 9.56819 11.8566 9.69286 11.6879C9.81753 11.5193 9.87986 11.3469 9.87986 11.1709V10.9619ZM10.2319 10.9619H11.5189V11.1709C11.5189 11.3469 11.5775 11.5193 11.6949 11.6879C11.8195 11.8566 12.0175 12.0106 12.2889 12.1499C12.5602 12.2819 12.9122 12.3956 13.3449 12.4909C13.7849 12.5789 14.3129 12.6376 14.9289 12.6669L14.5219 13.7449C13.8179 13.7083 13.1982 13.6239 12.6629 13.4919C12.1275 13.3526 11.6802 13.1729 11.3209 12.9529C10.9615 12.7256 10.6902 12.4653 10.5069 12.1719C10.3235 11.8713 10.2319 11.5376 10.2319 11.1709V10.9619ZM6.97586 10.4669H14.4229V11.5339H6.97586V10.4669ZM7.15186 15.6919H14.1919V18.2109H8.61486V19.1789H7.16286V17.2319H12.7509V16.7369H7.15186V15.6919ZM7.16286 18.7389H14.4669V19.8059H7.16286V18.7389ZM15.962 10.1259H17.414V11.3359H19.416V10.1259H20.857V14.5809H15.962V10.1259ZM17.414 12.4249V13.4479H19.416V12.4249H17.414ZM22.221 9.68594H23.684V14.8559H22.221V9.68594ZM23.101 11.6329H25.026V12.8319H23.101V11.6329ZM16.963 15.2409H23.684V18.0239H18.426V19.2229H16.974V16.9789H22.243V16.3629H16.963V15.2409ZM16.974 18.6619H23.981V19.8059H16.974V18.6619Z" fill="white"/>
</svg>
