<svg width="50" height="50" viewBox="0 0 50 50" fill="none" xmlns="http://www.w3.org/2000/svg">
<g filter="url(#filter0_d_657_510)">
<rect x="8" y="4" width="34" height="34" rx="17" fill="white" shape-rendering="crispEdges"/>
<path d="M24 30H19C18.4696 30 17.9609 29.7893 17.5858 29.4142C17.2107 29.0391 17 28.5304 17 28V16C17 15.4696 17.2107 14.9609 17.5858 14.5858C17.9609 14.2107 18.4696 14 19 14H31C31.5304 14 32.0391 14.2107 32.4142 14.5858C32.7893 14.9609 33 15.4696 33 16V19.5M29 12V16M21 12V16M17 20H28" stroke="#008485" stroke-width="2" stroke-linecap="round" stroke-linejoin="round"/>
<path d="M30.8002 29.817L28.6282 30.955C28.5638 30.9885 28.4913 31.0035 28.4188 30.9982C28.3463 30.9929 28.2767 30.9676 28.2178 30.9251C28.1589 30.8826 28.113 30.8245 28.0851 30.7574C28.0573 30.6903 28.0487 30.6167 28.0602 30.545L28.4752 28.134L26.7182 26.427C26.6658 26.3763 26.6287 26.3119 26.6111 26.2411C26.5935 26.1703 26.5962 26.096 26.6188 26.0266C26.6414 25.9573 26.6831 25.8957 26.7391 25.8489C26.795 25.8021 26.863 25.772 26.9352 25.762L29.3632 25.41L30.4492 23.217C30.4817 23.1517 30.5318 23.0967 30.5938 23.0583C30.6558 23.0199 30.7273 22.9995 30.8002 22.9995C30.8732 22.9995 30.9447 23.0199 31.0067 23.0583C31.0687 23.0967 31.1188 23.1517 31.1512 23.217L32.2372 25.41L34.6652 25.762C34.7373 25.7723 34.805 25.8027 34.8607 25.8495C34.9164 25.8963 34.9579 25.9578 34.9805 26.027C35.003 26.0962 35.0058 26.1703 34.9885 26.241C34.9711 26.3117 34.9343 26.3761 34.8822 26.427L33.1252 28.134L33.5392 30.544C33.5517 30.6158 33.5437 30.6898 33.5162 30.7573C33.4887 30.8249 33.4429 30.8834 33.3838 30.9262C33.3248 30.969 33.2549 30.9944 33.1822 30.9995C33.1094 31.0046 33.0367 30.9891 32.9722 30.955L30.8002 29.817Z" stroke="#008485" stroke-width="2" stroke-linecap="round" stroke-linejoin="round"/>
</g>
<defs>
<filter id="filter0_d_657_510" x="0" y="0" width="50" height="50" filterUnits="userSpaceOnUse" color-interpolation-filters="sRGB">
<feFlood flood-opacity="0" result="BackgroundImageFix"/>
<feColorMatrix in="SourceAlpha" type="matrix" values="0 0 0 0 0 0 0 0 0 0 0 0 0 0 0 0 0 0 127 0" result="hardAlpha"/>
<feOffset dy="4"/>
<feGaussianBlur stdDeviation="4"/>
<feComposite in2="hardAlpha" operator="out"/>
<feColorMatrix type="matrix" values="0 0 0 0 0 0 0 0 0 0 0 0 0 0 0 0 0 0 0.25 0"/>
<feBlend mode="normal" in2="BackgroundImageFix" result="effect1_dropShadow_657_510"/>
<feBlend mode="normal" in="SourceGraphic" in2="effect1_dropShadow_657_510" result="shape"/>
</filter>
</defs>
</svg>
