<svg width="31" height="41" viewBox="0 0 31 41" fill="none" xmlns="http://www.w3.org/2000/svg">
<path d="M30.5 16C30.5 17.6266 29.9413 19.5671 29.0028 21.6712C28.0677 23.7679 26.7732 25.9881 25.342 28.1632C22.5427 32.4174 19.2485 36.4575 17.1658 39.0117L17.0383 39.168C16.5588 39.6695 16.2263 40.0156 15.9564 40.2413C15.6794 40.4731 15.5563 40.5 15.5 40.5C15.4437 40.5 15.3206 40.4731 15.0436 40.2413C14.7737 40.0156 14.4412 39.6695 13.9617 39.168L13.8342 39.0117C11.7515 36.4574 8.45725 32.4174 5.65802 28.1632C4.22678 25.9881 2.93234 23.7679 1.99718 21.6712C1.05867 19.5671 0.5 17.6266 0.5 16C0.5 7.86462 7.24249 0.5 15.5 0.5C23.7575 0.5 30.5 7.86462 30.5 16Z" fill="#F23F5C" stroke="#C43C4F"/>
<path d="M7.18486 14.2179H14.3459V15.3949H7.18486V14.2179ZM6.10686 17.5289H15.3359V18.7279H6.10686V17.5289ZM9.97886 14.7569H11.4309V17.9139H9.97886V14.7569ZM7.18486 10.3789H14.2689V11.5449H8.63686V14.7239H7.18486V10.3789ZM17.953 11.4899H19.141V11.8529C19.141 12.4469 19.0383 13.0079 18.833 13.5359C18.6277 14.0566 18.3123 14.5113 17.887 14.8999C17.469 15.2886 16.9337 15.5783 16.281 15.7689L15.599 14.6249C16.149 14.4709 16.5963 14.2509 16.941 13.9649C17.293 13.6789 17.5497 13.3526 17.711 12.9859C17.8723 12.6119 17.953 12.2343 17.953 11.8529V11.4899ZM18.228 11.4899H19.416V11.8529C19.416 12.2049 19.4967 12.5533 19.658 12.8979C19.8267 13.2426 20.0833 13.5543 20.428 13.8329C20.7727 14.1043 21.2163 14.3133 21.759 14.4599L21.088 15.5929C20.4427 15.4096 19.9073 15.1346 19.482 14.7679C19.064 14.3939 18.7487 13.9576 18.536 13.4589C18.3307 12.9529 18.228 12.4176 18.228 11.8529V11.4899ZM15.951 10.7419H21.429V11.8859H15.951V10.7419ZM17.953 9.65294H19.416V11.2369H17.953V9.65294ZM22.221 9.68594H23.684V15.9119H22.221V9.68594ZM23.288 12.1829H25.037V13.3819H23.288V12.1829ZM16.886 16.3409H23.684V19.8719H22.221V17.5179H16.886V16.3409Z" fill="white"/>
</svg>
