<?xml version="1.0" encoding="UTF-8"?>
<svg xmlns="http://www.w3.org/2000/svg" xmlns:xlink="http://www.w3.org/1999/xlink" width="70px" height="70px" viewBox="0 0 70 70" version="1.1">
<g id="surface1">
<path style=" stroke:none;fill-rule:nonzero;fill:rgb(56.078434%,4.705882%,96.862745%);fill-opacity:1;" d="M 33.453125 2.15625 C 33.5625 2.152344 33.675781 2.152344 33.789062 2.152344 C 36.246094 2.128906 38.617188 2.152344 41.015625 2.734375 C 41.136719 2.761719 41.253906 2.789062 41.378906 2.820312 C 47.300781 4.230469 52.570312 7.855469 56.191406 12.714844 C 56.277344 12.828125 56.363281 12.941406 56.449219 13.058594 C 57.847656 14.984375 58.878906 17.066406 59.746094 19.277344 C 59.78125 19.367188 59.816406 19.457031 59.855469 19.550781 C 60.734375 21.832031 61.257812 24.417969 61.28125 26.859375 C 61.285156 26.96875 61.285156 27.078125 61.285156 27.1875 C 61.308594 29.613281 61.269531 31.945312 60.703125 34.316406 C 60.660156 34.5 60.660156 34.5 60.617188 34.691406 C 59.234375 40.53125 56.285156 45.773438 52.773438 50.585938 C 52.703125 50.679688 52.636719 50.773438 52.566406 50.871094 C 51.742188 51.996094 50.890625 53.085938 49.980469 54.140625 C 49.660156 54.515625 49.347656 54.898438 49.039062 55.285156 C 48.308594 56.183594 47.511719 57.015625 46.71875 57.855469 C 46.503906 58.085938 46.289062 58.316406 46.078125 58.550781 C 45.289062 59.417969 44.476562 60.265625 43.648438 61.097656 C 43.550781 61.191406 43.457031 61.289062 43.359375 61.386719 C 42.820312 61.925781 42.265625 62.4375 41.6875 62.9375 C 41.28125 63.292969 40.886719 63.664062 40.496094 64.035156 C 39.8125 64.675781 39.113281 65.285156 38.382812 65.871094 C 38.109375 66.089844 37.835938 66.3125 37.570312 66.542969 C 37.457031 66.636719 37.457031 66.636719 37.347656 66.730469 C 37.140625 66.90625 36.933594 67.082031 36.726562 67.257812 C 36.019531 67.8125 35.496094 67.890625 34.597656 67.871094 C 33.890625 67.773438 33.484375 67.449219 32.949219 66.992188 C 32.875 66.929688 32.796875 66.863281 32.71875 66.796875 C 31.75 65.980469 30.804688 65.136719 29.863281 64.285156 C 29.582031 64.03125 29.296875 63.78125 29.007812 63.53125 C 27.652344 62.34375 26.355469 61.09375 25.078125 59.824219 C 24.992188 59.734375 24.902344 59.648438 24.8125 59.558594 C 24.300781 59.042969 23.8125 58.511719 23.335938 57.960938 C 22.980469 57.550781 22.605469 57.160156 22.234375 56.765625 C 21.484375 55.960938 20.78125 55.132812 20.097656 54.277344 C 19.964844 54.113281 19.828125 53.953125 19.695312 53.789062 C 16.753906 50.230469 14.152344 46.398438 12.152344 42.226562 C 12.035156 41.984375 11.914062 41.742188 11.792969 41.5 C 10.597656 39.050781 9.71875 36.4375 9.160156 33.769531 C 9.136719 33.671875 9.117188 33.574219 9.09375 33.472656 C 8.320312 29.972656 8.476562 25.890625 9.296875 22.421875 C 9.320312 22.316406 9.34375 22.210938 9.367188 22.101562 C 10.699219 16.179688 14.453125 10.84375 19.277344 7.246094 C 19.390625 7.160156 19.503906 7.074219 19.621094 6.988281 C 21.546875 5.589844 23.628906 4.558594 25.839844 3.691406 C 25.929688 3.65625 26.019531 3.621094 26.113281 3.582031 C 28.402344 2.695312 31 2.179688 33.453125 2.15625 Z M 26.796875 19.6875 C 26.710938 19.761719 26.625 19.839844 26.535156 19.914062 C 24.484375 21.8125 23.199219 24.734375 23.050781 27.496094 C 22.933594 31.011719 23.84375 34.027344 26.25 36.640625 C 26.363281 36.769531 26.363281 36.769531 26.476562 36.902344 C 28.523438 39.117188 31.675781 40.339844 34.640625 40.472656 C 37.878906 40.445312 40.796875 39.371094 43.203125 37.1875 C 43.289062 37.113281 43.375 37.035156 43.464844 36.960938 C 45.515625 35.0625 46.800781 32.140625 46.949219 29.378906 C 47.066406 25.863281 46.15625 22.847656 43.75 20.234375 C 43.675781 20.148438 43.601562 20.0625 43.523438 19.972656 C 41.476562 17.757812 38.324219 16.535156 35.359375 16.402344 C 32.121094 16.429688 29.203125 17.503906 26.796875 19.6875 Z M 26.796875 19.6875 "/>
</g>
</svg>
