<svg width="44" height="44" viewBox="0 0 44 44" fill="none" xmlns="http://www.w3.org/2000/svg">
<g filter="url(#filter0_d_734_349)">
<rect x="4" width="36" height="36" rx="18" fill="white" shape-rendering="crispEdges"/>
<mask id="path-2-outside-1_734_349" maskUnits="userSpaceOnUse" x="7" y="13" width="18" height="11" fill="black">
<rect fill="white" x="7" y="13" width="18" height="11"/>
<path d="M13.566 15.0605C13.7809 15.3613 13.9996 15.75 14.2223 16.2266C14.4488 16.6992 14.6676 17.2188 14.8785 17.7852C15.0895 18.3516 15.2789 18.9316 15.4469 19.5254C15.6188 20.1152 15.7594 20.6836 15.8688 21.2305C15.9781 21.7773 16.0406 22.2637 16.0563 22.6895C16.0602 22.8965 15.9664 23 15.775 23H14.357C14.1734 23 14.0777 22.9082 14.0699 22.7246C14.0543 22.2871 13.984 21.7559 13.859 21.1309H10.6598C10.5504 21.7402 10.4879 22.2715 10.4723 22.7246C10.4645 22.9082 10.3648 23 10.1734 23H8.78477C8.71445 23 8.65586 22.9805 8.60898 22.9414C8.56211 22.8984 8.54063 22.8262 8.54453 22.7246C8.56406 22.291 8.62656 21.7988 8.73203 21.248C8.84141 20.6934 8.98203 20.1191 9.15391 19.5254C9.32578 18.9316 9.51719 18.3516 9.72813 17.7852C9.93906 17.2148 10.1578 16.6934 10.3844 16.2207C10.6109 15.748 10.8316 15.3613 11.0465 15.0605C11.1598 14.9004 11.2789 14.7832 11.4039 14.709C11.5328 14.6348 11.691 14.5977 11.8785 14.5977H12.7223C12.9137 14.5977 13.0738 14.6348 13.2027 14.709C13.3316 14.7832 13.4527 14.9004 13.566 15.0605ZM12.2418 16.4492C11.984 16.8594 11.7477 17.3496 11.5328 17.9199C11.318 18.4902 11.1324 19.0762 10.9762 19.6777H13.5191C13.3551 19.0762 13.1656 18.4902 12.9508 17.9199C12.7359 17.3496 12.5113 16.8594 12.277 16.4492H12.2418ZM21.2113 22.6895C21.2113 22.8066 21.1859 22.8887 21.1352 22.9355C21.0883 22.9785 21.0063 23 20.8891 23H19.641C19.5238 23 19.4398 22.9785 19.3891 22.9355C19.3422 22.8887 19.3188 22.8066 19.3188 22.6895V16.1387H17.5727C17.4789 16.1387 17.4086 16.123 17.3617 16.0918C17.2602 16.0215 17.1547 15.9375 17.0453 15.8398C16.9398 15.7422 16.8246 15.625 16.6996 15.4883C16.6605 15.4375 16.641 15.3965 16.641 15.3652C16.641 15.3301 16.6605 15.291 16.6996 15.248C16.8246 15.1113 16.9398 14.9941 17.0453 14.8965C17.1547 14.7988 17.2602 14.7148 17.3617 14.6445C17.4164 14.6133 17.4867 14.5977 17.5727 14.5977H22.9633C23.057 14.5977 23.1273 14.6133 23.1742 14.6445C23.2758 14.7148 23.3813 14.7988 23.4906 14.8965C23.6 14.9941 23.7152 15.1113 23.8363 15.248C23.8754 15.2988 23.8949 15.3398 23.8949 15.3711C23.8949 15.4062 23.8754 15.4453 23.8363 15.4883C23.7152 15.625 23.6 15.7422 23.4906 15.8398C23.3813 15.9375 23.2758 16.0215 23.1742 16.0918C23.1195 16.123 23.0492 16.1387 22.9633 16.1387H21.2113V22.6895Z"/>
</mask>
<path d="M13.566 15.0605C13.7809 15.3613 13.9996 15.75 14.2223 16.2266C14.4488 16.6992 14.6676 17.2188 14.8785 17.7852C15.0895 18.3516 15.2789 18.9316 15.4469 19.5254C15.6188 20.1152 15.7594 20.6836 15.8688 21.2305C15.9781 21.7773 16.0406 22.2637 16.0563 22.6895C16.0602 22.8965 15.9664 23 15.775 23H14.357C14.1734 23 14.0777 22.9082 14.0699 22.7246C14.0543 22.2871 13.984 21.7559 13.859 21.1309H10.6598C10.5504 21.7402 10.4879 22.2715 10.4723 22.7246C10.4645 22.9082 10.3648 23 10.1734 23H8.78477C8.71445 23 8.65586 22.9805 8.60898 22.9414C8.56211 22.8984 8.54063 22.8262 8.54453 22.7246C8.56406 22.291 8.62656 21.7988 8.73203 21.248C8.84141 20.6934 8.98203 20.1191 9.15391 19.5254C9.32578 18.9316 9.51719 18.3516 9.72813 17.7852C9.93906 17.2148 10.1578 16.6934 10.3844 16.2207C10.6109 15.748 10.8316 15.3613 11.0465 15.0605C11.1598 14.9004 11.2789 14.7832 11.4039 14.709C11.5328 14.6348 11.691 14.5977 11.8785 14.5977H12.7223C12.9137 14.5977 13.0738 14.6348 13.2027 14.709C13.3316 14.7832 13.4527 14.9004 13.566 15.0605ZM12.2418 16.4492C11.984 16.8594 11.7477 17.3496 11.5328 17.9199C11.318 18.4902 11.1324 19.0762 10.9762 19.6777H13.5191C13.3551 19.0762 13.1656 18.4902 12.9508 17.9199C12.7359 17.3496 12.5113 16.8594 12.277 16.4492H12.2418ZM21.2113 22.6895C21.2113 22.8066 21.1859 22.8887 21.1352 22.9355C21.0883 22.9785 21.0063 23 20.8891 23H19.641C19.5238 23 19.4398 22.9785 19.3891 22.9355C19.3422 22.8887 19.3188 22.8066 19.3188 22.6895V16.1387H17.5727C17.4789 16.1387 17.4086 16.123 17.3617 16.0918C17.2602 16.0215 17.1547 15.9375 17.0453 15.8398C16.9398 15.7422 16.8246 15.625 16.6996 15.4883C16.6605 15.4375 16.641 15.3965 16.641 15.3652C16.641 15.3301 16.6605 15.291 16.6996 15.248C16.8246 15.1113 16.9398 14.9941 17.0453 14.8965C17.1547 14.7988 17.2602 14.7148 17.3617 14.6445C17.4164 14.6133 17.4867 14.5977 17.5727 14.5977H22.9633C23.057 14.5977 23.1273 14.6133 23.1742 14.6445C23.2758 14.7148 23.3813 14.7988 23.4906 14.8965C23.6 14.9941 23.7152 15.1113 23.8363 15.248C23.8754 15.2988 23.8949 15.3398 23.8949 15.3711C23.8949 15.4062 23.8754 15.4453 23.8363 15.4883C23.7152 15.625 23.6 15.7422 23.4906 15.8398C23.3813 15.9375 23.2758 16.0215 23.1742 16.0918C23.1195 16.123 23.0492 16.1387 22.9633 16.1387H21.2113V22.6895Z" fill="#008485"/>
<path d="M13.566 15.0605L12.7496 15.638L12.7523 15.6418L13.566 15.0605ZM14.2223 16.2266L13.3162 16.6499L13.3205 16.6588L14.2223 16.2266ZM15.4469 19.5254L14.4846 19.7976L14.4868 19.8051L15.4469 19.5254ZM16.0562 22.6895L17.0561 22.6706L17.0559 22.6617L17.0556 22.6528L16.0562 22.6895ZM14.0699 22.7246L13.0705 22.7603L13.0708 22.7671L14.0699 22.7246ZM13.859 21.1309L14.8396 20.9347L14.6788 20.1309H13.859V21.1309ZM10.6598 21.1309V20.1309H9.82327L9.67549 20.9542L10.6598 21.1309ZM10.4723 22.7246L11.4714 22.7671L11.4717 22.7591L10.4723 22.7246ZM8.60898 22.9414L7.93326 23.6786L7.95066 23.6945L7.9688 23.7096L8.60898 22.9414ZM8.54453 22.7246L7.54552 22.6796L7.54527 22.6862L8.54453 22.7246ZM8.73203 21.248L7.75091 21.0546L7.74988 21.06L8.73203 21.248ZM9.72813 17.7852L10.6653 18.1342L10.666 18.1321L9.72813 17.7852ZM11.0465 15.0605L11.8602 15.6418L11.8629 15.638L11.0465 15.0605ZM11.4039 14.709L10.9049 13.8423L10.8934 13.8491L11.4039 14.709ZM12.2418 16.4492V15.4492H11.6892L11.3952 15.917L12.2418 16.4492ZM10.9762 19.6777L10.0083 19.4263L9.68325 20.6777H10.9762V19.6777ZM13.5191 19.6777V20.6777H14.8284L14.4839 19.4146L13.5191 19.6777ZM12.277 16.4492L13.1452 15.9531L12.8573 15.4492H12.277V16.4492ZM12.7523 15.6418C12.9202 15.8769 13.1096 16.2075 13.3163 16.6499L15.1283 15.8033C14.8896 15.2925 14.6415 14.8458 14.3797 14.4793L12.7523 15.6418ZM13.3205 16.6588C13.5322 17.1005 13.7394 17.5918 13.9414 18.1342L15.8156 17.4362C15.5957 16.8457 15.3654 16.2979 15.124 15.7943L13.3205 16.6588ZM13.9414 18.1342C14.1427 18.6748 14.3238 19.2292 14.4846 19.7976L16.4091 19.2532C16.234 18.634 16.0362 18.0283 15.8156 17.4362L13.9414 18.1342ZM14.4868 19.8051C14.6514 20.3702 14.785 20.9105 14.8882 21.4266L16.8493 21.0344C16.7338 20.4567 16.5861 19.8603 16.4069 19.2456L14.4868 19.8051ZM14.8882 21.4266C14.99 21.936 15.0438 22.3673 15.0569 22.7261L17.0556 22.6528C17.0375 22.16 16.9662 21.6187 16.8493 21.0344L14.8882 21.4266ZM15.0564 22.7083C15.0559 22.6781 15.0568 22.4618 15.2477 22.2511C15.4528 22.0246 15.697 22 15.775 22V24C16.0444 24 16.4312 23.9236 16.7301 23.5936C17.0147 23.2794 17.0605 22.9078 17.0561 22.6706L15.0564 22.7083ZM15.775 22H14.357V24H15.775V22ZM14.357 22C14.4228 22 14.6398 22.0176 14.8398 22.2095C15.0397 22.4012 15.0662 22.6169 15.069 22.6821L13.0708 22.7671C13.0814 23.0159 13.1597 23.3693 13.4553 23.6528C13.7511 23.9365 14.1077 24 14.357 24V22ZM15.0693 22.6889C15.0511 22.1793 14.9708 21.5911 14.8396 20.9347L12.8784 21.327C12.9971 21.9207 13.0575 22.3949 13.0706 22.7603L15.0693 22.6889ZM13.859 20.1309H10.6598V22.1309H13.859V20.1309ZM9.67549 20.9542C9.56051 21.5949 9.4906 22.1757 9.47286 22.6901L11.4717 22.7591C11.4852 22.3673 11.5403 21.8856 11.644 21.3075L9.67549 20.9542ZM9.47317 22.6821C9.4764 22.6063 9.50804 22.3856 9.71402 22.1958C9.91307 22.0124 10.1217 22 10.1734 22V24C10.4166 24 10.7707 23.9417 11.0694 23.6665C11.375 23.3849 11.4603 23.0266 11.4714 22.7671L9.47317 22.6821ZM10.1734 22H8.78477V24H10.1734V22ZM8.78477 22C8.91078 22 9.08941 22.0401 9.24917 22.1732L7.9688 23.7096C8.22231 23.9209 8.51813 24 8.78477 24V22ZM9.28471 22.2043C9.556 22.4529 9.5445 22.7447 9.54379 22.763L7.54527 22.6862C7.53675 22.9077 7.56822 23.3439 7.93326 23.6786L9.28471 22.2043ZM9.54352 22.7696C9.56037 22.3956 9.6153 21.9525 9.71419 21.4361L7.74988 21.06C7.63783 21.6451 7.56776 22.1865 7.54554 22.6796L9.54352 22.7696ZM9.71314 21.4415C9.81641 20.9178 9.94993 20.3719 10.1145 19.8034L8.19334 19.2473C8.01413 19.8664 7.8664 20.4689 7.75092 21.0546L9.71314 21.4415ZM10.1145 19.8034C10.2796 19.2331 10.4632 18.6767 10.6652 18.1342L8.791 17.4362C8.57118 18.0264 8.37199 18.6302 8.19334 19.2473L10.1145 19.8034ZM10.666 18.1321C10.8679 17.5863 11.0748 17.0937 11.2861 16.6529L9.48262 15.7885C9.24078 16.293 9.01023 16.8434 8.79022 17.4383L10.666 18.1321ZM11.2861 16.6529C11.4971 16.2127 11.6896 15.8806 11.8602 15.6418L10.2328 14.4793C9.97365 14.8421 9.72473 15.2834 9.48262 15.7885L11.2861 16.6529ZM11.8629 15.638C11.891 15.5983 11.9113 15.576 11.922 15.5655C11.9326 15.5551 11.9306 15.5592 11.9144 15.5688L10.8934 13.8491C10.6134 14.0154 10.3976 14.2462 10.2301 14.4831L11.8629 15.638ZM11.9029 15.5756C11.8754 15.5914 11.8547 15.5974 11.8476 15.5991C11.8414 15.6005 11.8502 15.5977 11.8785 15.5977V13.5977C11.5608 13.5977 11.2203 13.6608 10.9049 13.8424L11.9029 15.5756ZM11.8785 15.5977H12.7223V13.5977H11.8785V15.5977ZM12.7223 15.5977C12.7541 15.5977 12.7651 15.6008 12.7602 15.5997C12.7544 15.5983 12.7331 15.5925 12.7038 15.5756L13.7017 13.8424C13.3835 13.6591 13.0397 13.5977 12.7223 13.5977V15.5977ZM12.7038 15.5756C12.6882 15.5666 12.6857 15.5623 12.6948 15.5711C12.7042 15.5802 12.7231 15.6006 12.7496 15.638L14.3824 14.4831C14.211 14.2407 13.9894 14.008 13.7017 13.8424L12.7038 15.5756ZM11.3952 15.917C11.0939 16.3963 10.8297 16.9496 10.597 17.5674L12.4686 18.2724C12.6656 17.7496 12.874 17.3225 13.0884 16.9814L11.3952 15.917ZM10.597 17.5674C10.3694 18.1715 10.1733 18.7912 10.0083 19.4263L11.9441 19.9291C12.0916 19.3611 12.2665 18.809 12.4686 18.2724L10.597 17.5674ZM10.9762 20.6777H13.5191V18.6777H10.9762V20.6777ZM14.4839 19.4146C14.3118 18.7835 14.1127 18.1677 13.8866 17.5674L12.015 18.2724C12.2185 18.8128 12.3984 19.3688 12.5544 19.9409L14.4839 19.4146ZM13.8866 17.5674C13.6581 16.9609 13.4121 16.4202 13.1452 15.9531L11.4087 16.9454C11.6105 17.2985 11.8138 17.7383 12.015 18.2724L13.8866 17.5674ZM12.277 15.4492H12.2418V17.4492H12.277V15.4492ZM21.1352 22.9355L21.8109 23.6727L21.8134 23.6704L21.1352 22.9355ZM19.3891 22.9355L18.682 23.6427L18.7114 23.6721L18.7431 23.6989L19.3891 22.9355ZM19.3188 16.1387H20.3188V15.1387H19.3188V16.1387ZM17.3617 16.0918L16.7925 16.914L16.7997 16.919L16.807 16.9238L17.3617 16.0918ZM17.0453 15.8398L16.3659 16.5736L16.3725 16.5798L16.3793 16.5858L17.0453 15.8398ZM16.6996 15.4883L15.907 16.098L15.9329 16.1317L15.9616 16.1631L16.6996 15.4883ZM16.6996 15.248L15.9616 14.5733L15.9597 14.5754L16.6996 15.248ZM17.0453 14.8965L16.3793 14.1505L16.3725 14.1566L16.3659 14.1627L17.0453 14.8965ZM17.3617 14.6445L16.8656 13.7763L16.828 13.7977L16.7925 13.8223L17.3617 14.6445ZM23.1742 14.6445L23.7434 13.8223L23.7362 13.8173L23.7289 13.8125L23.1742 14.6445ZM23.8363 15.248L24.629 14.6383L24.6079 14.6109L24.5849 14.585L23.8363 15.248ZM23.8363 15.4883L23.0963 14.8156L23.0877 14.8252L23.8363 15.4883ZM23.1742 16.0918L23.6704 16.96L23.7079 16.9386L23.7434 16.914L23.1742 16.0918ZM21.2113 16.1387V15.1387H20.2113V16.1387H21.2113ZM20.2113 22.6895C20.2113 22.6817 20.2115 22.6257 20.237 22.5432C20.2639 22.4564 20.325 22.3225 20.4569 22.2007L21.8134 23.6704C22.1739 23.3376 22.2113 22.9013 22.2113 22.6895H20.2113ZM20.4594 22.1984C20.5892 22.0794 20.7191 22.0338 20.7851 22.0165C20.8203 22.0073 20.8473 22.0034 20.8631 22.0017C20.8792 22 20.8884 22 20.8891 22V24C21.0683 24 21.4766 23.9791 21.8109 23.6727L20.4594 22.1984ZM20.8891 22H19.641V24H20.8891V22ZM19.641 22C19.6418 22 19.6504 22 19.6655 22.0016C19.6805 22.0032 19.7055 22.0068 19.738 22.0151C19.7998 22.0309 19.9154 22.071 20.035 22.1722L18.7431 23.6989C19.0684 23.9742 19.4497 24 19.641 24V22ZM20.0962 22.2284C20.2226 22.3548 20.276 22.4875 20.2979 22.5641C20.3192 22.6388 20.3188 22.6871 20.3188 22.6895H18.3188C18.3188 22.8843 18.3472 23.3079 18.682 23.6427L20.0962 22.2284ZM20.3188 22.6895V16.1387H18.3188V22.6895H20.3188ZM19.3188 15.1387H17.5727V17.1387H19.3188V15.1387ZM17.5727 15.1387C17.5782 15.1387 17.6129 15.1388 17.6665 15.1508C17.7198 15.1626 17.8129 15.1908 17.9164 15.2597L16.807 16.9238C17.0945 17.1155 17.3994 17.1387 17.5727 17.1387V15.1387ZM17.9309 15.2696C17.8687 15.2265 17.7955 15.1691 17.7113 15.0939L16.3793 16.5858C16.5139 16.7059 16.6516 16.8164 16.7925 16.914L17.9309 15.2696ZM17.7247 15.1061C17.6444 15.0317 17.549 14.9353 17.4376 14.8135L15.9616 16.1631C16.1003 16.3147 16.2353 16.4526 16.3659 16.5736L17.7247 15.1061ZM17.4922 14.8786C17.4997 14.8882 17.5285 14.9264 17.5585 14.9895C17.5859 15.047 17.641 15.1803 17.641 15.3652H15.641C15.641 15.7527 15.8505 16.0245 15.907 16.098L17.4922 14.8786ZM17.641 15.3652C17.641 15.5359 17.5933 15.6704 17.5501 15.7568C17.508 15.841 17.4627 15.8953 17.4395 15.9207L15.9597 14.5754C15.8554 14.6901 15.641 14.9627 15.641 15.3652H17.641ZM17.4376 15.9228C17.549 15.8011 17.6444 15.7046 17.7247 15.6302L16.3659 14.1627C16.2353 14.2837 16.1003 14.4216 15.9616 14.5733L17.4376 15.9228ZM17.7113 15.6424C17.7955 15.5673 17.8687 15.5098 17.9309 15.4667L16.7925 13.8223C16.6516 13.9199 16.5139 14.0304 16.3793 14.1505L17.7113 15.6424ZM17.8579 15.5128C17.7162 15.5937 17.6 15.5977 17.5727 15.5977V13.5977C17.3735 13.5977 17.1166 13.6329 16.8656 13.7763L17.8579 15.5128ZM17.5727 15.5977H22.9633V13.5977H17.5727V15.5977ZM22.9633 15.5977C22.9577 15.5977 22.9231 15.5975 22.8694 15.5856C22.8161 15.5737 22.723 15.5456 22.6195 15.4766L23.7289 13.8125C23.4414 13.6208 23.1366 13.5977 22.9633 13.5977V15.5977ZM22.605 15.4667C22.6672 15.5098 22.7404 15.5673 22.8246 15.6424L24.1566 14.1505C24.0221 14.0304 23.8843 13.9199 23.7434 13.8223L22.605 15.4667ZM22.8246 15.6424C22.8988 15.7087 22.9865 15.7968 23.0877 15.9111L24.5849 14.585C24.4439 14.4258 24.3012 14.2796 24.1566 14.1505L22.8246 15.6424ZM23.0437 15.8578C23.0363 15.8481 23.0075 15.81 22.9774 15.7468C22.95 15.6893 22.8949 15.556 22.8949 15.3711H24.8949C24.8949 14.9836 24.6855 14.7118 24.629 14.6383L23.0437 15.8578ZM22.8949 15.3711C22.8949 15.2004 22.9426 15.0659 22.9858 14.9795C23.0279 14.8954 23.0733 14.841 23.0964 14.8156L24.5763 16.161C24.6805 16.0462 24.8949 15.7737 24.8949 15.3711H22.8949ZM23.0877 14.8252C22.9865 14.9395 22.8988 15.0276 22.8246 15.0939L24.1566 16.5858C24.3012 16.4567 24.4439 16.3105 24.5849 16.1513L23.0877 14.8252ZM22.8246 15.0939C22.7404 15.1691 22.6672 15.2265 22.605 15.2696L23.7434 16.914C23.8843 16.8164 24.0221 16.7059 24.1566 16.5858L22.8246 15.0939ZM22.6781 15.2236C22.8197 15.1426 22.936 15.1387 22.9633 15.1387V17.1387C23.1625 17.1387 23.4194 17.1035 23.6704 16.96L22.6781 15.2236ZM22.9633 15.1387H21.2113V17.1387H22.9633V15.1387ZM20.2113 16.1387V22.6895H22.2113V16.1387H20.2113Z" fill="white" mask="url(#path-2-outside-1_734_349)"/>
<mask id="path-4-outside-2_734_349" maskUnits="userSpaceOnUse" x="24" y="13" width="12" height="11" fill="black">
<rect fill="white" x="24" y="13" width="12" height="11"/>
<path d="M30.0293 19.6367C30.084 19.4258 30.1426 19.2188 30.2051 19.0156C30.2715 18.8086 30.3516 18.5781 30.4453 18.3242C30.5273 18.0977 30.627 17.8379 30.7441 17.5449C30.8613 17.248 30.9844 16.9473 31.1133 16.6426C31.2461 16.3379 31.375 16.0547 31.5 15.793C31.625 15.5312 31.7383 15.3223 31.8398 15.166C31.9648 14.9746 32.0996 14.832 32.2441 14.7383C32.3926 14.6445 32.6094 14.5977 32.8945 14.5977H33.6621C33.8652 14.5977 34.0352 14.6289 34.1719 14.6914C34.3125 14.75 34.4121 14.8926 34.4707 15.1191C34.5137 15.2871 34.5547 15.5332 34.5938 15.8574C34.6328 16.1816 34.666 16.6309 34.6934 17.2051C34.7207 17.7793 34.7422 18.5176 34.7578 19.4199C34.7734 20.3184 34.7812 21.4297 34.7812 22.7539C34.7812 22.8242 34.7578 22.8828 34.7109 22.9297C34.6641 22.9766 34.6074 23 34.541 23H33.2051C33.1387 23 33.082 22.9766 33.0352 22.9297C32.9883 22.8828 32.9648 22.8223 32.9648 22.748C32.9648 21.7168 32.9648 20.8418 32.9648 20.123C32.9648 19.4043 32.9629 18.8086 32.959 18.3359C32.9551 17.8633 32.9492 17.4883 32.9414 17.2109C32.9375 16.9297 32.9297 16.7129 32.918 16.5605H32.8828C32.6758 17.0371 32.4551 17.5684 32.2207 18.1543C31.9863 18.7363 31.7578 19.3379 31.5352 19.959C31.3125 20.5762 31.1133 21.1797 30.9375 21.7695C30.8867 21.9453 30.8223 22.0684 30.7441 22.1387C30.6699 22.2051 30.498 22.2383 30.2285 22.2383H29.5547C29.3242 22.2383 29.1699 22.209 29.0918 22.1504C29.0176 22.0918 28.9531 21.9648 28.8984 21.7695C28.7695 21.3242 28.627 20.8535 28.4707 20.3574C28.3145 19.8613 28.1523 19.375 27.9844 18.8984C27.8203 18.418 27.6602 17.9766 27.5039 17.5742C27.3516 17.168 27.2148 16.8301 27.0938 16.5605H27.0586C27.0273 17.0215 27 17.582 26.9766 18.2422C26.9531 18.9023 26.9336 19.6191 26.918 20.3926C26.9062 21.166 26.8984 21.9551 26.8945 22.7598C26.8945 22.8301 26.8711 22.8887 26.8242 22.9355C26.7773 22.9785 26.7207 23 26.6543 23H25.4531C25.3867 23 25.3301 22.9766 25.2832 22.9297C25.2363 22.8828 25.2129 22.8223 25.2129 22.748C25.2168 20.666 25.2578 19.0039 25.3359 17.7617C25.418 16.5195 25.5059 15.6875 25.5996 15.2656C25.6621 14.9883 25.7715 14.8086 25.9277 14.7266C26.0879 14.6406 26.2695 14.5977 26.4727 14.5977H27.4219C27.6367 14.5977 27.793 14.6367 27.8906 14.7148C27.9922 14.7891 28.1152 14.9355 28.2598 15.1543C28.3457 15.2832 28.4473 15.4766 28.5645 15.7344C28.6855 15.9922 28.8105 16.2793 28.9395 16.5957C29.0684 16.9082 29.1895 17.2188 29.3027 17.5273C29.4199 17.832 29.5156 18.0977 29.5898 18.3242C29.668 18.5547 29.7402 18.7793 29.8066 18.998C29.873 19.2129 29.9316 19.4258 29.9824 19.6367H30.0293Z"/>
</mask>
<path d="M30.0293 19.6367C30.084 19.4258 30.1426 19.2188 30.2051 19.0156C30.2715 18.8086 30.3516 18.5781 30.4453 18.3242C30.5273 18.0977 30.627 17.8379 30.7441 17.5449C30.8613 17.248 30.9844 16.9473 31.1133 16.6426C31.2461 16.3379 31.375 16.0547 31.5 15.793C31.625 15.5312 31.7383 15.3223 31.8398 15.166C31.9648 14.9746 32.0996 14.832 32.2441 14.7383C32.3926 14.6445 32.6094 14.5977 32.8945 14.5977H33.6621C33.8652 14.5977 34.0352 14.6289 34.1719 14.6914C34.3125 14.75 34.4121 14.8926 34.4707 15.1191C34.5137 15.2871 34.5547 15.5332 34.5938 15.8574C34.6328 16.1816 34.666 16.6309 34.6934 17.2051C34.7207 17.7793 34.7422 18.5176 34.7578 19.4199C34.7734 20.3184 34.7812 21.4297 34.7812 22.7539C34.7812 22.8242 34.7578 22.8828 34.7109 22.9297C34.6641 22.9766 34.6074 23 34.541 23H33.2051C33.1387 23 33.082 22.9766 33.0352 22.9297C32.9883 22.8828 32.9648 22.8223 32.9648 22.748C32.9648 21.7168 32.9648 20.8418 32.9648 20.123C32.9648 19.4043 32.9629 18.8086 32.959 18.3359C32.9551 17.8633 32.9492 17.4883 32.9414 17.2109C32.9375 16.9297 32.9297 16.7129 32.918 16.5605H32.8828C32.6758 17.0371 32.4551 17.5684 32.2207 18.1543C31.9863 18.7363 31.7578 19.3379 31.5352 19.959C31.3125 20.5762 31.1133 21.1797 30.9375 21.7695C30.8867 21.9453 30.8223 22.0684 30.7441 22.1387C30.6699 22.2051 30.498 22.2383 30.2285 22.2383H29.5547C29.3242 22.2383 29.1699 22.209 29.0918 22.1504C29.0176 22.0918 28.9531 21.9648 28.8984 21.7695C28.7695 21.3242 28.627 20.8535 28.4707 20.3574C28.3145 19.8613 28.1523 19.375 27.9844 18.8984C27.8203 18.418 27.6602 17.9766 27.5039 17.5742C27.3516 17.168 27.2148 16.8301 27.0938 16.5605H27.0586C27.0273 17.0215 27 17.582 26.9766 18.2422C26.9531 18.9023 26.9336 19.6191 26.918 20.3926C26.9062 21.166 26.8984 21.9551 26.8945 22.7598C26.8945 22.8301 26.8711 22.8887 26.8242 22.9355C26.7773 22.9785 26.7207 23 26.6543 23H25.4531C25.3867 23 25.3301 22.9766 25.2832 22.9297C25.2363 22.8828 25.2129 22.8223 25.2129 22.748C25.2168 20.666 25.2578 19.0039 25.3359 17.7617C25.418 16.5195 25.5059 15.6875 25.5996 15.2656C25.6621 14.9883 25.7715 14.8086 25.9277 14.7266C26.0879 14.6406 26.2695 14.5977 26.4727 14.5977H27.4219C27.6367 14.5977 27.793 14.6367 27.8906 14.7148C27.9922 14.7891 28.1152 14.9355 28.2598 15.1543C28.3457 15.2832 28.4473 15.4766 28.5645 15.7344C28.6855 15.9922 28.8105 16.2793 28.9395 16.5957C29.0684 16.9082 29.1895 17.2188 29.3027 17.5273C29.4199 17.832 29.5156 18.0977 29.5898 18.3242C29.668 18.5547 29.7402 18.7793 29.8066 18.998C29.873 19.2129 29.9316 19.4258 29.9824 19.6367H30.0293Z" fill="#008485"/>
<path d="M30.0293 19.6367V20.6367H30.8031L30.9973 19.8877L30.0293 19.6367ZM30.2051 19.0156L29.2528 18.7102L29.2493 18.7215L30.2051 19.0156ZM30.4453 18.3242L31.3834 18.6706L31.3856 18.6647L30.4453 18.3242ZM30.7441 17.5449L31.6726 17.9163L31.6743 17.9121L30.7441 17.5449ZM31.1133 16.6426L30.1965 16.243L30.1923 16.2529L31.1133 16.6426ZM31.8398 15.166L31.0026 14.6192L31.0014 14.621L31.8398 15.166ZM32.2441 14.7383L31.7101 13.8927L31.6999 13.8993L32.2441 14.7383ZM34.1719 14.6914L33.7561 15.6009L33.7716 15.6079L33.7873 15.6145L34.1719 14.6914ZM34.4707 15.1191L35.4395 14.8713L35.4389 14.8688L34.4707 15.1191ZM34.7578 19.4199L33.758 19.4372L33.758 19.4373L34.7578 19.4199ZM32.9414 17.2109L31.9415 17.2248L31.9416 17.232L31.9418 17.2391L32.9414 17.2109ZM32.918 16.5605L33.915 16.4839L33.844 15.5605H32.918V16.5605ZM32.8828 16.5605V15.5605H32.227L31.9656 16.1621L32.8828 16.5605ZM32.2207 18.1543L33.1483 18.5278L33.1492 18.5257L32.2207 18.1543ZM31.5352 19.959L32.4758 20.2983L32.4765 20.2964L31.5352 19.959ZM30.9375 21.7695L29.9791 21.4839L29.9768 21.492L30.9375 21.7695ZM30.7441 22.1387L31.4109 22.8839L31.4131 22.882L30.7441 22.1387ZM29.0918 22.1504L28.4722 22.9353L28.4819 22.943L28.4918 22.9504L29.0918 22.1504ZM28.8984 21.7695L29.8614 21.4999L29.859 21.4915L28.8984 21.7695ZM27.9844 18.8984L27.038 19.2216L27.0412 19.2309L27.9844 18.8984ZM27.5039 17.5742L26.5675 17.9254L26.5717 17.9362L27.5039 17.5742ZM27.0938 16.5605L28.0059 16.1507L27.7408 15.5605H27.0938V16.5605ZM27.0586 16.5605V15.5605H26.1241L26.0609 16.4929L27.0586 16.5605ZM26.918 20.3926L25.9182 20.3724L25.9181 20.3774L26.918 20.3926ZM26.8945 22.7598L25.8945 22.7549V22.7598H26.8945ZM26.8242 22.9355L27.4999 23.6727L27.516 23.658L27.5313 23.6427L26.8242 22.9355ZM25.2129 22.748L24.2129 22.7462V22.748H25.2129ZM25.3359 17.7617L24.3381 17.6958L24.3379 17.6989L25.3359 17.7617ZM25.5996 15.2656L24.6241 15.0458L24.6234 15.0487L25.5996 15.2656ZM25.9277 14.7266L26.3926 15.612L26.4006 15.6077L25.9277 14.7266ZM27.8906 14.7148L27.2659 15.4957L27.283 15.5094L27.3006 15.5222L27.8906 14.7148ZM28.2598 15.1543L27.4254 15.7056L27.4277 15.709L28.2598 15.1543ZM28.5645 15.7344L27.654 16.1482L27.6593 16.1595L28.5645 15.7344ZM28.9395 16.5957L28.0134 16.973L28.015 16.977L28.9395 16.5957ZM29.3027 17.5273L28.364 17.8719L28.3666 17.8792L28.3694 17.8863L29.3027 17.5273ZM29.5898 18.3242L28.6395 18.6355L28.6428 18.6453L29.5898 18.3242ZM29.8066 18.998L28.8497 19.2885L28.8512 19.2934L29.8066 18.998ZM29.9824 19.6367L29.0102 19.8708L29.1946 20.6367H29.9824V19.6367ZM30.9973 19.8877C31.0483 19.6908 31.1029 19.4982 31.1609 19.3097L29.2493 18.7215C29.1823 18.9393 29.1196 19.1607 29.0613 19.3858L30.9973 19.8877ZM31.1573 19.3211C31.2184 19.1306 31.2935 18.9141 31.3834 18.6706L29.5072 17.9778C29.4096 18.2422 29.3246 18.4866 29.2529 18.7102L31.1573 19.3211ZM31.3856 18.6647C31.4629 18.4511 31.5584 18.202 31.6726 17.9163L29.8157 17.1735C29.6955 17.4738 29.5918 17.7442 29.505 17.9838L31.3856 18.6647ZM31.6743 17.9121C31.7884 17.623 31.9084 17.3297 32.0342 17.0322L30.1923 16.2529C30.0604 16.5648 29.9343 16.8731 29.814 17.1778L31.6743 17.9121ZM32.03 17.0422C32.1588 16.7465 32.283 16.4739 32.4024 16.2239L30.5976 15.362C30.467 15.6355 30.3333 15.9292 30.1966 16.243L32.03 17.0422ZM32.4024 16.2239C32.5177 15.9825 32.6097 15.8165 32.6783 15.711L31.0014 14.621C30.8668 14.8281 30.7323 15.08 30.5976 15.362L32.4024 16.2239ZM32.6771 15.7128C32.7496 15.6019 32.7924 15.5746 32.7883 15.5772L31.6999 13.8993C31.4068 14.0894 31.1801 14.3473 31.0026 14.6192L32.6771 15.7128ZM32.7781 15.5838C32.7311 15.6134 32.7066 15.6152 32.7294 15.6102C32.7519 15.6054 32.804 15.5977 32.8945 15.5977V13.5977C32.527 13.5977 32.0894 13.6533 31.7101 13.8928L32.7781 15.5838ZM32.8945 15.5977H33.6621V13.5977H32.8945V15.5977ZM33.6621 15.5977C33.7133 15.5977 33.745 15.6017 33.761 15.6046C33.7767 15.6075 33.7729 15.6085 33.7561 15.6009L34.5876 13.7819C34.2831 13.6427 33.961 13.5977 33.6621 13.5977V15.5977ZM33.7873 15.6145C33.6583 15.5608 33.5755 15.4768 33.5323 15.415C33.4947 15.3612 33.4934 15.3343 33.5026 15.3695L35.4389 14.8688C35.3449 14.5056 35.1148 14.001 34.5565 13.7683L33.7873 15.6145ZM33.5019 15.367C33.5285 15.4708 33.5634 15.6654 33.6009 15.977L35.5866 15.7378C35.546 15.401 35.4989 15.1034 35.4395 14.8713L33.5019 15.367ZM33.6009 15.977C33.6357 16.2659 33.6676 16.6874 33.6945 17.2526L35.6922 17.1575C35.6645 16.5743 35.6299 16.0973 35.5866 15.7378L33.6009 15.977ZM33.6945 17.2526C33.7212 17.8128 33.7424 18.54 33.758 19.4372L35.7577 19.4026C35.7419 18.4951 35.7202 17.7458 35.6922 17.1575L33.6945 17.2526ZM33.758 19.4373C33.7735 20.3279 33.7812 21.4331 33.7812 22.7539H35.7812C35.7812 21.4263 35.7734 20.3088 35.7577 19.4025L33.758 19.4373ZM33.7812 22.7539C33.7812 22.6763 33.7946 22.5808 33.8352 22.4792C33.8763 22.3764 33.9364 22.29 34.0038 22.2226L35.418 23.6368C35.6647 23.3901 35.7812 23.0716 35.7812 22.7539H33.7812ZM34.0038 22.2226C34.0657 22.1607 34.1482 22.1009 34.2509 22.0584C34.3536 22.0159 34.454 22 34.541 22V24C34.8721 24 35.1833 23.8716 35.418 23.6368L34.0038 22.2226ZM34.541 22H33.2051V24H34.541V22ZM33.2051 22C33.2921 22 33.3924 22.0159 33.4951 22.0584C33.5979 22.1009 33.6804 22.1607 33.7423 22.2226L32.328 23.6368C32.5628 23.8716 32.874 24 33.2051 24V22ZM33.7423 22.2226C33.8151 22.2954 33.8754 22.3858 33.915 22.4881C33.9537 22.5882 33.9648 22.6792 33.9648 22.748H31.9648C31.9648 23.0528 32.0705 23.3792 32.328 23.6368L33.7423 22.2226ZM33.9648 22.748C33.9648 22.746 33.9648 22.744 33.9648 22.742C33.9648 22.74 33.9648 22.738 33.9648 22.736C33.9648 22.734 33.9648 22.7319 33.9648 22.7299C33.9648 22.7279 33.9648 22.7259 33.9648 22.7239C33.9648 22.7219 33.9648 22.7199 33.9648 22.7179C33.9648 22.7159 33.9648 22.7139 33.9648 22.7119C33.9648 22.7098 33.9648 22.7078 33.9648 22.7058C33.9648 22.7038 33.9648 22.7018 33.9648 22.6998C33.9648 22.6978 33.9648 22.6958 33.9648 22.6938C33.9648 22.6918 33.9648 22.6898 33.9648 22.6878C33.9648 22.6858 33.9648 22.6838 33.9648 22.6818C33.9648 22.6798 33.9648 22.6778 33.9648 22.6758C33.9648 22.6738 33.9648 22.6718 33.9648 22.6698C33.9648 22.6678 33.9648 22.6658 33.9648 22.6638C33.9648 22.6618 33.9648 22.6598 33.9648 22.6578C33.9648 22.6558 33.9648 22.6538 33.9648 22.6518C33.9648 22.6498 33.9648 22.6478 33.9648 22.6458C33.9648 22.6438 33.9648 22.6419 33.9648 22.6399C33.9648 22.6379 33.9648 22.6359 33.9648 22.6339C33.9648 22.6319 33.9648 22.6299 33.9648 22.6279C33.9648 22.6259 33.9648 22.6239 33.9648 22.6219C33.9648 22.62 33.9648 22.618 33.9648 22.616C33.9648 22.614 33.9648 22.612 33.9648 22.61C33.9648 22.608 33.9648 22.606 33.9648 22.6041C33.9648 22.6021 33.9648 22.6001 33.9648 22.5981C33.9648 22.5961 33.9648 22.5941 33.9648 22.5922C33.9648 22.5902 33.9648 22.5882 33.9648 22.5862C33.9648 22.5842 33.9648 22.5822 33.9648 22.5803C33.9648 22.5783 33.9648 22.5763 33.9648 22.5743C33.9648 22.5723 33.9648 22.5704 33.9648 22.5684C33.9648 22.5664 33.9648 22.5644 33.9648 22.5624C33.9648 22.5605 33.9648 22.5585 33.9648 22.5565C33.9648 22.5545 33.9648 22.5526 33.9648 22.5506C33.9648 22.5486 33.9648 22.5466 33.9648 22.5447C33.9648 22.5427 33.9648 22.5407 33.9648 22.5388C33.9648 22.5368 33.9648 22.5348 33.9648 22.5328C33.9648 22.5309 33.9648 22.5289 33.9648 22.5269C33.9648 22.525 33.9648 22.523 33.9648 22.521C33.9648 22.519 33.9648 22.5171 33.9648 22.5151C33.9648 22.5131 33.9648 22.5112 33.9648 22.5092C33.9648 22.5072 33.9648 22.5053 33.9648 22.5033C33.9648 22.5013 33.9648 22.4994 33.9648 22.4974C33.9648 22.4955 33.9648 22.4935 33.9648 22.4915C33.9648 22.4896 33.9648 22.4876 33.9648 22.4856C33.9648 22.4837 33.9648 22.4817 33.9648 22.4798C33.9648 22.4778 33.9648 22.4758 33.9648 22.4739C33.9648 22.4719 33.9648 22.47 33.9648 22.468C33.9648 22.466 33.9648 22.4641 33.9648 22.4621C33.9648 22.4602 33.9648 22.4582 33.9648 22.4563C33.9648 22.4543 33.9648 22.4523 33.9648 22.4504C33.9648 22.4484 33.9648 22.4465 33.9648 22.4445C33.9648 22.4426 33.9648 22.4406 33.9648 22.4387C33.9648 22.4367 33.9648 22.4348 33.9648 22.4328C33.9648 22.4309 33.9648 22.4289 33.9648 22.427C33.9648 22.425 33.9648 22.4231 33.9648 22.4211C33.9648 22.4192 33.9648 22.4172 33.9648 22.4153C33.9648 22.4133 33.9648 22.4114 33.9648 22.4094C33.9648 22.4075 33.9648 22.4055 33.9648 22.4036C33.9648 22.4017 33.9648 22.3997 33.9648 22.3978C33.9648 22.3958 33.9648 22.3939 33.9648 22.3919C33.9648 22.39 33.9648 22.3881 33.9648 22.3861C33.9648 22.3842 33.9648 22.3822 33.9648 22.3803C33.9648 22.3783 33.9648 22.3764 33.9648 22.3745C33.9648 22.3725 33.9648 22.3706 33.9648 22.3687C33.9648 22.3667 33.9648 22.3648 33.9648 22.3628C33.9648 22.3609 33.9648 22.359 33.9648 22.357C33.9648 22.3551 33.9648 22.3532 33.9648 22.3512C33.9648 22.3493 33.9648 22.3474 33.9648 22.3454C33.9648 22.3435 33.9648 22.3416 33.9648 22.3396C33.9648 22.3377 33.9648 22.3358 33.9648 22.3338C33.9648 22.3319 33.9648 22.33 33.9648 22.328C33.9648 22.3261 33.9648 22.3242 33.9648 22.3223C33.9648 22.3203 33.9648 22.3184 33.9648 22.3165C33.9648 22.3145 33.9648 22.3126 33.9648 22.3107C33.9648 22.3088 33.9648 22.3068 33.9648 22.3049C33.9648 22.303 33.9648 22.3011 33.9648 22.2991C33.9648 22.2972 33.9648 22.2953 33.9648 22.2934C33.9648 22.2915 33.9648 22.2895 33.9648 22.2876C33.9648 22.2857 33.9648 22.2838 33.9648 22.2819C33.9648 22.2799 33.9648 22.278 33.9648 22.2761C33.9648 22.2742 33.9648 22.2723 33.9648 22.2703C33.9648 22.2684 33.9648 22.2665 33.9648 22.2646C33.9648 22.2627 33.9648 22.2608 33.9648 22.2588C33.9648 22.2569 33.9648 22.255 33.9648 22.2531C33.9648 22.2512 33.9648 22.2493 33.9648 22.2474C33.9648 22.2454 33.9648 22.2435 33.9648 22.2416C33.9648 22.2397 33.9648 22.2378 33.9648 22.2359C33.9648 22.234 33.9648 22.2321 33.9648 22.2302C33.9648 22.2282 33.9648 22.2263 33.9648 22.2244C33.9648 22.2225 33.9648 22.2206 33.9648 22.2187C33.9648 22.2168 33.9648 22.2149 33.9648 22.213C33.9648 22.2111 33.9648 22.2092 33.9648 22.2073C33.9648 22.2054 33.9648 22.2035 33.9648 22.2016C33.9648 22.1997 33.9648 22.1978 33.9648 22.1959C33.9648 22.194 33.9648 22.192 33.9648 22.1901C33.9648 22.1882 33.9648 22.1863 33.9648 22.1844C33.9648 22.1825 33.9648 22.1806 33.9648 22.1788C33.9648 22.1769 33.9648 22.175 33.9648 22.1731C33.9648 22.1712 33.9648 22.1693 33.9648 22.1674C33.9648 22.1655 33.9648 22.1636 33.9648 22.1617C33.9648 22.1598 33.9648 22.1579 33.9648 22.156C33.9648 22.1541 33.9648 22.1522 33.9648 22.1503C33.9648 22.1484 33.9648 22.1465 33.9648 22.1446C33.9648 22.1428 33.9648 22.1409 33.9648 22.139C33.9648 22.1371 33.9648 22.1352 33.9648 22.1333C33.9648 22.1314 33.9648 22.1295 33.9648 22.1276C33.9648 22.1257 33.9648 22.1239 33.9648 22.122C33.9648 22.1201 33.9648 22.1182 33.9648 22.1163C33.9648 22.1144 33.9648 22.1125 33.9648 22.1107C33.9648 22.1088 33.9648 22.1069 33.9648 22.105C33.9648 22.1031 33.9648 22.1012 33.9648 22.0994C33.9648 22.0975 33.9648 22.0956 33.9648 22.0937C33.9648 22.0918 33.9648 22.09 33.9648 22.0881C33.9648 22.0862 33.9648 22.0843 33.9648 22.0824C33.9648 22.0806 33.9648 22.0787 33.9648 22.0768C33.9648 22.0749 33.9648 22.0731 33.9648 22.0712C33.9648 22.0693 33.9648 22.0674 33.9648 22.0656C33.9648 22.0637 33.9648 22.0618 33.9648 22.0599C33.9648 22.0581 33.9648 22.0562 33.9648 22.0543C33.9648 22.0524 33.9648 22.0506 33.9648 22.0487C33.9648 22.0468 33.9648 22.045 33.9648 22.0431C33.9648 22.0412 33.9648 22.0393 33.9648 22.0375C33.9648 22.0356 33.9648 22.0337 33.9648 22.0319C33.9648 22.03 33.9648 22.0281 33.9648 22.0263C33.9648 22.0244 33.9648 22.0225 33.9648 22.0207C33.9648 22.0188 33.9648 22.0169 33.9648 22.0151C33.9648 22.0132 33.9648 22.0114 33.9648 22.0095C33.9648 22.0076 33.9648 22.0058 33.9648 22.0039C33.9648 22.002 33.9648 22.0002 33.9648 21.9983C33.9648 21.9965 33.9648 21.9946 33.9648 21.9927C33.9648 21.9909 33.9648 21.989 33.9648 21.9872C33.9648 21.9853 33.9648 21.9835 33.9648 21.9816C33.9648 21.9797 33.9648 21.9779 33.9648 21.976C33.9648 21.9742 33.9648 21.9723 33.9648 21.9705C33.9648 21.9686 33.9648 21.9668 33.9648 21.9649C33.9648 21.963 33.9648 21.9612 33.9648 21.9593C33.9648 21.9575 33.9648 21.9556 33.9648 21.9538C33.9648 21.9519 33.9648 21.9501 33.9648 21.9482C33.9648 21.9464 33.9648 21.9445 33.9648 21.9427C33.9648 21.9408 33.9648 21.939 33.9648 21.9371C33.9648 21.9353 33.9648 21.9335 33.9648 21.9316C33.9648 21.9298 33.9648 21.9279 33.9648 21.9261C33.9648 21.9242 33.9648 21.9224 33.9648 21.9205C33.9648 21.9187 33.9648 21.9169 33.9648 21.915C33.9648 21.9132 33.9648 21.9113 33.9648 21.9095C33.9648 21.9076 33.9648 21.9058 33.9648 21.904C33.9648 21.9021 33.9648 21.9003 33.9648 21.8984C33.9648 21.8966 33.9648 21.8948 33.9648 21.8929C33.9648 21.8911 33.9648 21.8893 33.9648 21.8874C33.9648 21.8856 33.9648 21.8837 33.9648 21.8819C33.9648 21.8801 33.9648 21.8782 33.9648 21.8764C33.9648 21.8746 33.9648 21.8727 33.9648 21.8709C33.9648 21.8691 33.9648 21.8672 33.9648 21.8654C33.9648 21.8636 33.9648 21.8617 33.9648 21.8599C33.9648 21.8581 33.9648 21.8563 33.9648 21.8544C33.9648 21.8526 33.9648 21.8508 33.9648 21.8489C33.9648 21.8471 33.9648 21.8453 33.9648 21.8435C33.9648 21.8416 33.9648 21.8398 33.9648 21.838C33.9648 21.8361 33.9648 21.8343 33.9648 21.8325C33.9648 21.8307 33.9648 21.8288 33.9648 21.827C33.9648 21.8252 33.9648 21.8234 33.9648 21.8216C33.9648 21.8197 33.9648 21.8179 33.9648 21.8161C33.9648 21.8143 33.9648 21.8125 33.9648 21.8106C33.9648 21.8088 33.9648 21.807 33.9648 21.8052C33.9648 21.8034 33.9648 21.8015 33.9648 21.7997C33.9648 21.7979 33.9648 21.7961 33.9648 21.7943C33.9648 21.7925 33.9648 21.7906 33.9648 21.7888C33.9648 21.787 33.9648 21.7852 33.9648 21.7834C33.9648 21.7816 33.9648 21.7798 33.9648 21.7779C33.9648 21.7761 33.9648 21.7743 33.9648 21.7725C33.9648 21.7707 33.9648 21.7689 33.9648 21.7671C33.9648 21.7653 33.9648 21.7634 33.9648 21.7616C33.9648 21.7598 33.9648 21.758 33.9648 21.7562C33.9648 21.7544 33.9648 21.7526 33.9648 21.7508C33.9648 21.749 33.9648 21.7472 33.9648 21.7454C33.9648 21.7436 33.9648 21.7418 33.9648 21.74C33.9648 21.7382 33.9648 21.7364 33.9648 21.7345C33.9648 21.7327 33.9648 21.7309 33.9648 21.7291C33.9648 21.7273 33.9648 21.7255 33.9648 21.7237C33.9648 21.7219 33.9648 21.7201 33.9648 21.7183C33.9648 21.7165 33.9648 21.7147 33.9648 21.7129C33.9648 21.7111 33.9648 21.7093 33.9648 21.7075C33.9648 21.7057 33.9648 21.704 33.9648 21.7022C33.9648 21.7004 33.9648 21.6986 33.9648 21.6968C33.9648 21.695 33.9648 21.6932 33.9648 21.6914C33.9648 21.6896 33.9648 21.6878 33.9648 21.686C33.9648 21.6842 33.9648 21.6824 33.9648 21.6806C33.9648 21.6788 33.9648 21.6771 33.9648 21.6753C33.9648 21.6735 33.9648 21.6717 33.9648 21.6699C33.9648 21.6681 33.9648 21.6663 33.9648 21.6645C33.9648 21.6627 33.9648 21.661 33.9648 21.6592C33.9648 21.6574 33.9648 21.6556 33.9648 21.6538C33.9648 21.652 33.9648 21.6502 33.9648 21.6485C33.9648 21.6467 33.9648 21.6449 33.9648 21.6431C33.9648 21.6413 33.9648 21.6395 33.9648 21.6378C33.9648 21.636 33.9648 21.6342 33.9648 21.6324C33.9648 21.6306 33.9648 21.6289 33.9648 21.6271C33.9648 21.6253 33.9648 21.6235 33.9648 21.6217C33.9648 21.62 33.9648 21.6182 33.9648 21.6164C33.9648 21.6146 33.9648 21.6129 33.9648 21.6111C33.9648 21.6093 33.9648 21.6075 33.9648 21.6058C33.9648 21.604 33.9648 21.6022 33.9648 21.6004C33.9648 21.5987 33.9648 21.5969 33.9648 21.5951C33.9648 21.5933 33.9648 21.5916 33.9648 21.5898C33.9648 21.588 33.9648 21.5863 33.9648 21.5845C33.9648 21.5827 33.9648 21.5809 33.9648 21.5792C33.9648 21.5774 33.9648 21.5756 33.9648 21.5739C33.9648 21.5721 33.9648 21.5703 33.9648 21.5686C33.9648 21.5668 33.9648 21.565 33.9648 21.5633C33.9648 21.5615 33.9648 21.5597 33.9648 21.558C33.9648 21.5562 33.9648 21.5545 33.9648 21.5527C33.9648 21.5509 33.9648 21.5492 33.9648 21.5474C33.9648 21.5456 33.9648 21.5439 33.9648 21.5421C33.9648 21.5404 33.9648 21.5386 33.9648 21.5368C33.9648 21.5351 33.9648 21.5333 33.9648 21.5316C33.9648 21.5298 33.9648 21.5281 33.9648 21.5263C33.9648 21.5245 33.9648 21.5228 33.9648 21.521C33.9648 21.5193 33.9648 21.5175 33.9648 21.5158C33.9648 21.514 33.9648 21.5123 33.9648 21.5105C33.9648 21.5088 33.9648 21.507 33.9648 21.5052C33.9648 21.5035 33.9648 21.5017 33.9648 21.5C33.9648 21.4982 33.9648 21.4965 33.9648 21.4947C33.9648 21.493 33.9648 21.4912 33.9648 21.4895C33.9648 21.4877 33.9648 21.486 33.9648 21.4843C33.9648 21.4825 33.9648 21.4808 33.9648 21.479C33.9648 21.4773 33.9648 21.4755 33.9648 21.4738C33.9648 21.472 33.9648 21.4703 33.9648 21.4685C33.9648 21.4668 33.9648 21.4651 33.9648 21.4633C33.9648 21.4616 33.9648 21.4598 33.9648 21.4581C33.9648 21.4563 33.9648 21.4546 33.9648 21.4529C33.9648 21.4511 33.9648 21.4494 33.9648 21.4477C33.9648 21.4459 33.9648 21.4442 33.9648 21.4424C33.9648 21.4407 33.9648 21.439 33.9648 21.4372C33.9648 21.4355 33.9648 21.4338 33.9648 21.432C33.9648 21.4303 33.9648 21.4285 33.9648 21.4268C33.9648 21.4251 33.9648 21.4233 33.9648 21.4216C33.9648 21.4199 33.9648 21.4181 33.9648 21.4164C33.9648 21.4147 33.9648 21.413 33.9648 21.4112C33.9648 21.4095 33.9648 21.4078 33.9648 21.406C33.9648 21.4043 33.9648 21.4026 33.9648 21.4008C33.9648 21.3991 33.9648 21.3974 33.9648 21.3957C33.9648 21.3939 33.9648 21.3922 33.9648 21.3905C33.9648 21.3888 33.9648 21.387 33.9648 21.3853C33.9648 21.3836 33.9648 21.3819 33.9648 21.3801C33.9648 21.3784 33.9648 21.3767 33.9648 21.375C33.9648 21.3733 33.9648 21.3715 33.9648 21.3698C33.9648 21.3681 33.9648 21.3664 33.9648 21.3646C33.9648 21.3629 33.9648 21.3612 33.9648 21.3595C33.9648 21.3578 33.9648 21.3561 33.9648 21.3543C33.9648 21.3526 33.9648 21.3509 33.9648 21.3492C33.9648 21.3475 33.9648 21.3458 33.9648 21.344C33.9648 21.3423 33.9648 21.3406 33.9648 21.3389C33.9648 21.3372 33.9648 21.3355 33.9648 21.3338C33.9648 21.332 33.9648 21.3303 33.9648 21.3286C33.9648 21.3269 33.9648 21.3252 33.9648 21.3235C33.9648 21.3218 33.9648 21.3201 33.9648 21.3184C33.9648 21.3167 33.9648 21.3149 33.9648 21.3132C33.9648 21.3115 33.9648 21.3098 33.9648 21.3081C33.9648 21.3064 33.9648 21.3047 33.9648 21.303C33.9648 21.3013 33.9648 21.2996 33.9648 21.2979C33.9648 21.2962 33.9648 21.2945 33.9648 21.2928C33.9648 21.2911 33.9648 21.2894 33.9648 21.2877C33.9648 21.286 33.9648 21.2843 33.9648 21.2826C33.9648 21.2809 33.9648 21.2792 33.9648 21.2775C33.9648 21.2758 33.9648 21.2741 33.9648 21.2724C33.9648 21.2707 33.9648 21.269 33.9648 21.2673C33.9648 21.2656 33.9648 21.2639 33.9648 21.2622C33.9648 21.2605 33.9648 21.2588 33.9648 21.2571C33.9648 21.2554 33.9648 21.2537 33.9648 21.252C33.9648 21.2503 33.9648 21.2486 33.9648 21.2469C33.9648 21.2452 33.9648 21.2435 33.9648 21.2419C33.9648 21.2402 33.9648 21.2385 33.9648 21.2368C33.9648 21.2351 33.9648 21.2334 33.9648 21.2317C33.9648 21.23 33.9648 21.2283 33.9648 21.2267C33.9648 21.225 33.9648 21.2233 33.9648 21.2216C33.9648 21.2199 33.9648 21.2182 33.9648 21.2165C33.9648 21.2149 33.9648 21.2132 33.9648 21.2115C33.9648 21.2098 33.9648 21.2081 33.9648 21.2064C33.9648 21.2047 33.9648 21.2031 33.9648 21.2014C33.9648 21.1997 33.9648 21.198 33.9648 21.1963C33.9648 21.1947 33.9648 21.193 33.9648 21.1913C33.9648 21.1896 33.9648 21.1879 33.9648 21.1863C33.9648 21.1846 33.9648 21.1829 33.9648 21.1812C33.9648 21.1796 33.9648 21.1779 33.9648 21.1762C33.9648 21.1745 33.9648 21.1729 33.9648 21.1712C33.9648 21.1695 33.9648 21.1678 33.9648 21.1662C33.9648 21.1645 33.9648 21.1628 33.9648 21.1611C33.9648 21.1595 33.9648 21.1578 33.9648 21.1561C33.9648 21.1545 33.9648 21.1528 33.9648 21.1511C33.9648 21.1494 33.9648 21.1478 33.9648 21.1461C33.9648 21.1444 33.9648 21.1428 33.9648 21.1411C33.9648 21.1394 33.9648 21.1378 33.9648 21.1361C33.9648 21.1344 33.9648 21.1328 33.9648 21.1311C33.9648 21.1294 33.9648 21.1278 33.9648 21.1261C33.9648 21.1245 33.9648 21.1228 33.9648 21.1211C33.9648 21.1195 33.9648 21.1178 33.9648 21.1161C33.9648 21.1145 33.9648 21.1128 33.9648 21.1112C33.9648 21.1095 33.9648 21.1078 33.9648 21.1062C33.9648 21.1045 33.9648 21.1029 33.9648 21.1012C33.9648 21.0995 33.9648 21.0979 33.9648 21.0962C33.9648 21.0946 33.9648 21.0929 33.9648 21.0913C33.9648 21.0896 33.9648 21.088 33.9648 21.0863C33.9648 21.0846 33.9648 21.083 33.9648 21.0813C33.9648 21.0797 33.9648 21.078 33.9648 21.0764C33.9648 21.0747 33.9648 21.0731 33.9648 21.0714C33.9648 21.0698 33.9648 21.0681 33.9648 21.0665C33.9648 21.0648 33.9648 21.0632 33.9648 21.0615C33.9648 21.0599 33.9648 21.0582 33.9648 21.0566C33.9648 21.0549 33.9648 21.0533 33.9648 21.0517C33.9648 21.05 33.9648 21.0484 33.9648 21.0467C33.9648 21.0451 33.9648 21.0434 33.9648 21.0418C33.9648 21.0401 33.9648 21.0385 33.9648 21.0369C33.9648 21.0352 33.9648 21.0336 33.9648 21.0319C33.9648 21.0303 33.9648 21.0287 33.9648 21.027C33.9648 21.0254 33.9648 21.0237 33.9648 21.0221C33.9648 21.0205 33.9648 21.0188 33.9648 21.0172C33.9648 21.0155 33.9648 21.0139 33.9648 21.0123C33.9648 21.0106 33.9648 21.009 33.9648 21.0074C33.9648 21.0057 33.9648 21.0041 33.9648 21.0025C33.9648 21.0008 33.9648 20.9992 33.9648 20.9976C33.9648 20.9959 33.9648 20.9943 33.9648 20.9927C33.9648 20.991 33.9648 20.9894 33.9648 20.9878C33.9648 20.9861 33.9648 20.9845 33.9648 20.9829C33.9648 20.9813 33.9648 20.9796 33.9648 20.978C33.9648 20.9764 33.9648 20.9747 33.9648 20.9731C33.9648 20.9715 33.9648 20.9699 33.9648 20.9682C33.9648 20.9666 33.9648 20.965 33.9648 20.9634C33.9648 20.9617 33.9648 20.9601 33.9648 20.9585C33.9648 20.9569 33.9648 20.9552 33.9648 20.9536C33.9648 20.952 33.9648 20.9504 33.9648 20.9488C33.9648 20.9471 33.9648 20.9455 33.9648 20.9439C33.9648 20.9423 33.9648 20.9407 33.9648 20.939C33.9648 20.9374 33.9648 20.9358 33.9648 20.9342C33.9648 20.9326 33.9648 20.931 33.9648 20.9293C33.9648 20.9277 33.9648 20.9261 33.9648 20.9245C33.9648 20.9229 33.9648 20.9213 33.9648 20.9196C33.9648 20.918 33.9648 20.9164 33.9648 20.9148C33.9648 20.9132 33.9648 20.9116 33.9648 20.91C33.9648 20.9084 33.9648 20.9068 33.9648 20.9051C33.9648 20.9035 33.9648 20.9019 33.9648 20.9003C33.9648 20.8987 33.9648 20.8971 33.9648 20.8955C33.9648 20.8939 33.9648 20.8923 33.9648 20.8907C33.9648 20.8891 33.9648 20.8875 33.9648 20.8858C33.9648 20.8842 33.9648 20.8826 33.9648 20.881C33.9648 20.8794 33.9648 20.8778 33.9648 20.8762C33.9648 20.8746 33.9648 20.873 33.9648 20.8714C33.9648 20.8698 33.9648 20.8682 33.9648 20.8666C33.9648 20.865 33.9648 20.8634 33.9648 20.8618C33.9648 20.8602 33.9648 20.8586 33.9648 20.857C33.9648 20.8554 33.9648 20.8538 33.9648 20.8522C33.9648 20.8506 33.9648 20.849 33.9648 20.8474C33.9648 20.8458 33.9648 20.8442 33.9648 20.8427C33.9648 20.8411 33.9648 20.8395 33.9648 20.8379C33.9648 20.8363 33.9648 20.8347 33.9648 20.8331C33.9648 20.8315 33.9648 20.8299 33.9648 20.8283C33.9648 20.8267 33.9648 20.8251 33.9648 20.8235C33.9648 20.822 33.9648 20.8204 33.9648 20.8188C33.9648 20.8172 33.9648 20.8156 33.9648 20.814C33.9648 20.8124 33.9648 20.8108 33.9648 20.8093C33.9648 20.8077 33.9648 20.8061 33.9648 20.8045C33.9648 20.8029 33.9648 20.8013 33.9648 20.7997C33.9648 20.7982 33.9648 20.7966 33.9648 20.795C33.9648 20.7934 33.9648 20.7918 33.9648 20.7902C33.9648 20.7887 33.9648 20.7871 33.9648 20.7855C33.9648 20.7839 33.9648 20.7823 33.9648 20.7808C33.9648 20.7792 33.9648 20.7776 33.9648 20.776C33.9648 20.7745 33.9648 20.7729 33.9648 20.7713C33.9648 20.7697 33.9648 20.7681 33.9648 20.7666C33.9648 20.765 33.9648 20.7634 33.9648 20.7618C33.9648 20.7603 33.9648 20.7587 33.9648 20.7571C33.9648 20.7556 33.9648 20.754 33.9648 20.7524C33.9648 20.7508 33.9648 20.7493 33.9648 20.7477C33.9648 20.7461 33.9648 20.7446 33.9648 20.743C33.9648 20.7414 33.9648 20.7398 33.9648 20.7383C33.9648 20.7367 33.9648 20.7351 33.9648 20.7336C33.9648 20.732 33.9648 20.7304 33.9648 20.7289C33.9648 20.7273 33.9648 20.7257 33.9648 20.7242C33.9648 20.7226 33.9648 20.721 33.9648 20.7195C33.9648 20.7179 33.9648 20.7164 33.9648 20.7148C33.9648 20.7132 33.9648 20.7117 33.9648 20.7101C33.9648 20.7086 33.9648 20.707 33.9648 20.7054C33.9648 20.7039 33.9648 20.7023 33.9648 20.7008C33.9648 20.6992 33.9648 20.6976 33.9648 20.6961C33.9648 20.6945 33.9648 20.693 33.9648 20.6914C33.9648 20.6898 33.9648 20.6883 33.9648 20.6867C33.9648 20.6852 33.9648 20.6836 33.9648 20.6821C33.9648 20.6805 33.9648 20.679 33.9648 20.6774C33.9648 20.6759 33.9648 20.6743 33.9648 20.6728C33.9648 20.6712 33.9648 20.6697 33.9648 20.6681C33.9648 20.6666 33.9648 20.665 33.9648 20.6635C33.9648 20.6619 33.9648 20.6604 33.9648 20.6588C33.9648 20.6573 33.9648 20.6557 33.9648 20.6542C33.9648 20.6526 33.9648 20.6511 33.9648 20.6495C33.9648 20.648 33.9648 20.6464 33.9648 20.6449C33.9648 20.6433 33.9648 20.6418 33.9648 20.6403C33.9648 20.6387 33.9648 20.6372 33.9648 20.6356C33.9648 20.6341 33.9648 20.6326 33.9648 20.631C33.9648 20.6295 33.9648 20.6279 33.9648 20.6264C33.9648 20.6248 33.9648 20.6233 33.9648 20.6218C33.9648 20.6202 33.9648 20.6187 33.9648 20.6172C33.9648 20.6156 33.9648 20.6141 33.9648 20.6125C33.9648 20.611 33.9648 20.6095 33.9648 20.6079C33.9648 20.6064 33.9648 20.6049 33.9648 20.6033C33.9648 20.6018 33.9648 20.6003 33.9648 20.5987C33.9648 20.5972 33.9648 20.5957 33.9648 20.5941C33.9648 20.5926 33.9648 20.5911 33.9648 20.5896C33.9648 20.588 33.9648 20.5865 33.9648 20.585C33.9648 20.5834 33.9648 20.5819 33.9648 20.5804C33.9648 20.5788 33.9648 20.5773 33.9648 20.5758C33.9648 20.5743 33.9648 20.5727 33.9648 20.5712C33.9648 20.5697 33.9648 20.5682 33.9648 20.5666C33.9648 20.5651 33.9648 20.5636 33.9648 20.5621C33.9648 20.5605 33.9648 20.559 33.9648 20.5575C33.9648 20.556 33.9648 20.5545 33.9648 20.5529C33.9648 20.5514 33.9648 20.5499 33.9648 20.5484C33.9648 20.5469 33.9648 20.5453 33.9648 20.5438C33.9648 20.5423 33.9648 20.5408 33.9648 20.5393C33.9648 20.5378 33.9648 20.5362 33.9648 20.5347C33.9648 20.5332 33.9648 20.5317 33.9648 20.5302C33.9648 20.5287 33.9648 20.5271 33.9648 20.5256C33.9648 20.5241 33.9648 20.5226 33.9648 20.5211C33.9648 20.5196 33.9648 20.5181 33.9648 20.5166C33.9648 20.515 33.9648 20.5135 33.9648 20.512C33.9648 20.5105 33.9648 20.509 33.9648 20.5075C33.9648 20.506 33.9648 20.5045 33.9648 20.503C33.9648 20.5015 33.9648 20.5 33.9648 20.4985C33.9648 20.4969 33.9648 20.4954 33.9648 20.4939C33.9648 20.4924 33.9648 20.4909 33.9648 20.4894C33.9648 20.4879 33.9648 20.4864 33.9648 20.4849C33.9648 20.4834 33.9648 20.4819 33.9648 20.4804C33.9648 20.4789 33.9648 20.4774 33.9648 20.4759C33.9648 20.4744 33.9648 20.4729 33.9648 20.4714C33.9648 20.4699 33.9648 20.4684 33.9648 20.4669C33.9648 20.4654 33.9648 20.4639 33.9648 20.4624C33.9648 20.4609 33.9648 20.4594 33.9648 20.4579C33.9648 20.4564 33.9648 20.4549 33.9648 20.4534C33.9648 20.4519 33.9648 20.4505 33.9648 20.449C33.9648 20.4475 33.9648 20.446 33.9648 20.4445C33.9648 20.443 33.9648 20.4415 33.9648 20.44C33.9648 20.4385 33.9648 20.437 33.9648 20.4355C33.9648 20.434 33.9648 20.4326 33.9648 20.4311C33.9648 20.4296 33.9648 20.4281 33.9648 20.4266C33.9648 20.4251 33.9648 20.4236 33.9648 20.4221C33.9648 20.4207 33.9648 20.4192 33.9648 20.4177C33.9648 20.4162 33.9648 20.4147 33.9648 20.4132C33.9648 20.4118 33.9648 20.4103 33.9648 20.4088C33.9648 20.4073 33.9648 20.4058 33.9648 20.4043C33.9648 20.4029 33.9648 20.4014 33.9648 20.3999C33.9648 20.3984 33.9648 20.3969 33.9648 20.3955C33.9648 20.394 33.9648 20.3925 33.9648 20.391C33.9648 20.3896 33.9648 20.3881 33.9648 20.3866C33.9648 20.3851 33.9648 20.3836 33.9648 20.3822C33.9648 20.3807 33.9648 20.3792 33.9648 20.3777C33.9648 20.3763 33.9648 20.3748 33.9648 20.3733C33.9648 20.3719 33.9648 20.3704 33.9648 20.3689C33.9648 20.3674 33.9648 20.366 33.9648 20.3645C33.9648 20.363 33.9648 20.3616 33.9648 20.3601C33.9648 20.3586 33.9648 20.3571 33.9648 20.3557C33.9648 20.3542 33.9648 20.3527 33.9648 20.3513C33.9648 20.3498 33.9648 20.3483 33.9648 20.3469C33.9648 20.3454 33.9648 20.3439 33.9648 20.3425C33.9648 20.341 33.9648 20.3396 33.9648 20.3381C33.9648 20.3366 33.9648 20.3352 33.9648 20.3337C33.9648 20.3322 33.9648 20.3308 33.9648 20.3293C33.9648 20.3279 33.9648 20.3264 33.9648 20.3249C33.9648 20.3235 33.9648 20.322 33.9648 20.3206C33.9648 20.3191 33.9648 20.3176 33.9648 20.3162C33.9648 20.3147 33.9648 20.3133 33.9648 20.3118C33.9648 20.3104 33.9648 20.3089 33.9648 20.3074C33.9648 20.306 33.9648 20.3045 33.9648 20.3031C33.9648 20.3016 33.9648 20.3002 33.9648 20.2987C33.9648 20.2973 33.9648 20.2958 33.9648 20.2944C33.9648 20.2929 33.9648 20.2915 33.9648 20.29C33.9648 20.2886 33.9648 20.2871 33.9648 20.2857C33.9648 20.2842 33.9648 20.2828 33.9648 20.2813C33.9648 20.2799 33.9648 20.2784 33.9648 20.277C33.9648 20.2755 33.9648 20.2741 33.9648 20.2726C33.9648 20.2712 33.9648 20.2697 33.9648 20.2683C33.9648 20.2669 33.9648 20.2654 33.9648 20.264C33.9648 20.2625 33.9648 20.2611 33.9648 20.2596C33.9648 20.2582 33.9648 20.2568 33.9648 20.2553C33.9648 20.2539 33.9648 20.2524 33.9648 20.251C33.9648 20.2496 33.9648 20.2481 33.9648 20.2467C33.9648 20.2452 33.9648 20.2438 33.9648 20.2424C33.9648 20.2409 33.9648 20.2395 33.9648 20.2381C33.9648 20.2366 33.9648 20.2352 33.9648 20.2338C33.9648 20.2323 33.9648 20.2309 33.9648 20.2295C33.9648 20.228 33.9648 20.2266 33.9648 20.2252C33.9648 20.2237 33.9648 20.2223 33.9648 20.2209C33.9648 20.2194 33.9648 20.218 33.9648 20.2166C33.9648 20.2151 33.9648 20.2137 33.9648 20.2123C33.9648 20.2108 33.9648 20.2094 33.9648 20.208C33.9648 20.2066 33.9648 20.2051 33.9648 20.2037C33.9648 20.2023 33.9648 20.2009 33.9648 20.1994C33.9648 20.198 33.9648 20.1966 33.9648 20.1952C33.9648 20.1937 33.9648 20.1923 33.9648 20.1909C33.9648 20.1895 33.9648 20.188 33.9648 20.1866C33.9648 20.1852 33.9648 20.1838 33.9648 20.1824C33.9648 20.1809 33.9648 20.1795 33.9648 20.1781C33.9648 20.1767 33.9648 20.1753 33.9648 20.1738C33.9648 20.1724 33.9648 20.171 33.9648 20.1696C33.9648 20.1682 33.9648 20.1668 33.9648 20.1653C33.9648 20.1639 33.9648 20.1625 33.9648 20.1611C33.9648 20.1597 33.9648 20.1583 33.9648 20.1569C33.9648 20.1554 33.9648 20.154 33.9648 20.1526C33.9648 20.1512 33.9648 20.1498 33.9648 20.1484C33.9648 20.147 33.9648 20.1456 33.9648 20.1441C33.9648 20.1427 33.9648 20.1413 33.9648 20.1399C33.9648 20.1385 33.9648 20.1371 33.9648 20.1357C33.9648 20.1343 33.9648 20.1329 33.9648 20.1315C33.9648 20.1301 33.9648 20.1287 33.9648 20.1273C33.9648 20.1259 33.9648 20.1245 33.9648 20.123H31.9648C31.9648 20.1245 31.9648 20.1259 31.9648 20.1273C31.9648 20.1287 31.9648 20.1301 31.9648 20.1315C31.9648 20.1329 31.9648 20.1343 31.9648 20.1357C31.9648 20.1371 31.9648 20.1385 31.9648 20.1399C31.9648 20.1413 31.9648 20.1427 31.9648 20.1441C31.9648 20.1456 31.9648 20.147 31.9648 20.1484C31.9648 20.1498 31.9648 20.1512 31.9648 20.1526C31.9648 20.154 31.9648 20.1554 31.9648 20.1569C31.9648 20.1583 31.9648 20.1597 31.9648 20.1611C31.9648 20.1625 31.9648 20.1639 31.9648 20.1653C31.9648 20.1668 31.9648 20.1682 31.9648 20.1696C31.9648 20.171 31.9648 20.1724 31.9648 20.1738C31.9648 20.1753 31.9648 20.1767 31.9648 20.1781C31.9648 20.1795 31.9648 20.1809 31.9648 20.1824C31.9648 20.1838 31.9648 20.1852 31.9648 20.1866C31.9648 20.188 31.9648 20.1895 31.9648 20.1909C31.9648 20.1923 31.9648 20.1937 31.9648 20.1952C31.9648 20.1966 31.9648 20.198 31.9648 20.1994C31.9648 20.2009 31.9648 20.2023 31.9648 20.2037C31.9648 20.2051 31.9648 20.2066 31.9648 20.208C31.9648 20.2094 31.9648 20.2108 31.9648 20.2123C31.9648 20.2137 31.9648 20.2151 31.9648 20.2166C31.9648 20.218 31.9648 20.2194 31.9648 20.2209C31.9648 20.2223 31.9648 20.2237 31.9648 20.2252C31.9648 20.2266 31.9648 20.228 31.9648 20.2295C31.9648 20.2309 31.9648 20.2323 31.9648 20.2338C31.9648 20.2352 31.9648 20.2366 31.9648 20.2381C31.9648 20.2395 31.9648 20.2409 31.9648 20.2424C31.9648 20.2438 31.9648 20.2452 31.9648 20.2467C31.9648 20.2481 31.9648 20.2496 31.9648 20.251C31.9648 20.2524 31.9648 20.2539 31.9648 20.2553C31.9648 20.2568 31.9648 20.2582 31.9648 20.2596C31.9648 20.2611 31.9648 20.2625 31.9648 20.264C31.9648 20.2654 31.9648 20.2669 31.9648 20.2683C31.9648 20.2697 31.9648 20.2712 31.9648 20.2726C31.9648 20.2741 31.9648 20.2755 31.9648 20.277C31.9648 20.2784 31.9648 20.2799 31.9648 20.2813C31.9648 20.2828 31.9648 20.2842 31.9648 20.2857C31.9648 20.2871 31.9648 20.2886 31.9648 20.29C31.9648 20.2915 31.9648 20.2929 31.9648 20.2944C31.9648 20.2958 31.9648 20.2973 31.9648 20.2987C31.9648 20.3002 31.9648 20.3016 31.9648 20.3031C31.9648 20.3045 31.9648 20.306 31.9648 20.3074C31.9648 20.3089 31.9648 20.3104 31.9648 20.3118C31.9648 20.3133 31.9648 20.3147 31.9648 20.3162C31.9648 20.3176 31.9648 20.3191 31.9648 20.3206C31.9648 20.322 31.9648 20.3235 31.9648 20.3249C31.9648 20.3264 31.9648 20.3279 31.9648 20.3293C31.9648 20.3308 31.9648 20.3322 31.9648 20.3337C31.9648 20.3352 31.9648 20.3366 31.9648 20.3381C31.9648 20.3396 31.9648 20.341 31.9648 20.3425C31.9648 20.3439 31.9648 20.3454 31.9648 20.3469C31.9648 20.3483 31.9648 20.3498 31.9648 20.3513C31.9648 20.3527 31.9648 20.3542 31.9648 20.3557C31.9648 20.3571 31.9648 20.3586 31.9648 20.3601C31.9648 20.3616 31.9648 20.363 31.9648 20.3645C31.9648 20.366 31.9648 20.3674 31.9648 20.3689C31.9648 20.3704 31.9648 20.3719 31.9648 20.3733C31.9648 20.3748 31.9648 20.3763 31.9648 20.3777C31.9648 20.3792 31.9648 20.3807 31.9648 20.3822C31.9648 20.3836 31.9648 20.3851 31.9648 20.3866C31.9648 20.3881 31.9648 20.3896 31.9648 20.391C31.9648 20.3925 31.9648 20.394 31.9648 20.3955C31.9648 20.3969 31.9648 20.3984 31.9648 20.3999C31.9648 20.4014 31.9648 20.4029 31.9648 20.4043C31.9648 20.4058 31.9648 20.4073 31.9648 20.4088C31.9648 20.4103 31.9648 20.4118 31.9648 20.4132C31.9648 20.4147 31.9648 20.4162 31.9648 20.4177C31.9648 20.4192 31.9648 20.4207 31.9648 20.4221C31.9648 20.4236 31.9648 20.4251 31.9648 20.4266C31.9648 20.4281 31.9648 20.4296 31.9648 20.4311C31.9648 20.4326 31.9648 20.434 31.9648 20.4355C31.9648 20.437 31.9648 20.4385 31.9648 20.44C31.9648 20.4415 31.9648 20.443 31.9648 20.4445C31.9648 20.446 31.9648 20.4475 31.9648 20.449C31.9648 20.4505 31.9648 20.4519 31.9648 20.4534C31.9648 20.4549 31.9648 20.4564 31.9648 20.4579C31.9648 20.4594 31.9648 20.4609 31.9648 20.4624C31.9648 20.4639 31.9648 20.4654 31.9648 20.4669C31.9648 20.4684 31.9648 20.4699 31.9648 20.4714C31.9648 20.4729 31.9648 20.4744 31.9648 20.4759C31.9648 20.4774 31.9648 20.4789 31.9648 20.4804C31.9648 20.4819 31.9648 20.4834 31.9648 20.4849C31.9648 20.4864 31.9648 20.4879 31.9648 20.4894C31.9648 20.4909 31.9648 20.4924 31.9648 20.4939C31.9648 20.4954 31.9648 20.4969 31.9648 20.4985C31.9648 20.5 31.9648 20.5015 31.9648 20.503C31.9648 20.5045 31.9648 20.506 31.9648 20.5075C31.9648 20.509 31.9648 20.5105 31.9648 20.512C31.9648 20.5135 31.9648 20.515 31.9648 20.5166C31.9648 20.5181 31.9648 20.5196 31.9648 20.5211C31.9648 20.5226 31.9648 20.5241 31.9648 20.5256C31.9648 20.5271 31.9648 20.5287 31.9648 20.5302C31.9648 20.5317 31.9648 20.5332 31.9648 20.5347C31.9648 20.5362 31.9648 20.5378 31.9648 20.5393C31.9648 20.5408 31.9648 20.5423 31.9648 20.5438C31.9648 20.5453 31.9648 20.5469 31.9648 20.5484C31.9648 20.5499 31.9648 20.5514 31.9648 20.5529C31.9648 20.5545 31.9648 20.556 31.9648 20.5575C31.9648 20.559 31.9648 20.5605 31.9648 20.5621C31.9648 20.5636 31.9648 20.5651 31.9648 20.5666C31.9648 20.5682 31.9648 20.5697 31.9648 20.5712C31.9648 20.5727 31.9648 20.5743 31.9648 20.5758C31.9648 20.5773 31.9648 20.5788 31.9648 20.5804C31.9648 20.5819 31.9648 20.5834 31.9648 20.585C31.9648 20.5865 31.9648 20.588 31.9648 20.5896C31.9648 20.5911 31.9648 20.5926 31.9648 20.5941C31.9648 20.5957 31.9648 20.5972 31.9648 20.5987C31.9648 20.6003 31.9648 20.6018 31.9648 20.6033C31.9648 20.6049 31.9648 20.6064 31.9648 20.6079C31.9648 20.6095 31.9648 20.611 31.9648 20.6125C31.9648 20.6141 31.9648 20.6156 31.9648 20.6172C31.9648 20.6187 31.9648 20.6202 31.9648 20.6218C31.9648 20.6233 31.9648 20.6248 31.9648 20.6264C31.9648 20.6279 31.9648 20.6295 31.9648 20.631C31.9648 20.6326 31.9648 20.6341 31.9648 20.6356C31.9648 20.6372 31.9648 20.6387 31.9648 20.6403C31.9648 20.6418 31.9648 20.6433 31.9648 20.6449C31.9648 20.6464 31.9648 20.648 31.9648 20.6495C31.9648 20.6511 31.9648 20.6526 31.9648 20.6542C31.9648 20.6557 31.9648 20.6573 31.9648 20.6588C31.9648 20.6604 31.9648 20.6619 31.9648 20.6635C31.9648 20.665 31.9648 20.6666 31.9648 20.6681C31.9648 20.6697 31.9648 20.6712 31.9648 20.6728C31.9648 20.6743 31.9648 20.6759 31.9648 20.6774C31.9648 20.679 31.9648 20.6805 31.9648 20.6821C31.9648 20.6836 31.9648 20.6852 31.9648 20.6867C31.9648 20.6883 31.9648 20.6898 31.9648 20.6914C31.9648 20.693 31.9648 20.6945 31.9648 20.6961C31.9648 20.6976 31.9648 20.6992 31.9648 20.7008C31.9648 20.7023 31.9648 20.7039 31.9648 20.7054C31.9648 20.707 31.9648 20.7086 31.9648 20.7101C31.9648 20.7117 31.9648 20.7132 31.9648 20.7148C31.9648 20.7164 31.9648 20.7179 31.9648 20.7195C31.9648 20.721 31.9648 20.7226 31.9648 20.7242C31.9648 20.7257 31.9648 20.7273 31.9648 20.7289C31.9648 20.7304 31.9648 20.732 31.9648 20.7336C31.9648 20.7351 31.9648 20.7367 31.9648 20.7383C31.9648 20.7398 31.9648 20.7414 31.9648 20.743C31.9648 20.7446 31.9648 20.7461 31.9648 20.7477C31.9648 20.7493 31.9648 20.7508 31.9648 20.7524C31.9648 20.754 31.9648 20.7556 31.9648 20.7571C31.9648 20.7587 31.9648 20.7603 31.9648 20.7618C31.9648 20.7634 31.9648 20.765 31.9648 20.7666C31.9648 20.7681 31.9648 20.7697 31.9648 20.7713C31.9648 20.7729 31.9648 20.7745 31.9648 20.776C31.9648 20.7776 31.9648 20.7792 31.9648 20.7808C31.9648 20.7823 31.9648 20.7839 31.9648 20.7855C31.9648 20.7871 31.9648 20.7887 31.9648 20.7902C31.9648 20.7918 31.9648 20.7934 31.9648 20.795C31.9648 20.7966 31.9648 20.7982 31.9648 20.7997C31.9648 20.8013 31.9648 20.8029 31.9648 20.8045C31.9648 20.8061 31.9648 20.8077 31.9648 20.8093C31.9648 20.8108 31.9648 20.8124 31.9648 20.814C31.9648 20.8156 31.9648 20.8172 31.9648 20.8188C31.9648 20.8204 31.9648 20.822 31.9648 20.8235C31.9648 20.8251 31.9648 20.8267 31.9648 20.8283C31.9648 20.8299 31.9648 20.8315 31.9648 20.8331C31.9648 20.8347 31.9648 20.8363 31.9648 20.8379C31.9648 20.8395 31.9648 20.8411 31.9648 20.8427C31.9648 20.8442 31.9648 20.8458 31.9648 20.8474C31.9648 20.849 31.9648 20.8506 31.9648 20.8522C31.9648 20.8538 31.9648 20.8554 31.9648 20.857C31.9648 20.8586 31.9648 20.8602 31.9648 20.8618C31.9648 20.8634 31.9648 20.865 31.9648 20.8666C31.9648 20.8682 31.9648 20.8698 31.9648 20.8714C31.9648 20.873 31.9648 20.8746 31.9648 20.8762C31.9648 20.8778 31.9648 20.8794 31.9648 20.881C31.9648 20.8826 31.9648 20.8842 31.9648 20.8858C31.9648 20.8875 31.9648 20.8891 31.9648 20.8907C31.9648 20.8923 31.9648 20.8939 31.9648 20.8955C31.9648 20.8971 31.9648 20.8987 31.9648 20.9003C31.9648 20.9019 31.9648 20.9035 31.9648 20.9051C31.9648 20.9068 31.9648 20.9084 31.9648 20.91C31.9648 20.9116 31.9648 20.9132 31.9648 20.9148C31.9648 20.9164 31.9648 20.918 31.9648 20.9196C31.9648 20.9213 31.9648 20.9229 31.9648 20.9245C31.9648 20.9261 31.9648 20.9277 31.9648 20.9293C31.9648 20.931 31.9648 20.9326 31.9648 20.9342C31.9648 20.9358 31.9648 20.9374 31.9648 20.939C31.9648 20.9407 31.9648 20.9423 31.9648 20.9439C31.9648 20.9455 31.9648 20.9471 31.9648 20.9488C31.9648 20.9504 31.9648 20.952 31.9648 20.9536C31.9648 20.9552 31.9648 20.9569 31.9648 20.9585C31.9648 20.9601 31.9648 20.9617 31.9648 20.9634C31.9648 20.965 31.9648 20.9666 31.9648 20.9682C31.9648 20.9699 31.9648 20.9715 31.9648 20.9731C31.9648 20.9747 31.9648 20.9764 31.9648 20.978C31.9648 20.9796 31.9648 20.9813 31.9648 20.9829C31.9648 20.9845 31.9648 20.9861 31.9648 20.9878C31.9648 20.9894 31.9648 20.991 31.9648 20.9927C31.9648 20.9943 31.9648 20.9959 31.9648 20.9976C31.9648 20.9992 31.9648 21.0008 31.9648 21.0025C31.9648 21.0041 31.9648 21.0057 31.9648 21.0074C31.9648 21.009 31.9648 21.0106 31.9648 21.0123C31.9648 21.0139 31.9648 21.0155 31.9648 21.0172C31.9648 21.0188 31.9648 21.0205 31.9648 21.0221C31.9648 21.0237 31.9648 21.0254 31.9648 21.027C31.9648 21.0287 31.9648 21.0303 31.9648 21.0319C31.9648 21.0336 31.9648 21.0352 31.9648 21.0369C31.9648 21.0385 31.9648 21.0401 31.9648 21.0418C31.9648 21.0434 31.9648 21.0451 31.9648 21.0467C31.9648 21.0484 31.9648 21.05 31.9648 21.0517C31.9648 21.0533 31.9648 21.0549 31.9648 21.0566C31.9648 21.0582 31.9648 21.0599 31.9648 21.0615C31.9648 21.0632 31.9648 21.0648 31.9648 21.0665C31.9648 21.0681 31.9648 21.0698 31.9648 21.0714C31.9648 21.0731 31.9648 21.0747 31.9648 21.0764C31.9648 21.078 31.9648 21.0797 31.9648 21.0813C31.9648 21.083 31.9648 21.0846 31.9648 21.0863C31.9648 21.088 31.9648 21.0896 31.9648 21.0913C31.9648 21.0929 31.9648 21.0946 31.9648 21.0962C31.9648 21.0979 31.9648 21.0995 31.9648 21.1012C31.9648 21.1029 31.9648 21.1045 31.9648 21.1062C31.9648 21.1078 31.9648 21.1095 31.9648 21.1112C31.9648 21.1128 31.9648 21.1145 31.9648 21.1161C31.9648 21.1178 31.9648 21.1195 31.9648 21.1211C31.9648 21.1228 31.9648 21.1245 31.9648 21.1261C31.9648 21.1278 31.9648 21.1294 31.9648 21.1311C31.9648 21.1328 31.9648 21.1344 31.9648 21.1361C31.9648 21.1378 31.9648 21.1394 31.9648 21.1411C31.9648 21.1428 31.9648 21.1444 31.9648 21.1461C31.9648 21.1478 31.9648 21.1494 31.9648 21.1511C31.9648 21.1528 31.9648 21.1545 31.9648 21.1561C31.9648 21.1578 31.9648 21.1595 31.9648 21.1611C31.9648 21.1628 31.9648 21.1645 31.9648 21.1662C31.9648 21.1678 31.9648 21.1695 31.9648 21.1712C31.9648 21.1729 31.9648 21.1745 31.9648 21.1762C31.9648 21.1779 31.9648 21.1796 31.9648 21.1812C31.9648 21.1829 31.9648 21.1846 31.9648 21.1863C31.9648 21.1879 31.9648 21.1896 31.9648 21.1913C31.9648 21.193 31.9648 21.1947 31.9648 21.1963C31.9648 21.198 31.9648 21.1997 31.9648 21.2014C31.9648 21.2031 31.9648 21.2047 31.9648 21.2064C31.9648 21.2081 31.9648 21.2098 31.9648 21.2115C31.9648 21.2132 31.9648 21.2149 31.9648 21.2165C31.9648 21.2182 31.9648 21.2199 31.9648 21.2216C31.9648 21.2233 31.9648 21.225 31.9648 21.2267C31.9648 21.2283 31.9648 21.23 31.9648 21.2317C31.9648 21.2334 31.9648 21.2351 31.9648 21.2368C31.9648 21.2385 31.9648 21.2402 31.9648 21.2419C31.9648 21.2435 31.9648 21.2452 31.9648 21.2469C31.9648 21.2486 31.9648 21.2503 31.9648 21.252C31.9648 21.2537 31.9648 21.2554 31.9648 21.2571C31.9648 21.2588 31.9648 21.2605 31.9648 21.2622C31.9648 21.2639 31.9648 21.2656 31.9648 21.2673C31.9648 21.269 31.9648 21.2707 31.9648 21.2724C31.9648 21.2741 31.9648 21.2758 31.9648 21.2775C31.9648 21.2792 31.9648 21.2809 31.9648 21.2826C31.9648 21.2843 31.9648 21.286 31.9648 21.2877C31.9648 21.2894 31.9648 21.2911 31.9648 21.2928C31.9648 21.2945 31.9648 21.2962 31.9648 21.2979C31.9648 21.2996 31.9648 21.3013 31.9648 21.303C31.9648 21.3047 31.9648 21.3064 31.9648 21.3081C31.9648 21.3098 31.9648 21.3115 31.9648 21.3132C31.9648 21.3149 31.9648 21.3167 31.9648 21.3184C31.9648 21.3201 31.9648 21.3218 31.9648 21.3235C31.9648 21.3252 31.9648 21.3269 31.9648 21.3286C31.9648 21.3303 31.9648 21.332 31.9648 21.3338C31.9648 21.3355 31.9648 21.3372 31.9648 21.3389C31.9648 21.3406 31.9648 21.3423 31.9648 21.344C31.9648 21.3458 31.9648 21.3475 31.9648 21.3492C31.9648 21.3509 31.9648 21.3526 31.9648 21.3543C31.9648 21.3561 31.9648 21.3578 31.9648 21.3595C31.9648 21.3612 31.9648 21.3629 31.9648 21.3646C31.9648 21.3664 31.9648 21.3681 31.9648 21.3698C31.9648 21.3715 31.9648 21.3733 31.9648 21.375C31.9648 21.3767 31.9648 21.3784 31.9648 21.3801C31.9648 21.3819 31.9648 21.3836 31.9648 21.3853C31.9648 21.387 31.9648 21.3888 31.9648 21.3905C31.9648 21.3922 31.9648 21.3939 31.9648 21.3957C31.9648 21.3974 31.9648 21.3991 31.9648 21.4008C31.9648 21.4026 31.9648 21.4043 31.9648 21.406C31.9648 21.4078 31.9648 21.4095 31.9648 21.4112C31.9648 21.413 31.9648 21.4147 31.9648 21.4164C31.9648 21.4181 31.9648 21.4199 31.9648 21.4216C31.9648 21.4233 31.9648 21.4251 31.9648 21.4268C31.9648 21.4285 31.9648 21.4303 31.9648 21.432C31.9648 21.4338 31.9648 21.4355 31.9648 21.4372C31.9648 21.439 31.9648 21.4407 31.9648 21.4424C31.9648 21.4442 31.9648 21.4459 31.9648 21.4477C31.9648 21.4494 31.9648 21.4511 31.9648 21.4529C31.9648 21.4546 31.9648 21.4563 31.9648 21.4581C31.9648 21.4598 31.9648 21.4616 31.9648 21.4633C31.9648 21.4651 31.9648 21.4668 31.9648 21.4685C31.9648 21.4703 31.9648 21.472 31.9648 21.4738C31.9648 21.4755 31.9648 21.4773 31.9648 21.479C31.9648 21.4808 31.9648 21.4825 31.9648 21.4843C31.9648 21.486 31.9648 21.4877 31.9648 21.4895C31.9648 21.4912 31.9648 21.493 31.9648 21.4947C31.9648 21.4965 31.9648 21.4982 31.9648 21.5C31.9648 21.5017 31.9648 21.5035 31.9648 21.5052C31.9648 21.507 31.9648 21.5088 31.9648 21.5105C31.9648 21.5123 31.9648 21.514 31.9648 21.5158C31.9648 21.5175 31.9648 21.5193 31.9648 21.521C31.9648 21.5228 31.9648 21.5245 31.9648 21.5263C31.9648 21.5281 31.9648 21.5298 31.9648 21.5316C31.9648 21.5333 31.9648 21.5351 31.9648 21.5368C31.9648 21.5386 31.9648 21.5404 31.9648 21.5421C31.9648 21.5439 31.9648 21.5456 31.9648 21.5474C31.9648 21.5492 31.9648 21.5509 31.9648 21.5527C31.9648 21.5545 31.9648 21.5562 31.9648 21.558C31.9648 21.5597 31.9648 21.5615 31.9648 21.5633C31.9648 21.565 31.9648 21.5668 31.9648 21.5686C31.9648 21.5703 31.9648 21.5721 31.9648 21.5739C31.9648 21.5756 31.9648 21.5774 31.9648 21.5792C31.9648 21.5809 31.9648 21.5827 31.9648 21.5845C31.9648 21.5863 31.9648 21.588 31.9648 21.5898C31.9648 21.5916 31.9648 21.5933 31.9648 21.5951C31.9648 21.5969 31.9648 21.5987 31.9648 21.6004C31.9648 21.6022 31.9648 21.604 31.9648 21.6058C31.9648 21.6075 31.9648 21.6093 31.9648 21.6111C31.9648 21.6129 31.9648 21.6146 31.9648 21.6164C31.9648 21.6182 31.9648 21.62 31.9648 21.6217C31.9648 21.6235 31.9648 21.6253 31.9648 21.6271C31.9648 21.6289 31.9648 21.6306 31.9648 21.6324C31.9648 21.6342 31.9648 21.636 31.9648 21.6378C31.9648 21.6395 31.9648 21.6413 31.9648 21.6431C31.9648 21.6449 31.9648 21.6467 31.9648 21.6485C31.9648 21.6502 31.9648 21.652 31.9648 21.6538C31.9648 21.6556 31.9648 21.6574 31.9648 21.6592C31.9648 21.661 31.9648 21.6627 31.9648 21.6645C31.9648 21.6663 31.9648 21.6681 31.9648 21.6699C31.9648 21.6717 31.9648 21.6735 31.9648 21.6753C31.9648 21.6771 31.9648 21.6788 31.9648 21.6806C31.9648 21.6824 31.9648 21.6842 31.9648 21.686C31.9648 21.6878 31.9648 21.6896 31.9648 21.6914C31.9648 21.6932 31.9648 21.695 31.9648 21.6968C31.9648 21.6986 31.9648 21.7004 31.9648 21.7022C31.9648 21.704 31.9648 21.7057 31.9648 21.7075C31.9648 21.7093 31.9648 21.7111 31.9648 21.7129C31.9648 21.7147 31.9648 21.7165 31.9648 21.7183C31.9648 21.7201 31.9648 21.7219 31.9648 21.7237C31.9648 21.7255 31.9648 21.7273 31.9648 21.7291C31.9648 21.7309 31.9648 21.7327 31.9648 21.7345C31.9648 21.7364 31.9648 21.7382 31.9648 21.74C31.9648 21.7418 31.9648 21.7436 31.9648 21.7454C31.9648 21.7472 31.9648 21.749 31.9648 21.7508C31.9648 21.7526 31.9648 21.7544 31.9648 21.7562C31.9648 21.758 31.9648 21.7598 31.9648 21.7616C31.9648 21.7634 31.9648 21.7653 31.9648 21.7671C31.9648 21.7689 31.9648 21.7707 31.9648 21.7725C31.9648 21.7743 31.9648 21.7761 31.9648 21.7779C31.9648 21.7798 31.9648 21.7816 31.9648 21.7834C31.9648 21.7852 31.9648 21.787 31.9648 21.7888C31.9648 21.7906 31.9648 21.7925 31.9648 21.7943C31.9648 21.7961 31.9648 21.7979 31.9648 21.7997C31.9648 21.8015 31.9648 21.8034 31.9648 21.8052C31.9648 21.807 31.9648 21.8088 31.9648 21.8106C31.9648 21.8125 31.9648 21.8143 31.9648 21.8161C31.9648 21.8179 31.9648 21.8197 31.9648 21.8216C31.9648 21.8234 31.9648 21.8252 31.9648 21.827C31.9648 21.8288 31.9648 21.8307 31.9648 21.8325C31.9648 21.8343 31.9648 21.8361 31.9648 21.838C31.9648 21.8398 31.9648 21.8416 31.9648 21.8435C31.9648 21.8453 31.9648 21.8471 31.9648 21.8489C31.9648 21.8508 31.9648 21.8526 31.9648 21.8544C31.9648 21.8563 31.9648 21.8581 31.9648 21.8599C31.9648 21.8617 31.9648 21.8636 31.9648 21.8654C31.9648 21.8672 31.9648 21.8691 31.9648 21.8709C31.9648 21.8727 31.9648 21.8746 31.9648 21.8764C31.9648 21.8782 31.9648 21.8801 31.9648 21.8819C31.9648 21.8837 31.9648 21.8856 31.9648 21.8874C31.9648 21.8893 31.9648 21.8911 31.9648 21.8929C31.9648 21.8948 31.9648 21.8966 31.9648 21.8984C31.9648 21.9003 31.9648 21.9021 31.9648 21.904C31.9648 21.9058 31.9648 21.9076 31.9648 21.9095C31.9648 21.9113 31.9648 21.9132 31.9648 21.915C31.9648 21.9169 31.9648 21.9187 31.9648 21.9205C31.9648 21.9224 31.9648 21.9242 31.9648 21.9261C31.9648 21.9279 31.9648 21.9298 31.9648 21.9316C31.9648 21.9335 31.9648 21.9353 31.9648 21.9371C31.9648 21.939 31.9648 21.9408 31.9648 21.9427C31.9648 21.9445 31.9648 21.9464 31.9648 21.9482C31.9648 21.9501 31.9648 21.9519 31.9648 21.9538C31.9648 21.9556 31.9648 21.9575 31.9648 21.9593C31.9648 21.9612 31.9648 21.963 31.9648 21.9649C31.9648 21.9668 31.9648 21.9686 31.9648 21.9705C31.9648 21.9723 31.9648 21.9742 31.9648 21.976C31.9648 21.9779 31.9648 21.9797 31.9648 21.9816C31.9648 21.9835 31.9648 21.9853 31.9648 21.9872C31.9648 21.989 31.9648 21.9909 31.9648 21.9927C31.9648 21.9946 31.9648 21.9965 31.9648 21.9983C31.9648 22.0002 31.9648 22.002 31.9648 22.0039C31.9648 22.0058 31.9648 22.0076 31.9648 22.0095C31.9648 22.0114 31.9648 22.0132 31.9648 22.0151C31.9648 22.0169 31.9648 22.0188 31.9648 22.0207C31.9648 22.0225 31.9648 22.0244 31.9648 22.0263C31.9648 22.0281 31.9648 22.03 31.9648 22.0319C31.9648 22.0337 31.9648 22.0356 31.9648 22.0375C31.9648 22.0393 31.9648 22.0412 31.9648 22.0431C31.9648 22.045 31.9648 22.0468 31.9648 22.0487C31.9648 22.0506 31.9648 22.0524 31.9648 22.0543C31.9648 22.0562 31.9648 22.0581 31.9648 22.0599C31.9648 22.0618 31.9648 22.0637 31.9648 22.0656C31.9648 22.0674 31.9648 22.0693 31.9648 22.0712C31.9648 22.0731 31.9648 22.0749 31.9648 22.0768C31.9648 22.0787 31.9648 22.0806 31.9648 22.0824C31.9648 22.0843 31.9648 22.0862 31.9648 22.0881C31.9648 22.09 31.9648 22.0918 31.9648 22.0937C31.9648 22.0956 31.9648 22.0975 31.9648 22.0994C31.9648 22.1012 31.9648 22.1031 31.9648 22.105C31.9648 22.1069 31.9648 22.1088 31.9648 22.1107C31.9648 22.1125 31.9648 22.1144 31.9648 22.1163C31.9648 22.1182 31.9648 22.1201 31.9648 22.122C31.9648 22.1239 31.9648 22.1257 31.9648 22.1276C31.9648 22.1295 31.9648 22.1314 31.9648 22.1333C31.9648 22.1352 31.9648 22.1371 31.9648 22.139C31.9648 22.1409 31.9648 22.1428 31.9648 22.1446C31.9648 22.1465 31.9648 22.1484 31.9648 22.1503C31.9648 22.1522 31.9648 22.1541 31.9648 22.156C31.9648 22.1579 31.9648 22.1598 31.9648 22.1617C31.9648 22.1636 31.9648 22.1655 31.9648 22.1674C31.9648 22.1693 31.9648 22.1712 31.9648 22.1731C31.9648 22.175 31.9648 22.1769 31.9648 22.1788C31.9648 22.1806 31.9648 22.1825 31.9648 22.1844C31.9648 22.1863 31.9648 22.1882 31.9648 22.1901C31.9648 22.192 31.9648 22.194 31.9648 22.1959C31.9648 22.1978 31.9648 22.1997 31.9648 22.2016C31.9648 22.2035 31.9648 22.2054 31.9648 22.2073C31.9648 22.2092 31.9648 22.2111 31.9648 22.213C31.9648 22.2149 31.9648 22.2168 31.9648 22.2187C31.9648 22.2206 31.9648 22.2225 31.9648 22.2244C31.9648 22.2263 31.9648 22.2282 31.9648 22.2302C31.9648 22.2321 31.9648 22.234 31.9648 22.2359C31.9648 22.2378 31.9648 22.2397 31.9648 22.2416C31.9648 22.2435 31.9648 22.2454 31.9648 22.2474C31.9648 22.2493 31.9648 22.2512 31.9648 22.2531C31.9648 22.255 31.9648 22.2569 31.9648 22.2588C31.9648 22.2608 31.9648 22.2627 31.9648 22.2646C31.9648 22.2665 31.9648 22.2684 31.9648 22.2703C31.9648 22.2723 31.9648 22.2742 31.9648 22.2761C31.9648 22.278 31.9648 22.2799 31.9648 22.2819C31.9648 22.2838 31.9648 22.2857 31.9648 22.2876C31.9648 22.2895 31.9648 22.2915 31.9648 22.2934C31.9648 22.2953 31.9648 22.2972 31.9648 22.2991C31.9648 22.3011 31.9648 22.303 31.9648 22.3049C31.9648 22.3068 31.9648 22.3088 31.9648 22.3107C31.9648 22.3126 31.9648 22.3145 31.9648 22.3165C31.9648 22.3184 31.9648 22.3203 31.9648 22.3223C31.9648 22.3242 31.9648 22.3261 31.9648 22.328C31.9648 22.33 31.9648 22.3319 31.9648 22.3338C31.9648 22.3358 31.9648 22.3377 31.9648 22.3396C31.9648 22.3416 31.9648 22.3435 31.9648 22.3454C31.9648 22.3474 31.9648 22.3493 31.9648 22.3512C31.9648 22.3532 31.9648 22.3551 31.9648 22.357C31.9648 22.359 31.9648 22.3609 31.9648 22.3628C31.9648 22.3648 31.9648 22.3667 31.9648 22.3687C31.9648 22.3706 31.9648 22.3725 31.9648 22.3745C31.9648 22.3764 31.9648 22.3783 31.9648 22.3803C31.9648 22.3822 31.9648 22.3842 31.9648 22.3861C31.9648 22.3881 31.9648 22.39 31.9648 22.3919C31.9648 22.3939 31.9648 22.3958 31.9648 22.3978C31.9648 22.3997 31.9648 22.4017 31.9648 22.4036C31.9648 22.4055 31.9648 22.4075 31.9648 22.4094C31.9648 22.4114 31.9648 22.4133 31.9648 22.4153C31.9648 22.4172 31.9648 22.4192 31.9648 22.4211C31.9648 22.4231 31.9648 22.425 31.9648 22.427C31.9648 22.4289 31.9648 22.4309 31.9648 22.4328C31.9648 22.4348 31.9648 22.4367 31.9648 22.4387C31.9648 22.4406 31.9648 22.4426 31.9648 22.4445C31.9648 22.4465 31.9648 22.4484 31.9648 22.4504C31.9648 22.4523 31.9648 22.4543 31.9648 22.4563C31.9648 22.4582 31.9648 22.4602 31.9648 22.4621C31.9648 22.4641 31.9648 22.466 31.9648 22.468C31.9648 22.47 31.9648 22.4719 31.9648 22.4739C31.9648 22.4758 31.9648 22.4778 31.9648 22.4798C31.9648 22.4817 31.9648 22.4837 31.9648 22.4856C31.9648 22.4876 31.9648 22.4896 31.9648 22.4915C31.9648 22.4935 31.9648 22.4955 31.9648 22.4974C31.9648 22.4994 31.9648 22.5013 31.9648 22.5033C31.9648 22.5053 31.9648 22.5072 31.9648 22.5092C31.9648 22.5112 31.9648 22.5131 31.9648 22.5151C31.9648 22.5171 31.9648 22.519 31.9648 22.521C31.9648 22.523 31.9648 22.525 31.9648 22.5269C31.9648 22.5289 31.9648 22.5309 31.9648 22.5328C31.9648 22.5348 31.9648 22.5368 31.9648 22.5388C31.9648 22.5407 31.9648 22.5427 31.9648 22.5447C31.9648 22.5466 31.9648 22.5486 31.9648 22.5506C31.9648 22.5526 31.9648 22.5545 31.9648 22.5565C31.9648 22.5585 31.9648 22.5605 31.9648 22.5624C31.9648 22.5644 31.9648 22.5664 31.9648 22.5684C31.9648 22.5704 31.9648 22.5723 31.9648 22.5743C31.9648 22.5763 31.9648 22.5783 31.9648 22.5803C31.9648 22.5822 31.9648 22.5842 31.9648 22.5862C31.9648 22.5882 31.9648 22.5902 31.9648 22.5922C31.9648 22.5941 31.9648 22.5961 31.9648 22.5981C31.9648 22.6001 31.9648 22.6021 31.9648 22.6041C31.9648 22.606 31.9648 22.608 31.9648 22.61C31.9648 22.612 31.9648 22.614 31.9648 22.616C31.9648 22.618 31.9648 22.62 31.9648 22.6219C31.9648 22.6239 31.9648 22.6259 31.9648 22.6279C31.9648 22.6299 31.9648 22.6319 31.9648 22.6339C31.9648 22.6359 31.9648 22.6379 31.9648 22.6399C31.9648 22.6419 31.9648 22.6438 31.9648 22.6458C31.9648 22.6478 31.9648 22.6498 31.9648 22.6518C31.9648 22.6538 31.9648 22.6558 31.9648 22.6578C31.9648 22.6598 31.9648 22.6618 31.9648 22.6638C31.9648 22.6658 31.9648 22.6678 31.9648 22.6698C31.9648 22.6718 31.9648 22.6738 31.9648 22.6758C31.9648 22.6778 31.9648 22.6798 31.9648 22.6818C31.9648 22.6838 31.9648 22.6858 31.9648 22.6878C31.9648 22.6898 31.9648 22.6918 31.9648 22.6938C31.9648 22.6958 31.9648 22.6978 31.9648 22.6998C31.9648 22.7018 31.9648 22.7038 31.9648 22.7058C31.9648 22.7078 31.9648 22.7098 31.9648 22.7119C31.9648 22.7139 31.9648 22.7159 31.9648 22.7179C31.9648 22.7199 31.9648 22.7219 31.9648 22.7239C31.9648 22.7259 31.9648 22.7279 31.9648 22.7299C31.9648 22.7319 31.9648 22.734 31.9648 22.736C31.9648 22.738 31.9648 22.74 31.9648 22.742C31.9648 22.744 31.9648 22.746 31.9648 22.748H33.9648ZM33.9648 20.123C33.9648 19.4028 33.9629 18.8041 33.959 18.3277L31.959 18.3442C31.9629 18.8131 31.9648 19.4058 31.9648 20.123H33.9648ZM33.959 18.3277C33.955 17.8523 33.9491 17.4698 33.941 17.1828L31.9418 17.2391C31.9493 17.5068 31.9551 17.8743 31.959 18.3442L33.959 18.3277ZM33.9413 17.1971C33.9373 16.9091 33.9292 16.6676 33.915 16.4839L31.9209 16.6372C31.9302 16.7581 31.9377 16.9503 31.9415 17.2248L33.9413 17.1971ZM32.918 15.5605H32.8828V17.5605H32.918V15.5605ZM31.9656 16.1621C31.754 16.6493 31.5295 17.1897 31.2922 17.7829L33.1492 18.5257C33.3807 17.947 33.5976 17.4249 33.8 16.959L31.9656 16.1621ZM31.2931 17.7808C31.0537 18.3753 30.8206 18.9889 30.5938 19.6215L32.4765 20.2964C32.695 19.6868 32.919 19.0973 33.1483 18.5278L31.2931 17.7808ZM30.5945 19.6196C30.3659 20.2534 30.1607 20.8749 29.9792 21.4839L31.8958 22.0551C32.0659 21.4845 32.2591 20.8989 32.4758 20.2983L30.5945 19.6196ZM29.9768 21.492C29.9645 21.5344 29.9583 21.5429 29.9652 21.5296C29.9714 21.5178 30.0026 21.4607 30.0752 21.3954L31.4131 22.882C31.6987 22.6249 31.8292 22.2859 31.8982 22.0471L29.9768 21.492ZM30.0773 21.3934C30.1681 21.3122 30.2522 21.2726 30.295 21.2553C30.3396 21.2372 30.3682 21.2319 30.3699 21.2315C30.3704 21.2314 30.3298 21.2383 30.2285 21.2383V23.2383C30.3968 23.2383 30.5769 23.2285 30.7492 23.1952C30.8958 23.1669 31.1718 23.0979 31.4109 22.8839L30.0773 21.3934ZM30.2285 21.2383H29.5547V23.2383H30.2285V21.2383ZM29.5547 21.2383C29.4759 21.2383 29.4471 21.2328 29.4527 21.2339C29.4569 21.2347 29.4812 21.2394 29.5184 21.2535C29.5547 21.2672 29.6188 21.2956 29.6918 21.3504L28.4918 22.9504C28.7052 23.1104 28.9336 23.171 29.0796 23.1988C29.2394 23.2291 29.403 23.2383 29.5547 23.2383V21.2383ZM29.7114 21.3655C29.7745 21.4153 29.8154 21.4635 29.839 21.495C29.8627 21.5268 29.8752 21.5502 29.8795 21.5585C29.8865 21.5724 29.8778 21.5586 29.8614 21.4999L27.9355 22.0392C27.9946 22.2505 28.1258 22.6619 28.4722 22.9353L29.7114 21.3655ZM29.859 21.4915C29.7277 21.0378 29.5828 20.5597 29.4245 20.057L27.5169 20.6578C27.6711 21.1474 27.8114 21.6106 27.9379 22.0476L29.859 21.4915ZM29.4245 20.057C29.265 19.5505 29.0993 19.0535 28.9275 18.566L27.0412 19.2309C27.2054 19.6965 27.3639 20.1722 27.5169 20.6578L29.4245 20.057ZM28.9307 18.5753C28.763 18.084 28.5981 17.6294 28.4361 17.2122L26.5717 17.9362C26.7222 18.3237 26.8777 18.752 27.038 19.2216L28.9307 18.5753ZM28.4402 17.2231C28.2836 16.8053 28.1387 16.4462 28.0059 16.1507L26.1816 16.9704C26.291 17.214 26.4196 17.5307 26.5676 17.9253L28.4402 17.2231ZM27.0938 15.5605H27.0586V17.5605H27.0938V15.5605ZM26.0609 16.4929C26.0287 16.968 26.0009 17.54 25.9772 18.2067L27.9759 18.2777C27.9991 17.6241 28.026 17.075 28.0563 16.6282L26.0609 16.4929ZM25.9772 18.2067C25.9535 18.8727 25.9339 19.5947 25.9182 20.3724L27.9178 20.4128C27.9333 19.6436 27.9527 18.932 27.9759 18.2777L25.9772 18.2067ZM25.9181 20.3774C25.9063 21.1544 25.8985 21.9469 25.8945 22.7549L27.8945 22.7646C27.8984 21.9632 27.9062 21.1776 27.9179 20.4077L25.9181 20.3774ZM25.8945 22.7598C25.8945 22.6822 25.9078 22.5866 25.9485 22.4851C25.9896 22.3823 26.0497 22.2958 26.1171 22.2284L27.5313 23.6427C27.778 23.396 27.8945 23.0774 27.8945 22.7598H25.8945ZM26.1485 22.1984C26.2138 22.1385 26.2958 22.0853 26.3919 22.0489C26.4873 22.0127 26.578 22 26.6543 22V24C26.9587 24 27.2598 23.8928 27.4999 23.6727L26.1485 22.1984ZM26.6543 22H25.4531V24H26.6543V22ZM25.4531 22C25.5401 22 25.6405 22.0159 25.7432 22.0584C25.8459 22.1009 25.9284 22.1607 25.9903 22.2226L24.5761 23.6368C24.8109 23.8716 25.122 24 25.4531 24V22ZM25.9903 22.2226C26.0632 22.2954 26.1234 22.3858 26.163 22.4881C26.2018 22.5882 26.2129 22.6792 26.2129 22.748H24.2129C24.2129 23.0528 24.3185 23.3792 24.5761 23.6368L25.9903 22.2226ZM26.2129 22.7499C26.2168 20.6767 26.2577 19.0375 26.334 17.8245L24.3379 17.6989C24.2579 18.9703 24.2168 20.6553 24.2129 22.7462L26.2129 22.7499ZM26.3338 17.8276C26.4165 16.5748 26.5012 15.8181 26.5758 15.4826L24.6234 15.0487C24.5105 15.5569 24.4194 16.4642 24.3381 17.6958L26.3338 17.8276ZM26.5751 15.4855C26.5903 15.418 26.6004 15.4137 26.5827 15.4428C26.5614 15.4779 26.5034 15.5538 26.3926 15.612L25.4629 13.8412C24.9236 14.1243 24.7123 14.6545 24.6241 15.0458L26.5751 15.4855ZM26.4006 15.6077C26.4021 15.6069 26.4057 15.6051 26.4143 15.603C26.4234 15.6009 26.4419 15.5977 26.4727 15.5977V13.5977C26.1243 13.5977 25.7769 13.6726 25.4549 13.8454L26.4006 15.6077ZM26.4727 15.5977H27.4219V13.5977H26.4727V15.5977ZM27.4219 15.5977C27.4729 15.5977 27.4802 15.6027 27.4577 15.5971C27.4349 15.5914 27.3568 15.5684 27.2659 15.4957L28.5153 13.934C28.152 13.6433 27.7162 13.5977 27.4219 13.5977V15.5977ZM27.3006 15.5222C27.2785 15.5061 27.2683 15.4957 27.2699 15.4973C27.2711 15.4985 27.2789 15.5064 27.2934 15.5236C27.3232 15.559 27.3671 15.6173 27.4254 15.7056L29.0941 14.603C28.9394 14.3689 28.7351 14.0934 28.4806 13.9075L27.3006 15.5222ZM27.4277 15.709C27.4688 15.7706 27.5442 15.9063 27.6541 16.1482L29.4748 15.3206C29.3504 15.0468 29.2226 14.7958 29.0918 14.5996L27.4277 15.709ZM27.6593 16.1595C27.7717 16.3988 27.8898 16.6697 28.0134 16.973L29.8655 16.2184C29.7313 15.8889 29.5994 15.5855 29.4696 15.3092L27.6593 16.1595ZM28.015 16.977C28.1391 17.2777 28.2554 17.576 28.364 17.8719L30.2415 17.1827C30.1235 16.8615 29.9977 16.5387 29.8639 16.2144L28.015 16.977ZM28.3694 17.8863C28.4826 18.1806 28.5721 18.4296 28.6395 18.6355L30.5402 18.0129C30.4592 17.7657 30.3573 17.4835 30.2361 17.1684L28.3694 17.8863ZM28.6428 18.6453C28.7177 18.8662 28.7867 19.0806 28.8498 19.2885L30.7635 18.7076C30.6938 18.4779 30.6183 18.2431 30.5369 18.0032L28.6428 18.6453ZM28.8512 19.2934C28.9116 19.4887 28.9646 19.6812 29.0102 19.8708L30.9546 19.4027C30.8987 19.1704 30.8345 18.9371 30.762 18.7027L28.8512 19.2934ZM29.9824 20.6367H30.0293V18.6367H29.9824V20.6367Z" fill="white" mask="url(#path-4-outside-2_734_349)"/>
</g>
<defs>
<filter id="filter0_d_734_349" x="0" y="0" width="44" height="44" filterUnits="userSpaceOnUse" color-interpolation-filters="sRGB">
<feFlood flood-opacity="0" result="BackgroundImageFix"/>
<feColorMatrix in="SourceAlpha" type="matrix" values="0 0 0 0 0 0 0 0 0 0 0 0 0 0 0 0 0 0 127 0" result="hardAlpha"/>
<feOffset dy="4"/>
<feGaussianBlur stdDeviation="2"/>
<feComposite in2="hardAlpha" operator="out"/>
<feColorMatrix type="matrix" values="0 0 0 0 0 0 0 0 0 0 0 0 0 0 0 0 0 0 0.25 0"/>
<feBlend mode="normal" in2="BackgroundImageFix" result="effect1_dropShadow_734_349"/>
<feBlend mode="normal" in="SourceGraphic" in2="effect1_dropShadow_734_349" result="shape"/>
</filter>
</defs>
</svg>
