<svg width="24" height="23" viewBox="0 0 24 23" fill="none" xmlns="http://www.w3.org/2000/svg">
<path d="M15.4229 2.43253L8.96458 0.172115C8.42208 -0.0216347 7.82792 -0.0216347 7.28542 0.159199L2.13167 1.89003C1.08542 2.2517 0.375 3.23337 0.375 4.3442V19.6504C0.375 21.4717 2.19625 22.7117 3.88833 22.0529L7.67292 20.5804C7.95708 20.4642 8.28 20.4642 8.56417 20.5675L15.0225 22.8279C15.565 23.0217 16.1592 23.0217 16.7017 22.8409L21.8554 21.11C22.9017 20.7613 23.6121 19.7667 23.6121 18.6559V3.34962C23.6121 1.52837 21.7908 0.288365 20.0988 0.947115L16.3142 2.41961C16.03 2.52295 15.72 2.53587 15.4229 2.43253ZM15.875 20.3996L8.125 17.6742V2.60045L15.875 5.32586V20.3996Z" fill="none"/>
</svg>
