<svg width="39" height="39" viewBox="0 0 39 39" fill="none" xmlns="http://www.w3.org/2000/svg">
<path d="M6.08333 19.5H2.25L19.5 2.25L36.75 19.5H32.9167M6.08333 19.5V32.9167C6.08333 33.9333 6.4872 34.9084 7.20609 35.6272C7.92498 36.3461 8.9 36.75 9.91667 36.75H29.0833C30.1 36.75 31.075 36.3461 31.7939 35.6272C32.5128 34.9084 32.9167 33.9333 32.9167 32.9167V19.5" stroke="white" stroke-width="4" stroke-linecap="round" stroke-linejoin="round"/>
<path d="M13.75 36.75V25.25C13.75 24.2333 14.1539 23.2583 14.8728 22.5394C15.5916 21.8205 16.5667 21.4166 17.5833 21.4166H21.4167C22.4333 21.4166 23.4084 21.8205 24.1272 22.5394C24.8461 23.2583 25.25 24.2333 25.25 25.25V36.75" stroke="white" stroke-width="4" stroke-linecap="round" stroke-linejoin="round"/>
</svg>
