<svg width="24" height="26" viewBox="0 0 24 26" fill="none" xmlns="http://www.w3.org/2000/svg">
<path d="M12.586 11.8393H17.2289M12.586 18.2817H17.2289M21.764 23.2143C21.764 23.7068 21.5684 24.1792 21.2201 24.5275C20.8718 24.8758 20.3994 25.0714 19.9069 25.0714H3.19259C2.70005 25.0714 2.22768 24.8758 1.87939 24.5275C1.53111 24.1792 1.33545 23.7068 1.33545 23.2143V2.78573C1.33545 2.29319 1.53111 1.82082 1.87939 1.47253C2.22768 1.12425 2.70005 0.928589 3.19259 0.928589H13.5666C14.0591 0.928694 14.5314 1.12443 14.8796 1.47273L21.2199 7.81302C21.5682 8.16122 21.7639 8.63351 21.764 9.12602V23.2143Z" stroke="none" stroke-width="4" stroke-linecap="round" stroke-linejoin="round"/>
<path d="M5.4043 18.1758L6.96058 19.7321L9.55501 16.1014M5.4043 11.6183L6.96058 13.1745L9.55501 9.54382" stroke="none" stroke-width="4" stroke-linecap="round" stroke-linejoin="round"/>
</svg>
