<svg width="27" height="27" viewBox="0 0 27 27" fill="none" xmlns="http://www.w3.org/2000/svg">
<path d="M13.5002 0.583374C6.37016 0.583374 0.583496 6.37004 0.583496 13.5C0.583496 20.63 6.37016 26.4167 13.5002 26.4167C20.6302 26.4167 26.4168 20.63 26.4168 13.5C26.4168 6.37004 20.6302 0.583374 13.5002 0.583374ZM7.49391 21.8959C9.186 20.6817 11.2527 19.9584 13.5002 19.9584C15.7477 19.9584 17.8143 20.6817 19.5064 21.8959C17.8143 23.11 15.7477 23.8334 13.5002 23.8334C11.2527 23.8334 9.186 23.11 7.49391 21.8959ZM21.431 20.1134C19.1682 18.3389 16.3757 17.3745 13.5002 17.3745C10.6246 17.3745 7.8321 18.3389 5.56933 20.1134C4.01564 18.2601 3.16497 15.9184 3.16683 13.5C3.16683 7.79087 7.791 3.16671 13.5002 3.16671C19.2093 3.16671 23.8335 7.79087 23.8335 13.5C23.8335 16.0188 22.9293 18.318 21.431 20.1134Z" fill="#D9D9D9"/>
<path d="M13.4998 5.75C11.0069 5.75 8.979 7.77792 8.979 10.2708C8.979 12.7637 11.0069 14.7917 13.4998 14.7917C15.9928 14.7917 18.0207 12.7637 18.0207 10.2708C18.0207 7.77792 15.9928 5.75 13.4998 5.75ZM13.4998 12.2083C12.4278 12.2083 11.5623 11.3429 11.5623 10.2708C11.5623 9.19875 12.4278 8.33333 13.4998 8.33333C14.5719 8.33333 15.4373 9.19875 15.4373 10.2708C15.4373 11.3429 14.5719 12.2083 13.4998 12.2083Z" fill="#D9D9D9"/>
</svg>
