<svg width="27" height="36" viewBox="0 0 27 36" fill="none" xmlns="http://www.w3.org/2000/svg">
<path d="M5.29566 33.9525C5.29566 35.0786 6.2186 36 7.34664 36C8.47468 36 9.39761 35.0786 9.39761 33.9525V27.81C10.8948 22.5275 15.6941 20.7052 20.0012 21.6675L18.1963 23.4693C18.0064 23.6589 17.8558 23.8839 17.753 24.1316C17.6503 24.3793 17.5974 24.6447 17.5974 24.9128C17.5974 25.1809 17.6503 25.4463 17.753 25.694C17.8558 25.9417 18.0064 26.1667 18.1963 26.3563C18.3862 26.5459 18.6116 26.6962 18.8597 26.7988C19.1078 26.9014 19.3737 26.9542 19.6422 26.9542C19.9108 26.9542 20.1767 26.9014 20.4248 26.7988C20.6729 26.6962 20.8983 26.5459 21.0882 26.3563L26.4002 21.0533C26.5903 20.8639 26.7412 20.6389 26.8441 20.3912C26.947 20.1435 27 19.8779 27 19.6098C27 19.3416 26.947 19.0761 26.8441 18.8284C26.7412 18.5807 26.5903 18.3557 26.4002 18.1663L21.0882 12.8633C20.8983 12.6737 20.6729 12.5234 20.4248 12.4208C20.1767 12.3182 19.9108 12.2654 19.6422 12.2654C19.3737 12.2654 19.1078 12.3182 18.8597 12.4208C18.6116 12.5234 18.3862 12.6737 18.1963 12.8633C18.0064 13.0528 17.8558 13.2779 17.753 13.5256C17.6503 13.7732 17.5974 14.0387 17.5974 14.3068C17.5974 14.5749 17.6503 14.8403 17.753 15.088C17.8558 15.3357 18.0064 15.5607 18.1963 15.7503L20.0012 17.5725C16.9042 16.8969 12.351 17.7363 9.39761 20.3571V6.98697L11.2025 8.78877C11.3924 8.97833 11.6178 9.1287 11.8659 9.23129C12.114 9.33387 12.3799 9.38668 12.6484 9.38668C12.9169 9.38668 13.1829 9.33387 13.4309 9.23129C13.679 9.1287 13.9045 8.97833 14.0943 8.78877C14.2842 8.59921 14.4349 8.37416 14.5376 8.12649C14.6404 7.87882 14.6933 7.61336 14.6933 7.34528C14.6933 7.0772 14.6404 6.81175 14.5376 6.56407C14.4349 6.3164 14.2842 6.09136 14.0943 5.9018L8.78232 0.598778C8.59258 0.408968 8.3672 0.25838 8.11909 0.155633C7.87097 0.0528868 7.605 0 7.33638 0C7.06777 0 6.8018 0.0528868 6.55368 0.155633C6.30557 0.25838 6.08019 0.408968 5.89045 0.598778L0.598928 5.88132C0.409044 6.07088 0.258421 6.29592 0.155657 6.5436C0.0528924 6.79127 2.00074e-09 7.05673 0 7.32481C-2.00074e-09 7.59289 0.0528924 7.85834 0.155657 8.10601C0.258421 8.35369 0.409044 8.57873 0.598928 8.76829C0.788811 8.95785 1.01424 9.10822 1.26233 9.21081C1.51042 9.3134 1.77633 9.3662 2.04487 9.3662C2.3134 9.3662 2.57931 9.3134 2.8274 9.21081C3.0755 9.10822 3.30092 8.95785 3.4908 8.76829L5.29566 6.98697V33.9525Z" fill="white"/>
</svg>
