<svg width="30" height="30" viewBox="-5 -5 40 46" fill="none" xmlns="http://www.w3.org/2000/svg">
<path d="M3.125 29.25C3.125 29.25 0.75 29.25 0.75 26.875C0.75 24.5 3.125 17.375 15 17.375C26.875 17.375 29.25 24.5 29.25 26.875C29.25 29.25 26.875 29.25 26.875 29.25H3.125ZM15 15C16.8897 15 18.7019 14.2493 20.0381 12.9131C21.3743 11.5769 22.125 9.76467 22.125 7.875C22.125 5.98533 21.3743 4.17306 20.0381 2.83686C18.7019 1.50067 16.8897 0.75 15 0.75C13.1103 0.75 11.2981 1.50067 9.96186 2.83686C8.62567 4.17306 7.875 5.98533 7.875 7.875C7.875 9.76467 8.62567 11.5769 9.96186 12.9131C11.2981 14.2493 13.1103 15 15 15Z" fill="black"/>
</svg>
