<svg width="30" height="36" viewBox="-5 -5 40 46" fill="none" xmlns="http://www.w3.org/2000/svg">
<path d="M14.8781 12.5894L11.9147 15.2483C12.3064 16.5891 12.8536 17.8795 13.5451 19.0932C14.2664 20.298 15.1355 21.4079 16.1323 22.397L19.97 21.2145C22.12 20.5516 24.4671 21.2324 25.8969 22.9345L28.0827 25.536C28.9677 26.5804 29.4114 27.9282 29.3197 29.2941C29.2281 30.6599 28.6084 31.9364 27.5918 32.8532C24.0264 36.1069 18.5367 37.2069 14.4266 33.9784C10.8127 31.1358 7.75604 27.6491 5.41096 23.6942C3.05993 19.7588 1.48586 15.4088 0.774131 10.8802C-0.0142022 5.78469 3.71605 1.70685 8.36722 0.31652C11.1407 -0.514813 14.1005 0.911354 15.1182 3.57019L16.3186 6.7056C17.107 8.7696 16.5408 11.0988 14.8781 12.5894Z" fill="black"/>
</svg>
