<svg width="39" height="30" viewBox="0 0 39 30" fill="none" xmlns="http://www.w3.org/2000/svg">
<path d="M31.9995 19.3099C31.9995 26.6723 26.847 30 19.5979 30C12.3487 30 7.49951 26.6723 7.49951 19.3099C7.49951 11.9475 12.3487 9 19.5979 9C26.847 9 31.9995 11.9475 31.9995 19.3099Z" fill="#4B9697"/>
<path d="M29.1534 19.515C29.1534 23.9324 26.2387 27.5135 19.5142 27.5135C12.7897 27.5135 9.875 23.9324 9.875 19.515C9.875 15.0975 12.7897 11.5165 19.5142 11.5165C26.2387 11.5165 29.1534 15.0975 29.1534 19.515Z" fill="#F8F7F7"/>
<rect x="13.5669" y="17.259" width="3.07634" height="4.10178" rx="1.53817" fill="#383838"/>
<ellipse cx="15.6177" cy="18.387" rx="0.410178" ry="0.512723" fill="white" fill-opacity="0.15"/>
<ellipse cx="16.0059" cy="19.2122" rx="0.307634" ry="0.615268" fill="white" fill-opacity="0.15"/>
<rect x="21.9883" y="19.2434" width="3.46224" height="1.32145" rx="0.660726" transform="rotate(-37.674 21.9883 19.2434)" fill="#383838"/>
<rect x="24.9316" y="21.2608" width="3.28696" height="1.32145" rx="0.660726" transform="rotate(-152.507 24.9316 21.2608)" fill="#383838"/>
<ellipse cx="24.2105" cy="18.5818" rx="0.717812" ry="0.248489" transform="rotate(-34.3085 24.2105 18.5818)" fill="white" fill-opacity="0.15"/>
<path d="M18.0792 21.3608C18.0792 21.3608 18.5414 21.7532 18.8995 21.8735C19.2056 21.9764 19.3971 21.9717 19.7199 21.9761C20.0825 21.981 20.305 22.0054 20.6428 21.8735C20.9637 21.7483 21.3606 21.3608 21.3606 21.3608C21.3606 21.3608 21.3923 22.1383 21.053 22.2837C20.3352 22.5913 19.1043 22.5913 18.3868 22.2837C18.0376 22.134 18.0792 21.3608 18.0792 21.3608Z" fill="#414141"/>
<path d="M22.0165 7.87705C22.0888 7.82535 22.1847 7.82671 22.2573 7.87787V7.87787C22.3808 7.96477 22.3796 8.14995 22.2573 8.23853C21.821 8.55456 20.9463 9.23972 20.5661 9.90468C20.2113 10.5254 20.0482 11.5861 19.9849 12.1279C19.9668 12.2826 19.7923 12.3699 19.6599 12.2879V12.2879C19.5945 12.2473 19.557 12.1745 19.5643 12.0979C19.6026 11.6961 19.7522 10.4144 20.156 9.69959C20.585 8.94012 21.6565 8.13448 22.0165 7.87705Z" fill="#252525" fill-opacity="0.8"/>
<g clip-path="url(#clip0_2191_538)">
<path d="M21.6548 4.30598L23.4169 2.85934C23.4681 2.81755 23.5299 2.79083 23.5954 2.78218C23.6609 2.77353 23.7275 2.7833 23.7877 2.81038C23.848 2.83747 23.8995 2.88081 23.9365 2.93553C23.9735 2.99025 23.9945 3.0542 23.9972 3.1202L24.0847 5.39839L26.017 6.62832C26.073 6.6634 26.1179 6.71349 26.1467 6.77288C26.1755 6.83227 26.187 6.89857 26.18 6.9642C26.1729 7.02983 26.1475 7.09215 26.1068 7.14405C26.066 7.19595 26.0114 7.23534 25.9493 7.25772L23.8022 8.03403L23.2351 10.2396C23.1622 10.5226 22.7946 10.5978 22.6129 10.3672L21.1986 8.56919L18.9147 8.7046C18.6218 8.72225 18.4343 8.39701 18.5977 8.15428L19.8711 6.26623L19.0266 4.14497C19.0024 4.08373 18.9958 4.01692 19.0076 3.95213C19.0195 3.88733 19.0492 3.82715 19.0936 3.77844C19.1379 3.72972 19.195 3.69441 19.2584 3.67653C19.3218 3.65865 19.3889 3.65891 19.4522 3.67728L21.6548 4.30598Z" fill="#49D39C"/>
</g>
<ellipse cx="33.5901" cy="23.2672" rx="2.15344" ry="4.91451" transform="rotate(122.39 33.5901 23.2672)" fill="#4B9697"/>
<ellipse cx="5.33632" cy="23.3018" rx="2.15344" ry="4.91451" transform="rotate(-119.634 5.33632 23.3018)" fill="#4A9697"/>
<defs>
<clipPath id="clip0_2191_538">
<rect width="9.36688" height="9.36688" fill="white" transform="translate(19.916) rotate(24.2079)"/>
</clipPath>
</defs>
</svg>
