<svg width="33" height="39" viewBox="0 0 33 39" fill="none" xmlns="http://www.w3.org/2000/svg">
<circle cx="19" cy="23" r="14" fill="#4C4C4C"/>
<path d="M28.5 22.897C28.5 26.763 25.6274 29.897 19 29.897C12.3726 29.897 9.5 26.763 9.5 22.897C9.5 19.031 12.3726 15.897 19 15.897C25.6274 15.897 28.5 19.031 28.5 22.897Z" fill="white"/>
<rect x="14" y="21" width="3" height="4" rx="1.5" fill="#8B8B8B"/>
<rect x="21.4043" y="22.9709" width="3.40604" height="1.3" rx="0.65" transform="rotate(-37.674 21.4043 22.9709)" fill="#8B8B8B"/>
<rect x="24.2998" y="24.9554" width="3.2336" height="1.3" rx="0.65" transform="rotate(-152.507 24.2998 24.9554)" fill="#8B8B8B"/>
<circle cx="16.5" cy="22.5" r="16.5" fill="#484848"/>
<path d="M28 24.5C28 29.7467 24.5227 34 16.5 34C8.47734 34 5 29.7467 5 24.5C5 19.2533 8.47734 15 16.5 15C24.5227 15 28 19.2533 28 24.5Z" fill="url(#paint0_linear_2160_396)"/>
<rect x="8.83203" y="21.1875" width="3.78516" height="5.04688" rx="1.89258" fill="#383838"/>
<ellipse cx="11.3558" cy="22.5753" rx="0.504687" ry="0.630859" fill="white" fill-opacity="0.25"/>
<ellipse cx="11.8331" cy="23.5906" rx="0.378516" ry="0.757031" fill="white" fill-opacity="0.25"/>
<rect x="19.1943" y="23.6291" width="4.25998" height="1.62593" rx="0.812964" transform="rotate(-37.674 19.1943 23.6291)" fill="#383838"/>
<rect x="22.8154" y="26.1112" width="4.0443" height="1.62593" rx="0.812964" transform="rotate(-152.507 22.8154 26.1112)" fill="#383838"/>
<ellipse cx="21.9282" cy="22.8151" rx="0.883203" ry="0.305743" transform="rotate(-34.3085 21.9282 22.8151)" fill="white" fill-opacity="0.25"/>
<path d="M14.0019 26C14.0019 26 14.5649 26.3401 15.0012 26.4444C15.374 26.5336 15.6072 26.5295 16.0005 26.5333C16.4421 26.5376 16.7132 26.5587 17.1247 26.4444C17.5156 26.3359 17.999 26 17.999 26C17.999 26 18.0377 26.6739 17.6243 26.8C16.7499 27.0667 15.2506 27.0667 14.3766 26.8C13.9513 26.6702 14.0019 26 14.0019 26Z" fill="#414141"/>
<path d="M19.5394 9.66039C19.6449 9.58641 19.7839 9.58798 19.8891 9.66062V9.66062C20.0691 9.78487 20.0658 10.0517 19.8862 10.1794C19.2496 10.6321 17.9801 11.6085 17.4278 12.5562C16.9123 13.4409 16.6747 14.9512 16.5821 15.7266C16.5555 15.9493 16.3002 16.0767 16.1075 15.9595V15.9595C16.0127 15.9019 15.9585 15.7981 15.9691 15.6884C16.0249 15.1141 16.2428 13.2841 16.8306 12.2633C17.4552 11.1787 19.0151 10.0282 19.5394 9.66039Z" fill="#252525" fill-opacity="0.8"/>
<g clip-path="url(#clip0_2160_396)">
<path d="M17.7158 6.29815L19.8839 4.51819C19.9468 4.46677 20.0229 4.43389 20.1034 4.42325C20.184 4.41261 20.266 4.42463 20.3401 4.45796C20.4142 4.49128 20.4776 4.5446 20.5231 4.61193C20.5686 4.67927 20.5945 4.75795 20.5978 4.83916L20.7055 7.64227L23.0831 9.15558C23.1519 9.19874 23.2072 9.26038 23.2426 9.33345C23.2781 9.40653 23.2922 9.48809 23.2836 9.56885C23.2749 9.6496 23.2437 9.72628 23.1935 9.79014C23.1433 9.854 23.0762 9.90246 22.9998 9.93L20.3579 10.8852L19.6602 13.5989C19.5705 13.9472 19.1182 14.0397 18.8946 13.756L17.1545 11.5436L14.3443 11.7103C13.9839 11.732 13.7532 11.3318 13.9543 11.0331L15.521 8.71006L14.482 6.10004C14.4522 6.0247 14.4441 5.94249 14.4586 5.86277C14.4732 5.78304 14.5098 5.709 14.5644 5.64906C14.6189 5.58911 14.6892 5.54567 14.7672 5.52367C14.8452 5.50167 14.9278 5.50199 15.0056 5.52459L17.7158 6.29815Z" fill="#6CDCBC" stroke="#23F1B7" stroke-opacity="0.78" stroke-linecap="round" stroke-linejoin="round"/>
</g>
<defs>
<linearGradient id="paint0_linear_2160_396" x1="23.3511" y1="16.436" x2="10.329" y2="32.7809" gradientUnits="userSpaceOnUse">
<stop stop-color="white"/>
<stop offset="0.5" stop-color="#CCCCCC"/>
<stop offset="1" stop-color="#B6B6B6"/>
</linearGradient>
<clipPath id="clip0_2160_396">
<rect width="13.5951" height="13.2304" fill="white" transform="matrix(0.914975 0.40351 -0.416651 0.909067 15.5605 0.486938)"/>
</clipPath>
</defs>
</svg>
