<svg width="47" height="47" viewBox="0 0 47 47" fill="none" xmlns="http://www.w3.org/2000/svg">
<path d="M10.0833 23.5H6.25L23.5 6.25L40.75 23.5H36.9167M10.0833 23.5V36.9167C10.0833 37.9333 10.4872 38.9084 11.2061 39.6272C11.925 40.3461 12.9 40.75 13.9167 40.75H33.0833C34.1 40.75 35.075 40.3461 35.7939 39.6272C36.5128 38.9084 36.9167 37.9333 36.9167 36.9167V23.5" stroke="white" stroke-width="4" stroke-linecap="round" stroke-linejoin="round"/>
<path d="M17.75 40.75V29.25C17.75 28.2333 18.1539 27.2583 18.8728 26.5394C19.5916 25.8205 20.5667 25.4166 21.5833 25.4166H25.4167C26.4333 25.4166 27.4084 25.8205 28.1272 26.5394C28.8461 27.2583 29.25 28.2333 29.25 29.25V40.75" stroke="white" stroke-width="4" stroke-linecap="round" stroke-linejoin="round"/>
</svg>
