<svg viewBox="0 0 72 72" fill="none" xmlns="http://www.w3.org/2000/svg">
<g id="ei:check">
<path id="Vector" d="M36 60.48C22.464 60.48 11.52 49.536 11.52 36C11.52 22.464 22.464 11.52 36 11.52C49.536 11.52 60.48 22.464 60.48 36C60.48 49.536 49.536 60.48 36 60.48ZM36 14.4C24.048 14.4 14.4 24.048 14.4 36C14.4 47.952 24.048 57.6 36 57.6C47.952 57.6 57.6 47.952 57.6 36C57.6 24.048 47.952 14.4 36 14.4Z" fill="#0FA958"/>
<path id="Vector_2" d="M33.12 46.6561L20.592 34.1281L22.608 32.1121L33.12 42.6241L49.392 26.3521L51.408 28.3681L33.12 46.6561Z" fill="#0FA958"/>
</g>
</svg>
