<svg width="14" height="14" viewBox="0 0 14 14" fill="none" xmlns="http://www.w3.org/2000/svg">
<path d="M6.99995 13.0259C7.29221 13.0261 7.57959 12.9509 7.83426 12.8076C8.08893 12.6642 8.30227 12.4575 8.45362 12.2075L13.1845 4.31088C13.3347 4.05395 13.4149 3.76207 13.417 3.46444C13.419 3.1668 13.3429 2.87385 13.1962 2.61487C13.0495 2.35589 12.8373 2.13998 12.581 1.98872C12.3246 1.83746 12.0331 1.75616 11.7355 1.75296L2.27087 1.75296C1.97351 1.75506 1.6819 1.83513 1.42516 1.98518C1.16842 2.13522 0.955534 2.35 0.807762 2.60805C0.659989 2.86611 0.5825 3.15842 0.583032 3.45579C0.583563 3.75316 0.662094 4.04518 0.810787 4.30271L5.54512 12.2045C5.69664 12.4549 5.91011 12.662 6.16493 12.8058C6.41975 12.9497 6.70733 13.0255 6.99995 13.0259Z" fill="black"/>
</svg>
