<svg viewBox="0 0 38 38" fill="none" xmlns="http://www.w3.org/2000/svg">
<path d="M27.946 10.054C26.6189 8.71491 25.0079 7.69104 23.2321 7.05799C21.4563 6.42494 19.5609 6.19888 17.686 6.39649C11.8752 6.98233 7.09351 11.7007 6.44434 17.5115C5.57351 25.1907 11.511 31.6665 19.0002 31.6665C21.3912 31.6665 23.7331 30.9881 25.7539 29.71C27.7746 28.432 29.3913 26.6068 30.416 24.4465C30.9227 23.3857 30.1627 22.1665 28.991 22.1665C28.4052 22.1665 27.851 22.4832 27.5977 23.0057C26.6784 24.9833 25.1061 26.584 23.1452 27.5384C21.1843 28.4929 18.9546 28.743 16.831 28.2465C13.316 27.4707 10.4818 24.6048 9.73768 21.0898C9.42486 19.7001 9.42848 18.2578 9.74828 16.8696C10.0681 15.4814 10.6959 14.1829 11.5852 13.0701C12.4745 11.9573 13.6027 11.0587 14.8862 10.4407C16.1696 9.82267 17.5757 9.50113 19.0002 9.49983C21.6285 9.49983 23.9718 10.5923 25.6818 12.3182L23.291 14.709C22.2935 15.7065 22.9902 17.4165 24.3993 17.4165H30.0835C30.9543 17.4165 31.6668 16.704 31.6668 15.8332V10.149C31.6668 8.73983 29.9568 8.02733 28.9593 9.02483L27.946 10.054Z" fill="#008485" fill-opacity="0.8"/>
</svg>
