<svg width="100%" height="100%" viewBox="0 0 21 21" fill="none" xmlns="http://www.w3.org/2000/svg">
<g id="fluent:timer-12-filled" clip-path="url(#clip0_328_1902)">
<path id="Vector" d="M6.125 0C5.89294 0 5.67038 0.0921872 5.50628 0.256282C5.34219 0.420376 5.25 0.642936 5.25 0.875C5.25 1.10706 5.34219 1.32962 5.50628 1.49372C5.67038 1.65781 5.89294 1.75 6.125 1.75H13.125C13.3571 1.75 13.5796 1.65781 13.7437 1.49372C13.9078 1.32962 14 1.10706 14 0.875C14 0.642936 13.9078 0.420376 13.7437 0.256282C13.5796 0.0921872 13.3571 0 13.125 0L6.125 0ZM1.75 11.375C1.75 9.28642 2.57968 7.28338 4.05653 5.80653C5.53338 4.32969 7.53642 3.5 9.625 3.5C11.7136 3.5 13.7166 4.32969 15.1935 5.80653C16.6703 7.28338 17.5 9.28642 17.5 11.375C17.5 13.4636 16.6703 15.4666 15.1935 16.9435C13.7166 18.4203 11.7136 19.25 9.625 19.25C7.53642 19.25 5.53338 18.4203 4.05653 16.9435C2.57968 15.4666 1.75 13.4636 1.75 11.375ZM8.75 13.125C8.75 13.3571 8.84219 13.5796 9.00628 13.7437C9.17038 13.9078 9.39294 14 9.625 14C9.85706 14 10.0796 13.9078 10.2437 13.7437C10.4078 13.5796 10.5 13.3571 10.5 13.125V7.875C10.5 7.64294 10.4078 7.42038 10.2437 7.25628C10.0796 7.09219 9.85706 7 9.625 7C9.39294 7 9.17038 7.09219 9.00628 7.25628C8.84219 7.42038 8.75 7.64294 8.75 7.875V13.125ZM18.9945 6.74275C18.8306 6.90702 18.6083 6.99949 18.3762 6.99981C18.1442 7.00014 17.9216 6.90831 17.7572 6.7445L16.0038 4.998C15.9201 4.9174 15.8533 4.82094 15.8073 4.71426C15.7613 4.60757 15.737 4.49279 15.7358 4.37661C15.7346 4.26044 15.7566 4.14519 15.8005 4.0376C15.8443 3.93001 15.9091 3.83223 15.9912 3.74996C16.0732 3.66769 16.1708 3.60258 16.2783 3.55843C16.3857 3.51428 16.5009 3.49198 16.6171 3.49282C16.7333 3.49366 16.8481 3.51763 16.955 3.56333C17.0618 3.60904 17.1584 3.67555 17.2393 3.759L18.9928 5.5055C19.157 5.66935 19.2495 5.89174 19.2498 6.12376C19.2501 6.35578 19.1583 6.57843 18.9945 6.74275Z" fill="#e90061"/>
</g>
<defs>
<clipPath id="clip0_328_1902">
<rect width="21" height="21" fill="white"/>
</clipPath>
</defs>
</svg>
